<?xml version="1.0" encoding="utf-8"?>
<!-- Generator: Adobe Illustrator 26.0.3, SVG Export Plug-In . SVG Version: 6.00 Build 0)  -->
<svg version="1.1" id="Livello_1" xmlns="http://www.w3.org/2000/svg" xmlns:xlink="http://www.w3.org/1999/xlink" x="0px" y="0px"
	 viewBox="0 0 42.4 42.4" style="enable-background:new 0 0 42.4 42.4;" xml:space="preserve">
<style type="text/css">
	.st0{fill:#F5A409;stroke:#F5A409;stroke-width:0.75;stroke-miterlimit:10;}
</style>
<path id="Tracciato_38" class="st0" d="M36.3,27.1c0-0.9-0.7-1.6-1.6-1.6c-0.6,0-1.1,0.3-1.4,0.8L22.8,36.9V2.4l0,0
	c0-0.1,0-0.1,0-0.2c0-0.9-0.7-1.6-1.6-1.6s-1.6,0.7-1.6,1.6l0,0c0,0.1,0,0.1,0,0.2l0,0v34.5L19,36.1c0,0-0.1,0-0.1,0.1V36l-10-10
	c-0.6-0.6-1.6-0.6-2.2,0.1c-0.6,0.6-0.6,1.6,0,2.2L19.3,41l0.3,0.3l0,0l0,0l0,0l0,0c0.9,0.7,2.2,0.7,3.1,0l0,0l0,0l0,0l0,0
	l13.1-13.1l0,0C36.2,27.9,36.3,27.5,36.3,27.1z M22,40.2L22,40.2L22,40.2L22,40.2L22,40.2L22,40.2L22,40.2z"/>
</svg>
