<?xml version="1.0" encoding="utf-8"?>
<!-- Generator: Adobe Illustrator 26.0.3, SVG Export Plug-In . SVG Version: 6.00 Build 0)  -->
<svg version="1.1" id="Livello_1" xmlns="http://www.w3.org/2000/svg" xmlns:xlink="http://www.w3.org/1999/xlink" x="0px" y="0px"
	 viewBox="0 0 42.4 42.4" style="enable-background:new 0 0 42.4 42.4;" xml:space="preserve">
<style type="text/css">
	.st0{fill:none;stroke:#FFFFFF;}
</style>
<path id="explore" class="st0" d="M21.3,11.9c-5.2,0-9.4,4.1-9.4,9.3c0,5.2,4.1,9.4,9.3,9.4s9.4-4.1,9.4-9.3c0,0,0,0,0-0.1
	C30.6,16.1,26.4,11.9,21.3,11.9z M24.7,18.4c-0.7,1.3-1.3,2.6-2,4c-0.1,0.1-0.2,0.2-0.3,0.3c-1.3,0.7-2.6,1.3-4,2
	c-0.2,0.1-0.5,0.1-0.7-0.2c-0.1-0.2-0.1-0.4,0-0.5c0.7-1.3,1.3-2.6,2-3.9c0.1-0.1,0.2-0.2,0.3-0.3c1.3-0.7,2.6-1.3,3.9-2
	c0.2-0.1,0.5-0.1,0.7,0.2c0,0.1,0.1,0.2,0.1,0.2C24.7,18.3,24.7,18.4,24.7,18.4L24.7,18.4z"/>
</svg>
