<?xml version="1.0" encoding="utf-8"?>
<!-- Generator: Adobe Illustrator 26.1.0, SVG Export Plug-In . SVG Version: 6.00 Build 0)  -->
<svg version="1.1" id="Livello_1" xmlns="http://www.w3.org/2000/svg" xmlns:xlink="http://www.w3.org/1999/xlink" x="0px" y="0px"
	 viewBox="0 0 283.5 283.5" style="enable-background:new 0 0 283.5 283.5;" xml:space="preserve">
<style type="text/css">
	.st0{fill:#FFCE34;}
	.st1{fill:#191411;}
</style>
<g id="Raggruppa_52" transform="translate(16271.188 6524.152)">
	<circle id="Ellisse_13" class="st0" cx="-16129.5" cy="-6382.4" r="134.2"/>
	<g id="img" transform="translate(-16232.919 -6382.362)">
		<circle id="Ellisse_14" class="st1" cx="65.4" cy="-33" r="32.7"/>
		<path id="Tracciato_39" class="st1" d="M153-8.7c-0.8-1-1.6-2-2.3-3.1c-0.8,1.2-1.8,2.4-2.8,3.6c-25.2,25.3-50.4,50.5-75.7,75.7
			c-5.6,5.6-11.1,5.6-16.7,0C44.8,56.8,34.1,46,23.3,35.3c-0.9-0.9-1.8-1.7-2.7-2.5l0.6,1l-33.6,33.6
			c37.4,63.8,119.4,85.1,183.2,47.7c21.9-12.9,39.7-31.7,51.3-54.3C199.2,37.5,176.2,14.4,153-8.7z"/>
		<path id="Tracciato_40" class="st1" d="M222.3,60.7c-33.8,65.8-114.5,91.7-180.2,57.9C19.4,107,0.6,89.2-12.3,67.3l33.6-33.6
			l-0.6-0.9c0.9,0.8,1.8,1.6,2.7,2.5C34.1,46,44.8,56.8,55.6,67.5c5.6,5.6,11.1,5.7,16.7,0C97.5,42.3,122.7,17.1,148-8.1
			c1-1.1,1.9-2.3,2.8-3.6c0.7,1.1,1.5,2.1,2.3,3.1C176.1,14.4,199.2,37.6,222.3,60.7z"/>
	</g>
</g>
</svg>
