<?xml version="1.0" encoding="UTF-8"?><svg id="a" xmlns="http://www.w3.org/2000/svg" viewBox="0 0 839 168.8"><defs><style>.b{fill:#1d1d1b;}</style></defs><path class="b" d="M68.16,0c13.49,0,25.37,3.29,35.63,9.86,10.26,6.58,18.21,16.02,23.86,28.33,5.64,12.31,8.47,27.26,8.47,44.84s-2.89,32.11-8.68,44.95c-5.78,12.84-13.84,22.86-24.17,30.05-10.33,7.19-22.1,10.78-35.32,10.78s-25.54-3.28-35.73-9.86c-10.19-6.57-18.11-16.05-23.75-28.44C2.82,118.12,0,103.21,0,85.78S2.92,53.67,8.78,40.82c5.85-12.84,13.87-22.86,24.06-30.05C43.03,3.59,54.8,0,68.16,0Zm-.83,4.13c-8.54,0-15.98,3.44-22.31,10.32-6.34,6.88-11.23,16.36-14.67,28.44-3.44,12.08-5.16,26.07-5.16,41.97s1.93,30.31,5.78,42.31c3.85,12.01,9.09,21.26,15.7,27.75,6.61,6.5,13.97,9.75,22.1,9.75,8.54,0,15.94-3.44,22.2-10.32,6.26-6.88,11.15-16.4,14.66-28.55,3.51-12.15,5.27-26.11,5.27-41.86s-1.96-30.5-5.89-42.43c-3.92-11.93-9.16-21.14-15.7-27.64-6.54-6.5-13.87-9.75-22-9.75Z"/><path class="b" d="M172.26,57.34c2.11,.1,4.84,.21,8.19,.3,3.35,.1,6.68,.15,9.98,.15,4.41,0,8.61-.05,12.6-.15,3.99-.1,6.82-.15,8.47-.15,10.28,0,17.97,2.24,23.06,6.73,5.09,4.49,7.64,10.25,7.64,17.28,0,3.57-.76,7.11-2.27,10.63-1.52,3.52-3.97,6.68-7.37,9.48-3.4,2.81-7.9,5.02-13.49,6.65v.31c7.71,.92,13.77,2.75,18.18,5.5,4.41,2.75,7.53,6.04,9.36,9.86,1.84,3.82,2.75,7.82,2.75,12,0,8.97-3.05,16.16-9.16,21.56-6.11,5.4-14.62,8.1-25.54,8.1-2.02,0-5.07-.08-9.16-.23-4.09-.15-9.02-.23-14.8-.23-3.49,0-6.91,.02-10.26,.08-3.35,.05-6.08,.18-8.19,.38v-3.06c3.12-.2,5.46-.61,7.02-1.22,1.56-.61,2.59-1.84,3.1-3.67,.5-1.83,.76-4.59,.76-8.26V73.54c0-3.77-.25-6.55-.76-8.33-.51-1.78-1.56-3.01-3.17-3.67-1.61-.66-3.92-1.04-6.95-1.15v-3.06Zm36.35,3.06c-3.95,0-6.54,.87-7.78,2.6-1.24,1.73-1.86,5.25-1.86,10.55v75.84c0,5.3,.64,8.74,1.93,10.32,1.28,1.58,3.99,2.37,8.12,2.37,8.26,0,14.25-2.32,17.97-6.96,3.72-4.64,5.58-11.24,5.58-19.8,0-7.85-1.86-13.91-5.58-18.2-3.72-4.28-9.85-6.42-18.38-6.42h-13.36v-2.6h11.84c5.05,0,8.95-1.15,11.7-3.44,2.75-2.29,4.63-5.35,5.65-9.17,1.01-3.82,1.51-7.93,1.51-12.31,0-7.54-1.33-13.23-3.99-17.05-2.66-3.82-7.12-5.73-13.36-5.73Z"/><path class="b" d="M310.79,57.34v3.06c-3.03,.1-5.33,.49-6.89,1.15-1.56,.66-2.62,1.89-3.17,3.67-.55,1.78-.83,4.56-.83,8.33v75.84c0,3.67,.28,6.42,.83,8.26,.55,1.84,1.6,3.06,3.17,3.67,1.56,.61,3.86,1.02,6.89,1.22v3.06c-2.2-.2-4.98-.33-8.33-.38-3.35-.05-6.77-.08-10.26-.08-3.86,0-7.46,.02-10.81,.08-3.35,.05-6.08,.18-8.19,.38v-3.06c3.12-.2,5.46-.61,7.02-1.22,1.56-.61,2.59-1.84,3.1-3.67,.5-1.83,.76-4.59,.76-8.26V73.54c0-3.77-.25-6.55-.76-8.33-.51-1.78-1.56-3.01-3.17-3.67-1.61-.66-3.92-1.04-6.95-1.15v-3.06c2.11,.1,4.84,.21,8.19,.3,3.35,.1,6.95,.15,10.81,.15,3.49,0,6.91-.05,10.26-.15,3.35-.1,6.13-.2,8.33-.3Z"/><path class="b" d="M405.66,57.34c-.37,3.87-.62,7.62-.76,11.24-.14,3.62-.21,6.4-.21,8.33s.04,3.77,.14,5.5c.09,1.73,.18,3.16,.28,4.28h-3.17c-.64-6.52-1.63-11.67-2.96-15.44-1.33-3.77-3.31-6.45-5.92-8.03-2.62-1.58-6.27-2.37-10.95-2.37h-9.5c-2.94,0-5.16,.28-6.68,.84-1.51,.56-2.55,1.68-3.1,3.36s-.83,4.31-.83,7.87v77.06c0,3.47,.28,6.07,.83,7.8,.55,1.73,1.58,2.88,3.1,3.44,1.52,.56,3.74,.84,6.68,.84h8.95c5.23,0,9.39-.92,12.46-2.75,3.07-1.83,5.42-4.84,7.02-9.02,1.61-4.18,2.82-9.89,3.65-17.12h3.17c-.28,2.96-.41,6.83-.41,11.62,0,2.04,.07,5,.21,8.87,.14,3.87,.39,7.85,.76,11.93-4.68-.2-9.96-.33-15.84-.38-5.88-.05-11.11-.08-15.7-.08h-11.36c-4.73,0-9.78,.02-15.15,.08-5.37,.05-10.4,.18-15.08,.38v-3.06c3.12-.2,5.46-.61,7.02-1.22,1.56-.61,2.59-1.84,3.1-3.67,.5-1.83,.76-4.59,.76-8.26V73.54c0-3.77-.25-6.55-.76-8.33-.51-1.78-1.56-3.01-3.17-3.67-1.61-.66-3.92-1.04-6.95-1.15v-3.06c4.68,.1,9.71,.21,15.08,.3,5.37,.1,10.42,.15,15.15,.15h11.36c4.22,0,9.02-.02,14.39-.08,5.37-.05,10.17-.18,14.39-.38Zm-22.86,52.29v3.06h-24.92v-3.06h24.92Zm3.99-20.18c-.37,5.81-.53,10.24-.48,13.3,.04,3.06,.07,5.86,.07,8.41s.04,5.35,.14,8.41c.09,3.06,.32,7.49,.69,13.3h-3.17c-.46-3.36-1.06-6.6-1.79-9.71-.74-3.11-2.04-5.63-3.92-7.57-1.88-1.93-4.8-2.9-8.74-2.9v-3.06c3.95,0,6.82-1.15,8.61-3.44s3.03-5.02,3.72-8.18c.69-3.16,1.26-6.01,1.72-8.56h3.17Z"/><path class="b" d="M512.52,57.34c-.37,4.28-.62,8.44-.76,12.46-.14,4.03-.21,7.11-.21,9.25,0,2.35,.04,4.59,.14,6.73,.09,2.14,.18,3.98,.28,5.5h-3.17c-.92-7.65-2.13-13.66-3.65-18.04-1.52-4.38-3.7-7.54-6.54-9.48-2.85-1.94-6.93-2.91-12.26-2.91h-5.92v87.15c0,4.08,.34,7.14,1.03,9.17,.69,2.04,2.07,3.39,4.13,4.05,2.07,.66,5.07,1.1,9.02,1.3v3.06c-2.57-.2-5.88-.33-9.91-.38-4.04-.05-8.17-.08-12.39-.08s-8.56,.02-12.46,.08c-3.9,.05-7.05,.18-9.43,.38v-3.06c3.95-.2,6.93-.63,8.95-1.3,2.02-.66,3.4-2.01,4.13-4.05,.73-2.04,1.1-5.1,1.1-9.17V60.85h-6.06c-5.14,0-9.18,.97-12.12,2.91-2.94,1.94-5.14,5.1-6.61,9.48-1.47,4.38-2.66,10.4-3.58,18.04h-3.17c.18-1.53,.3-3.36,.34-5.5,.04-2.14,.07-4.38,.07-6.73,0-2.14-.07-5.22-.21-9.25-.14-4.03-.39-8.18-.76-12.46,3.95,.1,8.26,.21,12.94,.3,4.68,.1,9.41,.15,14.18,.15h25.75c4.68,0,9.41-.05,14.18-.15,4.77-.1,9.09-.2,12.94-.3Z"/><path class="b" d="M614,57.34c-.37,4.28-.62,8.44-.76,12.46-.14,4.03-.21,7.11-.21,9.25,0,2.35,.04,4.59,.14,6.73,.09,2.14,.18,3.98,.28,5.5h-3.17c-.92-7.65-2.13-13.66-3.65-18.04-1.52-4.38-3.7-7.54-6.54-9.48-2.85-1.94-6.93-2.91-12.26-2.91h-5.92v87.15c0,4.08,.34,7.14,1.03,9.17,.69,2.04,2.07,3.39,4.13,4.05,2.07,.66,5.07,1.1,9.02,1.3v3.06c-2.57-.2-5.88-.33-9.91-.38-4.04-.05-8.17-.08-12.39-.08s-8.56,.02-12.46,.08c-3.9,.05-7.05,.18-9.43,.38v-3.06c3.95-.2,6.93-.63,8.95-1.3,2.02-.66,3.4-2.01,4.13-4.05,.73-2.04,1.1-5.1,1.1-9.17V60.85h-6.06c-5.14,0-9.18,.97-12.12,2.91-2.94,1.94-5.14,5.1-6.61,9.48-1.47,4.38-2.66,10.4-3.58,18.04h-3.17c.18-1.53,.3-3.36,.34-5.5,.04-2.14,.07-4.38,.07-6.73,0-2.14-.07-5.22-.21-9.25-.14-4.03-.39-8.18-.76-12.46,3.95,.1,8.26,.21,12.94,.3,4.68,.1,9.41,.15,14.18,.15h25.75c4.68,0,9.41-.05,14.18-.15,4.77-.1,9.09-.2,12.94-.3Z"/><path class="b" d="M674.59,57.34v3.06c-3.03,.1-5.33,.49-6.89,1.15-1.56,.66-2.62,1.89-3.17,3.67-.55,1.78-.83,4.56-.83,8.33v75.84c0,3.67,.28,6.42,.83,8.26,.55,1.84,1.6,3.06,3.17,3.67,1.56,.61,3.86,1.02,6.89,1.22v3.06c-2.2-.2-4.98-.33-8.33-.38-3.35-.05-6.77-.08-10.26-.08-3.86,0-7.46,.02-10.81,.08-3.35,.05-6.08,.18-8.19,.38v-3.06c3.12-.2,5.46-.61,7.02-1.22,1.56-.61,2.59-1.84,3.1-3.67,.5-1.83,.76-4.59,.76-8.26V73.54c0-3.77-.25-6.55-.76-8.33-.51-1.78-1.56-3.01-3.17-3.67-1.61-.66-3.92-1.04-6.95-1.15v-3.06c2.11,.1,4.84,.21,8.19,.3,3.35,.1,6.95,.15,10.81,.15,3.49,0,6.91-.05,10.26-.15,3.35-.1,6.13-.2,8.33-.3Z"/><path class="b" d="M783.37,57.34v3.06c-1.84,.51-3.79,1.89-5.85,4.13-2.06,2.24-3.97,5.86-5.71,10.86l-31.26,90.82h-4.55l-34.15-96.02c-1.38-3.77-2.89-6.32-4.54-7.65-1.65-1.32-3.21-2.04-4.68-2.14v-3.06c2.11,.1,4.7,.21,7.78,.3,3.07,.1,6.08,.15,9.02,.15,3.76,0,7.32-.05,10.67-.15,3.35-.1,6.04-.2,8.05-.3v3.06c-4.59,.21-7.53,1.07-8.81,2.6-1.29,1.53-1.06,4.94,.69,10.24l25.48,73.85-2.48,3.06,22.31-65.14c2.11-6.22,3.17-11.08,3.17-14.6s-1.01-6.04-3.03-7.57c-2.02-1.53-4.96-2.34-8.81-2.45v-3.06c2.84,.1,5.65,.21,8.4,.3,2.75,.1,5.37,.15,7.85,.15,2.3,0,4.27-.05,5.92-.15,1.65-.1,3.17-.2,4.55-.3Z"/><path class="b" d="M839,57.34v3.06c-3.03,.1-5.33,.49-6.89,1.15-1.56,.66-2.62,1.89-3.17,3.67-.55,1.78-.83,4.56-.83,8.33v75.84c0,3.67,.28,6.42,.83,8.26,.55,1.84,1.61,3.06,3.17,3.67,1.56,.61,3.85,1.02,6.89,1.22v3.06c-2.2-.2-4.98-.33-8.33-.38-3.35-.05-6.77-.08-10.26-.08-3.86,0-7.46,.02-10.81,.08-3.35,.05-6.08,.18-8.19,.38v-3.06c3.12-.2,5.46-.61,7.02-1.22,1.56-.61,2.59-1.84,3.1-3.67,.5-1.83,.76-4.59,.76-8.26V73.54c0-3.77-.25-6.55-.76-8.33-.51-1.78-1.56-3.01-3.17-3.67-1.61-.66-3.92-1.04-6.95-1.15v-3.06c2.11,.1,4.84,.21,8.19,.3,3.35,.1,6.95,.15,10.81,.15,3.49,0,6.91-.05,10.26-.15,3.35-.1,6.13-.2,8.33-.3Z"/></svg>