<?xml version="1.0" encoding="UTF-8"?><svg id="a" xmlns="http://www.w3.org/2000/svg" viewBox="0 0 1080.06 411.77"><defs><style>.b{fill:#1d1d1b;}</style></defs><path class="b" d="M64.1,0V4.66c-5.29,.16-9.29,.74-12.01,1.75-2.72,1.01-4.55,2.88-5.48,5.59-.93,2.72-1.4,6.96-1.4,12.71v116.55c0,5.28,.43,9.25,1.28,11.89,.85,2.64,2.56,4.39,5.13,5.24,2.56,.86,6.25,1.28,11.07,1.28h15.15c9.01,0,16.16-1.67,21.45-5.01,5.28-3.34,9.32-8.43,12.12-15.27,2.8-6.84,4.82-15.54,6.06-26.11h5.36c-.47,4.98-.7,11.5-.7,19.58,0,3.11,.12,7.66,.35,13.64,.23,5.98,.66,12.16,1.28,18.53-7.93-.31-16.86-.5-26.81-.58-9.95-.08-18.81-.12-26.57-.12h-19.23c-8.01,0-16.55,.04-25.64,.12-9.09,.08-17.6,.27-25.53,.58v-4.66c5.28-.31,9.24-.93,11.89-1.87,2.64-.93,4.39-2.8,5.24-5.59,.85-2.8,1.28-6.99,1.28-12.59V24.71c0-5.75-.43-9.98-1.28-12.71-.86-2.72-2.64-4.58-5.36-5.59-2.72-1.01-6.64-1.59-11.77-1.75V0C3.57,.16,8.2,.31,13.87,.47c5.67,.16,11.77,.23,18.3,.23,5.9,0,11.77-.08,17.6-.23,5.83-.15,10.61-.31,14.34-.47Z"/><path class="b" d="M205.68,54.39l37.92,97.59c1.45,3.83,3.13,6.42,5.05,7.77,1.92,1.35,3.7,2.07,5.36,2.18v3.11c-2.49-.21-5.41-.34-8.78-.39-3.37-.05-6.76-.08-10.18-.08-4.35,0-8.39,.03-12.12,.08-3.73,.05-6.74,.18-9.01,.39v-3.11c5.28-.21,8.63-1.11,10.02-2.72,1.4-1.6,1.06-5.05-1.01-10.34l-27.97-75.53,2.49-2.8-25.8,67.45c-2.49,6.22-3.68,11.03-3.57,14.45,.1,3.42,1.32,5.83,3.65,7.23,2.33,1.4,5.67,2.15,10.02,2.25v3.11c-3.11-.21-6.24-.34-9.4-.39-3.16-.05-6.14-.08-8.94-.08-2.49,0-4.69,.03-6.6,.08-1.92,.05-3.65,.18-5.21,.39v-3.11c2.18-.52,4.35-1.81,6.53-3.89,2.18-2.07,4.25-5.59,6.22-10.57l36.05-93.09h5.28Zm16.32,65.89v3.11h-46.31l1.55-3.11h44.76Z"/><path class="b" d="M479.96,0V4.66c-5.29,.31-9.25,1.25-11.89,2.8-2.64,1.56-4.39,4.08-5.24,7.58-.86,3.5-1.28,8.43-1.28,14.8V165.97h-7.69L355.02,22.38v111.89c0,6.53,.47,11.62,1.4,15.27,.93,3.65,2.95,6.26,6.06,7.81,3.11,1.55,7.85,2.56,14.22,3.03v4.66c-2.95-.31-6.72-.5-11.31-.58-4.59-.08-8.9-.12-12.94-.12s-7.77,.04-11.66,.12c-3.89,.08-7.07,.27-9.56,.58v-4.66c5.13-.47,9.01-1.44,11.66-2.91,2.64-1.48,4.43-4,5.36-7.58,.93-3.57,1.4-8.47,1.4-14.69V24.71c0-5.75-.47-9.98-1.4-12.71-.93-2.72-2.72-4.58-5.36-5.59-2.64-1.01-6.53-1.59-11.66-1.75V0c2.48,.16,5.67,.31,9.56,.47,3.88,.16,7.77,.23,11.66,.23,3.42,0,6.76-.08,10.02-.23,3.26-.15,6.14-.31,8.63-.47l85.08,121.68V30.77c0-6.68-.51-11.81-1.52-15.39-1.01-3.57-3.07-6.18-6.18-7.81-3.11-1.63-7.77-2.6-13.99-2.91V0c2.8,.16,6.53,.31,11.19,.47,4.66,.16,9.01,.23,13.05,.23s7.77-.08,11.66-.23c3.88-.15,7.07-.31,9.56-.47Z"/><path class="b" d="M570.02,52.84c10.15,0,19.09,2.23,26.81,6.68,7.72,4.46,13.7,10.85,17.95,19.19,4.25,8.34,6.37,18.47,6.37,30.38s-2.18,21.76-6.53,30.46c-4.35,8.7-10.41,15.49-18.18,20.36-7.77,4.87-16.63,7.3-26.57,7.3s-19.22-2.23-26.88-6.68c-7.67-4.45-13.63-10.88-17.87-19.27-4.25-8.39-6.37-18.49-6.37-30.3s2.2-21.76,6.6-30.46c4.4-8.7,10.44-15.49,18.1-20.36,7.67-4.87,16.52-7.3,26.57-7.3Zm-.62,2.8c-6.43,0-12.02,2.33-16.78,6.99-4.77,4.66-8.45,11.09-11.03,19.27-2.59,8.19-3.89,17.67-3.89,28.44s1.45,20.54,4.35,28.67c2.9,8.13,6.84,14.4,11.81,18.8,4.97,4.4,10.51,6.6,16.63,6.6,6.42,0,11.99-2.33,16.71-6.99,4.71-4.66,8.39-11.11,11.03-19.35,2.64-8.24,3.96-17.69,3.96-28.36s-1.48-20.67-4.43-28.75-6.89-14.32-11.81-18.73c-4.92-4.4-10.44-6.61-16.55-6.61Z"/><path class="b" d="M685.48,53.15c5.49,0,9.69,.62,12.59,1.87,2.9,1.24,5.44,2.59,7.61,4.04,1.24,.73,2.25,1.27,3.03,1.63,.78,.36,1.53,.54,2.25,.54,1.66,0,2.8-2.28,3.42-6.84h3.57c-.1,1.86-.23,4.07-.39,6.6-.16,2.54-.26,5.88-.31,10.02-.05,4.14-.08,9.58-.08,16.32h-3.57c-.31-5.08-1.43-10-3.34-14.76-1.92-4.76-4.72-8.65-8.39-11.66-3.68-3-8.37-4.51-14.06-4.51-5.28,0-9.66,1.58-13.13,4.74-3.47,3.16-5.21,7.33-5.21,12.51,0,4.56,1.14,8.37,3.42,11.42,2.28,3.06,5.41,5.91,9.4,8.55,3.99,2.64,8.52,5.57,13.6,8.78,5.18,3.32,9.84,6.6,13.99,9.87,4.14,3.26,7.41,6.86,9.79,10.8,2.38,3.94,3.57,8.7,3.57,14.3,0,6.74-1.58,12.3-4.74,16.71-3.16,4.4-7.38,7.69-12.67,9.87s-11.09,3.26-17.41,3.26c-5.8,0-10.41-.62-13.83-1.86-3.42-1.24-6.32-2.54-8.7-3.89-2.28-1.45-4.04-2.18-5.28-2.18-1.66,0-2.8,2.28-3.42,6.84h-3.57c.21-2.28,.34-4.95,.39-8,.05-3.06,.1-7.07,.16-12.04,.05-4.97,.08-11.24,.08-18.8h3.57c.41,6.42,1.58,12.43,3.5,18.03,1.92,5.59,4.87,10.08,8.86,13.44,3.99,3.37,9.3,5.05,15.93,5.05,5.18,0,9.79-1.58,13.83-4.74,4.04-3.16,6.06-8.11,6.06-14.84,0-6.32-2.2-11.58-6.6-15.77-4.4-4.2-10.18-8.47-17.33-12.82-4.87-3.11-9.43-6.22-13.68-9.32-4.25-3.11-7.64-6.73-10.18-10.88-2.54-4.14-3.81-9.07-3.81-14.76,0-6.32,1.48-11.5,4.43-15.54,2.95-4.04,6.78-7.04,11.5-9.01,4.71-1.97,9.76-2.95,15.15-2.95Z"/><path class="b" d="M840.73,55.01c-.41,4.35-.7,8.57-.85,12.67-.16,4.09-.23,7.23-.23,9.4,0,2.39,.05,4.66,.16,6.84,.1,2.18,.21,4.04,.31,5.59h-3.57c-1.04-7.77-2.41-13.88-4.12-18.34-1.71-4.45-4.17-7.67-7.38-9.63-3.21-1.97-7.82-2.95-13.83-2.95h-6.68v88.58c0,4.14,.39,7.25,1.16,9.32,.78,2.07,2.33,3.45,4.66,4.12,2.33,.68,5.72,1.11,10.18,1.32v3.11c-2.9-.21-6.63-.34-11.19-.39-4.56-.05-9.22-.08-13.99-.08s-9.66,.03-14.06,.08c-4.4,.05-7.95,.18-10.65,.39v-3.11c4.45-.21,7.82-.64,10.1-1.32,2.28-.67,3.83-2.04,4.66-4.12,.83-2.07,1.24-5.18,1.24-9.32V58.59h-6.84c-5.8,0-10.36,.99-13.68,2.95-3.32,1.97-5.8,5.18-7.46,9.63-1.66,4.46-3.01,10.57-4.04,18.34h-3.57c.21-1.55,.34-3.42,.39-5.59,.05-2.18,.08-4.45,.08-6.84,0-2.18-.08-5.31-.23-9.4-.16-4.09-.44-8.31-.85-12.67,4.45,.1,9.32,.21,14.61,.31,5.28,.11,10.62,.16,16.01,.16h29.06c5.28,0,10.62-.05,16.01-.16,5.39-.1,10.26-.2,14.61-.31Z"/><path class="b" d="M866.68,55.01c2.38,.1,5.46,.21,9.25,.31,3.78,.11,7.54,.16,11.27,.16,4.97,0,9.71-.05,14.22-.16,4.51-.1,7.69-.15,9.56-.15,13.16,0,23,2.51,29.53,7.54,6.53,5.03,9.79,11.53,9.79,19.5,0,3.21-.65,6.61-1.94,10.18-1.3,3.57-3.55,6.89-6.76,9.95-3.21,3.06-7.56,5.57-13.05,7.54-5.49,1.97-12.49,2.95-20.98,2.95h-14.92v-3.11h13.37c6.94,0,12.25-1.16,15.93-3.5,3.68-2.33,6.16-5.44,7.46-9.32,1.3-3.89,1.94-8.21,1.94-12.98,0-8.18-1.76-14.53-5.28-19.04-3.52-4.51-9.63-6.76-18.34-6.76-4.46,0-7.38,.88-8.78,2.64-1.4,1.76-2.1,5.34-2.1,10.72v77.08c0,3.73,.31,6.53,.93,8.39,.62,1.87,1.81,3.11,3.58,3.73,1.76,.62,4.35,1.04,7.77,1.24v3.11c-2.49-.21-5.62-.34-9.4-.39-3.78-.05-7.64-.08-11.58-.08-4.35,0-8.42,.03-12.2,.08-3.78,.05-6.86,.18-9.25,.39v-3.11c3.52-.21,6.16-.62,7.93-1.24,1.76-.62,2.93-1.87,3.5-3.73,.57-1.86,.85-4.66,.85-8.39V71.49c0-3.83-.29-6.65-.85-8.47-.57-1.81-1.76-3.06-3.57-3.73-1.81-.67-4.43-1.06-7.85-1.17v-3.11Zm26.26,55.17c5.28,.21,9.53,.44,12.74,.7,3.21,.26,5.91,.49,8.08,.7s4.2,.47,6.06,.78c7.77,1.04,13.44,3.11,17.02,6.22,3.57,3.11,6.03,7.88,7.38,14.3l3.89,15.85c.93,4.46,1.94,7.61,3.03,9.48,1.09,1.86,2.72,2.8,4.89,2.8,1.66-.1,3.03-.6,4.12-1.48,1.09-.88,2.25-2.1,3.5-3.65l2.18,1.71c-2.39,3.21-4.87,5.62-7.46,7.23-2.59,1.6-6.06,2.41-10.41,2.41s-8.26-1.17-11.42-3.5c-3.16-2.33-5.42-6.76-6.76-13.29l-3.11-15.54c-.93-4.45-1.97-8.32-3.11-11.58-1.14-3.26-2.72-5.83-4.74-7.69-2.02-1.86-4.95-2.8-8.78-2.8h-16.78l-.31-2.64Z"/><path class="b" d="M1031.72,54.39l37.92,97.59c1.45,3.83,3.13,6.42,5.05,7.77,1.92,1.35,3.7,2.07,5.36,2.18v3.11c-2.49-.21-5.41-.34-8.78-.39-3.37-.05-6.76-.08-10.18-.08-4.35,0-8.39,.03-12.12,.08-3.73,.05-6.74,.18-9.01,.39v-3.11c5.28-.21,8.63-1.11,10.02-2.72,1.4-1.6,1.06-5.05-1.01-10.34l-27.97-75.53,2.49-2.8-25.8,67.45c-2.49,6.22-3.68,11.03-3.58,14.45,.1,3.42,1.32,5.83,3.65,7.23s5.67,2.15,10.02,2.25v3.11c-3.11-.21-6.24-.34-9.4-.39-3.16-.05-6.14-.08-8.94-.08-2.49,0-4.69,.03-6.6,.08-1.92,.05-3.65,.18-5.21,.39v-3.11c2.18-.52,4.35-1.81,6.53-3.89,2.18-2.07,4.25-5.59,6.22-10.57l36.05-93.09h5.28Zm16.32,65.89v3.11h-46.31l1.55-3.11h44.76Z"/><path class="b" d="M52.68,240.67c8.24,0,14.53,.93,18.88,2.8,4.35,1.86,8.16,3.89,11.42,6.06,1.86,1.09,3.38,1.9,4.55,2.45,1.17,.55,2.29,.82,3.38,.82,2.48,0,4.2-3.42,5.13-10.26h5.36c-.16,2.8-.35,6.1-.58,9.91-.23,3.81-.39,8.82-.47,15.03-.08,6.22-.12,14.38-.12,24.48h-5.36c-.47-7.61-2.14-15-5.01-22.14-2.88-7.15-7.07-12.97-12.59-17.48-5.52-4.51-12.55-6.76-21.1-6.76-7.93,0-14.49,2.37-19.7,7.11-5.21,4.74-7.81,11-7.81,18.77,0,6.84,1.71,12.55,5.13,17.13,3.42,4.59,8.12,8.86,14.1,12.82,5.98,3.96,12.78,8.36,20.4,13.17,7.77,4.98,14.76,9.91,20.98,14.8,6.21,4.89,11.11,10.3,14.69,16.2,3.57,5.91,5.36,13.05,5.36,21.45,0,10.1-2.37,18.46-7.11,25.06-4.74,6.61-11.07,11.54-19,14.8-7.93,3.26-16.63,4.89-26.11,4.89-8.71,0-15.62-.93-20.75-2.8-5.13-1.86-9.48-3.81-13.05-5.83-3.42-2.17-6.06-3.26-7.93-3.26-2.49,0-4.2,3.42-5.13,10.26H4.89c.31-3.42,.5-7.42,.58-12,.08-4.58,.15-10.61,.23-18.07,.08-7.46,.12-16.86,.12-28.21h5.36c.62,9.64,2.37,18.65,5.24,27.04,2.87,8.39,7.3,15.12,13.29,20.16,5.98,5.05,13.95,7.58,23.89,7.58,7.77,0,14.69-2.37,20.75-7.11,6.06-4.74,9.09-12.16,9.09-22.26,0-9.48-3.3-17.37-9.91-23.66-6.61-6.29-15.27-12.7-25.99-19.23-7.31-4.66-14.14-9.32-20.51-13.99-6.37-4.66-11.46-10.1-15.27-16.32-3.81-6.21-5.71-13.6-5.71-22.14,0-9.48,2.21-17.25,6.64-23.31s10.18-10.57,17.25-13.52c7.07-2.95,14.65-4.43,22.73-4.43Z"/><path class="b" d="M238.23,298.48c-.42,4.35-.7,8.57-.85,12.67-.16,4.09-.23,7.23-.23,9.4,0,2.39,.05,4.66,.15,6.84,.1,2.18,.21,4.04,.31,5.59h-3.57c-1.04-7.77-2.41-13.88-4.12-18.34-1.71-4.45-4.17-7.67-7.38-9.63-3.21-1.97-7.82-2.95-13.83-2.95h-6.68v88.58c0,4.14,.39,7.25,1.17,9.32,.78,2.07,2.33,3.45,4.66,4.12,2.33,.68,5.72,1.11,10.18,1.32v3.11c-2.9-.21-6.63-.34-11.19-.39-4.56-.05-9.22-.08-13.99-.08s-9.66,.03-14.06,.08c-4.4,.05-7.95,.18-10.65,.39v-3.11c4.45-.21,7.82-.64,10.1-1.32,2.28-.67,3.83-2.04,4.66-4.12,.83-2.07,1.24-5.18,1.24-9.32v-88.58h-6.84c-5.8,0-10.36,.99-13.68,2.95-3.32,1.97-5.8,5.18-7.46,9.63-1.66,4.46-3.01,10.57-4.04,18.34h-3.57c.21-1.55,.34-3.42,.39-5.59,.05-2.18,.08-4.45,.08-6.84,0-2.18-.08-5.31-.23-9.4-.16-4.09-.44-8.31-.85-12.67,4.45,.1,9.32,.21,14.61,.31,5.28,.11,10.62,.16,16.01,.16h29.06c5.28,0,10.62-.05,16.01-.16,5.39-.1,10.26-.2,14.61-.31Z"/><path class="b" d="M317.18,296.3c10.15,0,19.09,2.23,26.81,6.68,7.72,4.46,13.7,10.85,17.95,19.19,4.25,8.34,6.37,18.47,6.37,30.38s-2.18,21.76-6.53,30.46c-4.35,8.7-10.41,15.49-18.18,20.36-7.77,4.87-16.63,7.3-26.57,7.3s-19.22-2.23-26.88-6.68c-7.67-4.45-13.63-10.88-17.87-19.27-4.25-8.39-6.37-18.49-6.37-30.3s2.2-21.76,6.6-30.46c4.4-8.7,10.44-15.49,18.1-20.36,7.67-4.87,16.52-7.3,26.57-7.3Zm-.62,2.8c-6.43,0-12.02,2.33-16.78,6.99-4.77,4.66-8.45,11.09-11.03,19.27-2.59,8.19-3.89,17.67-3.89,28.44s1.45,20.54,4.35,28.67c2.9,8.13,6.84,14.4,11.81,18.8,4.97,4.4,10.51,6.6,16.63,6.6,6.42,0,11.99-2.33,16.71-6.99,4.71-4.66,8.39-11.11,11.03-19.35,2.64-8.24,3.96-17.69,3.96-28.36s-1.48-20.67-4.43-28.75c-2.95-8.08-6.89-14.32-11.81-18.73-4.92-4.4-10.44-6.61-16.55-6.61Z"/><path class="b" d="M396.28,298.48c2.38,.1,5.46,.21,9.25,.31,3.78,.11,7.54,.16,11.27,.16,4.97,0,9.71-.05,14.22-.16,4.51-.1,7.69-.15,9.56-.15,13.16,0,23,2.51,29.53,7.54,6.53,5.03,9.79,11.53,9.79,19.5,0,3.21-.65,6.61-1.94,10.18-1.3,3.57-3.55,6.89-6.76,9.95-3.21,3.06-7.56,5.57-13.05,7.54-5.49,1.97-12.49,2.95-20.98,2.95h-14.92v-3.11h13.36c6.94,0,12.25-1.16,15.93-3.5,3.68-2.33,6.16-5.44,7.46-9.32,1.29-3.89,1.94-8.21,1.94-12.98,0-8.18-1.76-14.53-5.28-19.04-3.52-4.51-9.64-6.76-18.34-6.76-4.46,0-7.38,.88-8.78,2.64-1.4,1.76-2.1,5.34-2.1,10.72v77.08c0,3.73,.31,6.53,.93,8.39,.62,1.87,1.81,3.11,3.57,3.73,1.76,.62,4.35,1.04,7.77,1.24v3.11c-2.49-.21-5.62-.34-9.4-.39-3.78-.05-7.64-.08-11.58-.08-4.35,0-8.42,.03-12.2,.08-3.78,.05-6.86,.18-9.25,.39v-3.11c3.52-.21,6.16-.62,7.93-1.24,1.76-.62,2.93-1.87,3.5-3.73,.57-1.86,.85-4.66,.85-8.39v-77.08c0-3.83-.29-6.65-.85-8.47-.57-1.81-1.76-3.06-3.57-3.73-1.81-.67-4.43-1.06-7.85-1.17v-3.11Zm26.26,55.17c5.28,.21,9.53,.44,12.74,.7,3.21,.26,5.91,.49,8.08,.7s4.2,.47,6.06,.78c7.77,1.04,13.44,3.11,17.02,6.22,3.57,3.11,6.03,7.88,7.38,14.3l3.89,15.85c.93,4.46,1.94,7.61,3.03,9.48,1.09,1.86,2.72,2.8,4.9,2.8,1.66-.1,3.03-.6,4.12-1.48,1.09-.88,2.25-2.1,3.5-3.65l2.18,1.71c-2.38,3.21-4.87,5.62-7.46,7.23-2.59,1.6-6.06,2.41-10.41,2.41s-8.26-1.17-11.42-3.5c-3.16-2.33-5.41-6.76-6.76-13.29l-3.11-15.54c-.93-4.45-1.97-8.32-3.11-11.58-1.14-3.26-2.72-5.83-4.74-7.69s-4.95-2.8-8.78-2.8h-16.78l-.31-2.64Z"/><path class="b" d="M557.28,298.48v3.11c-3.42,.1-6.01,.49-7.77,1.17-1.76,.68-2.95,1.92-3.57,3.73-.62,1.81-.93,4.64-.93,8.47v77.08c0,3.73,.31,6.53,.93,8.39,.62,1.87,1.81,3.11,3.57,3.73,1.76,.62,4.35,1.04,7.77,1.24v3.11c-2.49-.21-5.62-.34-9.4-.39-3.78-.05-7.64-.08-11.58-.08-4.35,0-8.42,.03-12.2,.08-3.78,.05-6.86,.18-9.25,.39v-3.11c3.52-.21,6.16-.62,7.93-1.24,1.76-.62,2.93-1.87,3.5-3.73,.57-1.86,.85-4.66,.85-8.39v-77.08c0-3.83-.29-6.65-.85-8.47-.57-1.81-1.76-3.06-3.57-3.73-1.81-.67-4.43-1.06-7.85-1.17v-3.11c2.38,.1,5.46,.21,9.25,.31,3.78,.11,7.85,.16,12.2,.16,3.94,0,7.79-.05,11.58-.16,3.78-.1,6.92-.2,9.4-.31Z"/><path class="b" d="M631.41,297.86l37.92,97.59c1.45,3.83,3.13,6.42,5.05,7.77,1.92,1.35,3.7,2.07,5.36,2.18v3.11c-2.49-.21-5.41-.34-8.78-.39-3.37-.05-6.76-.08-10.18-.08-4.35,0-8.39,.03-12.12,.08-3.73,.05-6.74,.18-9.01,.39v-3.11c5.28-.21,8.63-1.11,10.02-2.72,1.4-1.6,1.06-5.05-1.01-10.34l-27.97-75.53,2.49-2.8-25.8,67.45c-2.49,6.22-3.68,11.03-3.57,14.45,.1,3.42,1.32,5.83,3.65,7.23,2.33,1.4,5.67,2.15,10.02,2.25v3.11c-3.11-.21-6.24-.34-9.4-.39-3.16-.05-6.14-.08-8.94-.08-2.49,0-4.69,.03-6.6,.08-1.92,.05-3.65,.18-5.21,.39v-3.11c2.18-.52,4.35-1.81,6.53-3.89,2.18-2.07,4.25-5.59,6.22-10.57l36.05-93.09h5.28Zm16.32,65.89v3.11h-46.31l1.55-3.11h44.76Z"/></svg>