<svg id="Livello_1" data-name="Livello 1" xmlns="http://www.w3.org/2000/svg" viewBox="0 0 24.34 21.44"><defs><style>.cls-1{stroke:#191411;stroke-width:1.1px;}</style></defs><path id="heart" class="cls-1" d="M27.28,11.89a6.41,6.41,0,0,0-11.63-3.7,6.4,6.4,0,0,0-10.9,6.64c0,.07,2.5,5.07,10,10.62h0a1.27,1.27,0,0,0,1.72.08h0c.14-.12,2.6-2,5.08-4.39s5.65-5.26,5.7-9.25Zm-1.08,0s0,.06,0,.1c.15,5.23-9.76,12.23-9.76,12.23h0c-.21.15-.49.4-.77.36a1.73,1.73,0,0,1-.82-.44h0C9.27,20,6.55,16.26,5.6,14.27h0a6.54,6.54,0,0,1-.26-.62l0-.05v0l0-.05a.24.24,0,0,1,0-.08A5.18,5.18,0,0,1,5,11.91,5.33,5.33,0,0,1,15,9.33h0a.61.61,0,0,0,1.17,0h0a5.33,5.33,0,0,1,10,2.58Z" transform="translate(-3.49 -4.94)"/></svg>