<?xml version="1.0" encoding="UTF-8"?><svg id="a" xmlns="http://www.w3.org/2000/svg" viewBox="0 0 5942.13 795.68"><defs><style>.b{fill:#1d1d1b;}</style></defs><path class="b" d="M66.6,114.97v4.54c-5.15,.15-9.04,.72-11.69,1.7-2.65,.99-4.43,2.8-5.33,5.45-.91,2.65-1.36,6.77-1.36,12.37v113.5c0,5.15,.42,9.01,1.25,11.58,.83,2.58,2.5,4.28,4.99,5.11,2.5,.83,6.09,1.25,10.78,1.25h14.76c8.78,0,15.74-1.62,20.88-4.88,5.14-3.25,9.08-8.21,11.8-14.87,2.72-6.66,4.69-15.13,5.9-25.43h5.22c-.45,4.85-.68,11.2-.68,19.07,0,3.03,.11,7.45,.34,13.28,.23,5.83,.64,11.84,1.25,18.05-7.72-.3-16.42-.49-26.11-.57-9.69-.08-18.31-.11-25.88-.11h-18.73c-7.8,0-16.12,.04-24.97,.11-8.85,.08-17.14,.27-24.86,.57v-4.54c5.14-.3,9-.91,11.58-1.82,2.57-.91,4.27-2.72,5.11-5.45,.83-2.72,1.25-6.81,1.25-12.26v-112.6c0-5.6-.42-9.72-1.25-12.37-.83-2.65-2.58-4.46-5.22-5.45-2.65-.98-6.47-1.55-11.46-1.7v-4.54c3.48,.15,7.98,.31,13.51,.45,5.52,.15,11.46,.23,17.82,.23,5.75,0,11.46-.07,17.14-.23,5.68-.15,10.33-.3,13.96-.45Z"/><path class="b" d="M241.09,168.54c-.4,3.84-.68,7.54-.83,11.12-.15,3.58-.23,6.33-.23,8.25s.05,3.73,.15,5.45c.1,1.72,.2,3.13,.3,4.24h-3.48c-.71-6.46-1.79-11.55-3.25-15.29-1.46-3.73-3.63-6.38-6.51-7.95-2.88-1.56-6.89-2.35-12.03-2.35h-10.44c-3.23,0-5.68,.28-7.34,.83-1.66,.56-2.8,1.66-3.4,3.33s-.91,4.26-.91,7.79v76.28c0,3.43,.3,6,.91,7.72,.61,1.72,1.74,2.85,3.4,3.41,1.67,.56,4.11,.83,7.34,.83h9.84c5.75,0,10.31-.91,13.7-2.72,3.38-1.82,5.95-4.79,7.72-8.93,1.76-4.14,3.1-9.79,4.01-16.95h3.48c-.3,2.93-.45,6.76-.45,11.5,0,2.02,.08,4.94,.23,8.78,.15,3.84,.43,7.77,.83,11.8-5.15-.2-10.95-.33-17.4-.38-6.46-.05-12.21-.08-17.25-.08h-12.49c-5.2,0-10.75,.03-16.65,.08-5.9,.05-11.43,.18-16.57,.38v-3.03c3.43-.2,6-.6,7.72-1.21,1.71-.6,2.85-1.82,3.41-3.63,.55-1.82,.83-4.54,.83-8.17v-75.06c0-3.73-.28-6.48-.83-8.25-.56-1.76-1.72-2.97-3.48-3.63-1.77-.66-4.31-1.03-7.64-1.14v-3.03c5.14,.1,10.67,.2,16.57,.3,5.9,.1,11.45,.15,16.65,.15h12.49c4.64,0,9.91-.02,15.81-.08,5.9-.05,11.17-.17,15.81-.38Zm-25.12,51.76v3.03h-27.39v-3.03h27.39Zm4.39-19.98c-.4,5.75-.58,10.14-.53,13.17,.05,3.03,.08,5.8,.08,8.32s.05,5.3,.15,8.32c.1,3.03,.35,7.42,.76,13.17h-3.48c-.51-3.33-1.16-6.53-1.97-9.61-.81-3.08-2.25-5.57-4.31-7.49-2.07-1.92-5.27-2.88-9.61-2.88v-3.03c4.34,0,7.49-1.14,9.46-3.41s3.33-4.97,4.09-8.1c.76-3.13,1.39-5.95,1.89-8.47h3.48Z"/><path class="b" d="M327.81,166.42c6.66,0,12.06,.98,16.19,2.95,4.14,1.97,7.92,4.26,11.35,6.89,1.31,1.01,2.32,1.51,3.03,1.51,1.92,0,3.18-3.08,3.78-9.23h3.48c-.2,3.84-.35,8.45-.45,13.85-.1,5.4-.15,12.59-.15,21.57h-3.48c-.71-4.84-1.64-9.33-2.8-13.47-1.16-4.14-3.15-7.67-5.98-10.59-2.72-3.23-6.28-5.75-10.67-7.57-4.39-1.82-8.85-2.72-13.39-2.72-5.25,0-9.89,1.29-13.92,3.86-4.04,2.57-7.44,6.23-10.22,10.97-2.78,4.74-4.89,10.32-6.36,16.72-1.46,6.41-2.19,13.45-2.19,21.11,0,18.16,2.8,31.45,8.4,39.88,5.6,8.43,14.05,12.64,25.35,12.64,3.23,0,6.03-.45,8.4-1.36,2.37-.91,4.26-1.82,5.68-2.72,1.71-1.21,2.82-2.4,3.33-3.56,.5-1.16,.76-2.7,.76-4.62v-14.68c0-4.34-.38-7.54-1.13-9.61-.76-2.07-2.25-3.48-4.46-4.24-2.22-.76-5.45-1.18-9.69-1.29v-3.03c1.92,.1,4.18,.18,6.81,.23,2.62,.05,5.37,.1,8.25,.15,2.88,.05,5.47,.08,7.79,.08,3.63,0,6.94-.05,9.91-.15,2.97-.1,5.42-.2,7.34-.3v3.03c-3.13,.2-5.15,1.01-6.05,2.42-.91,1.41-1.36,4.94-1.36,10.59v29.96h-3.03c-.1-1.71-.48-3.58-1.14-5.6-.66-2.02-1.64-3.03-2.95-3.03-.71,0-1.44,.15-2.19,.45-.76,.3-2.04,1.06-3.86,2.27-3.53,2.42-7.21,4.37-11.05,5.83-3.84,1.46-8.17,2.19-13.01,2.19-16.34,0-28.96-4.77-37.83-14.3-8.88-9.53-13.32-22.78-13.32-39.73,0-11.7,2.19-21.84,6.58-30.42,4.39-8.57,10.39-15.21,18.01-19.9,7.62-4.69,16.37-7.04,26.26-7.04Z"/><path class="b" d="M454.02,166.42c6.66,0,12.06,.98,16.19,2.95,4.14,1.97,7.92,4.26,11.35,6.89,1.31,1.01,2.32,1.51,3.03,1.51,1.92,0,3.18-3.08,3.78-9.23h3.48c-.2,3.84-.35,8.45-.45,13.85-.1,5.4-.15,12.59-.15,21.57h-3.48c-.71-4.84-1.64-9.33-2.8-13.47-1.16-4.14-3.15-7.67-5.98-10.59-2.72-3.23-6.28-5.75-10.67-7.57-4.39-1.82-8.85-2.72-13.39-2.72-5.25,0-9.89,1.29-13.92,3.86-4.04,2.57-7.44,6.23-10.22,10.97-2.78,4.74-4.89,10.32-6.36,16.72-1.46,6.41-2.19,13.45-2.19,21.11,0,18.16,2.8,31.45,8.4,39.88,5.6,8.43,14.05,12.64,25.35,12.64,3.23,0,6.03-.45,8.4-1.36,2.37-.91,4.26-1.82,5.68-2.72,1.71-1.21,2.82-2.4,3.33-3.56,.5-1.16,.76-2.7,.76-4.62v-14.68c0-4.34-.38-7.54-1.13-9.61-.76-2.07-2.25-3.48-4.46-4.24-2.22-.76-5.45-1.18-9.69-1.29v-3.03c1.92,.1,4.18,.18,6.81,.23,2.62,.05,5.37,.1,8.25,.15,2.88,.05,5.47,.08,7.79,.08,3.63,0,6.94-.05,9.91-.15,2.97-.1,5.42-.2,7.34-.3v3.03c-3.13,.2-5.15,1.01-6.05,2.42-.91,1.41-1.36,4.94-1.36,10.59v29.96h-3.03c-.1-1.71-.48-3.58-1.14-5.6-.66-2.02-1.64-3.03-2.95-3.03-.71,0-1.44,.15-2.19,.45-.76,.3-2.04,1.06-3.86,2.27-3.53,2.42-7.21,4.37-11.05,5.83-3.84,1.46-8.17,2.19-13.01,2.19-16.34,0-28.96-4.77-37.83-14.3-8.88-9.53-13.32-22.78-13.32-39.73,0-11.7,2.19-21.84,6.58-30.42,4.39-8.57,10.39-15.21,18.01-19.9,7.62-4.69,16.37-7.04,26.26-7.04Z"/><path class="b" d="M569.04,168.54v3.03c-3.33,.1-5.85,.48-7.57,1.14-1.72,.66-2.88,1.87-3.48,3.63-.61,1.77-.91,4.52-.91,8.25v75.06c0,3.63,.3,6.36,.91,8.17s1.76,3.03,3.48,3.63c1.71,.61,4.24,1.01,7.57,1.21v3.03c-2.42-.2-5.47-.33-9.16-.38-3.68-.05-7.44-.08-11.27-.08-4.24,0-8.2,.03-11.88,.08-3.68,.05-6.68,.18-9,.38v-3.03c3.43-.2,6-.6,7.72-1.21,1.71-.6,2.85-1.82,3.41-3.63,.55-1.82,.83-4.54,.83-8.17v-75.06c0-3.73-.28-6.48-.83-8.25-.56-1.76-1.72-2.97-3.48-3.63-1.77-.66-4.31-1.03-7.64-1.14v-3.03c2.32,.1,5.32,.2,9,.3,3.68,.1,7.64,.15,11.88,.15,3.83,0,7.59-.05,11.27-.15,3.68-.1,6.73-.2,9.16-.3Z"/><path class="b" d="M688.29,166.72c5.35,0,9.43,.61,12.26,1.82,2.82,1.21,5.3,2.52,7.42,3.93,1.21,.71,2.19,1.24,2.95,1.59,.76,.35,1.49,.53,2.19,.53,1.61,0,2.72-2.22,3.33-6.66h3.48c-.1,1.82-.23,3.96-.38,6.43-.15,2.47-.25,5.73-.3,9.76-.05,4.04-.08,9.33-.08,15.89h-3.48c-.3-4.94-1.39-9.74-3.25-14.38-1.87-4.64-4.59-8.42-8.17-11.35-3.58-2.93-8.15-4.39-13.7-4.39-5.15,0-9.41,1.54-12.79,4.61-3.38,3.08-5.07,7.14-5.07,12.18,0,4.44,1.11,8.15,3.33,11.12,2.22,2.98,5.27,5.75,9.16,8.32,3.88,2.57,8.3,5.43,13.24,8.55,5.04,3.23,9.58,6.43,13.62,9.61,4.03,3.18,7.21,6.69,9.53,10.52,2.32,3.84,3.48,8.47,3.48,13.92,0,6.56-1.54,11.98-4.62,16.27-3.08,4.29-7.19,7.49-12.33,9.61-5.15,2.12-10.8,3.18-16.95,3.18-5.65,0-10.14-.6-13.47-1.82-3.33-1.21-6.15-2.47-8.47-3.78-2.22-1.41-3.93-2.12-5.15-2.12-1.62,0-2.72,2.22-3.33,6.66h-3.48c.2-2.22,.33-4.82,.38-7.79,.05-2.98,.1-6.89,.15-11.73,.05-4.84,.08-10.95,.08-18.31h3.48c.4,6.26,1.54,12.11,3.41,17.56,1.87,5.45,4.74,9.81,8.63,13.09,3.88,3.28,9.05,4.92,15.51,4.92,5.04,0,9.53-1.54,13.47-4.62,3.93-3.08,5.9-7.89,5.9-14.45,0-6.15-2.14-11.28-6.43-15.36-4.29-4.09-9.91-8.25-16.87-12.49-4.74-3.03-9.18-6.05-13.32-9.08-4.14-3.03-7.44-6.56-9.91-10.59-2.47-4.03-3.71-8.83-3.71-14.38,0-6.15,1.44-11.2,4.31-15.13,2.88-3.93,6.61-6.86,11.2-8.78,4.59-1.92,9.51-2.88,14.76-2.88Z"/><path class="b" d="M833.57,168.54c-.4,3.84-.68,7.54-.83,11.12-.15,3.58-.23,6.33-.23,8.25s.05,3.73,.15,5.45c.1,1.72,.2,3.13,.3,4.24h-3.48c-.71-6.46-1.79-11.55-3.25-15.29-1.46-3.73-3.63-6.38-6.51-7.95-2.87-1.56-6.89-2.35-12.03-2.35h-10.44c-3.23,0-5.68,.28-7.34,.83-1.66,.56-2.8,1.66-3.4,3.33s-.91,4.26-.91,7.79v76.28c0,3.43,.3,6,.91,7.72,.61,1.72,1.74,2.85,3.4,3.41,1.67,.56,4.11,.83,7.34,.83h9.84c5.75,0,10.31-.91,13.7-2.72,3.38-1.82,5.95-4.79,7.72-8.93,1.76-4.14,3.1-9.79,4.01-16.95h3.48c-.3,2.93-.45,6.76-.45,11.5,0,2.02,.08,4.94,.23,8.78,.15,3.84,.43,7.77,.83,11.8-5.15-.2-10.95-.33-17.4-.38-6.46-.05-12.21-.08-17.25-.08h-12.49c-5.2,0-10.74,.03-16.65,.08-5.9,.05-11.43,.18-16.57,.38v-3.03c3.43-.2,6-.6,7.72-1.21,1.71-.6,2.85-1.82,3.41-3.63,.55-1.82,.83-4.54,.83-8.17v-75.06c0-3.73-.28-6.48-.83-8.25-.56-1.76-1.72-2.97-3.48-3.63-1.77-.66-4.31-1.03-7.64-1.14v-3.03c5.14,.1,10.67,.2,16.57,.3,5.9,.1,11.45,.15,16.65,.15h12.49c4.64,0,9.91-.02,15.81-.08,5.9-.05,11.17-.17,15.81-.38Zm-25.12,51.76v3.03h-27.39v-3.03h27.39Zm4.39-19.98c-.4,5.75-.58,10.14-.53,13.17,.05,3.03,.08,5.8,.08,8.32s.05,5.3,.15,8.32c.1,3.03,.35,7.42,.76,13.17h-3.48c-.51-3.33-1.16-6.53-1.97-9.61-.81-3.08-2.25-5.57-4.31-7.49-2.07-1.92-5.27-2.88-9.61-2.88v-3.03c4.34,0,7.49-1.14,9.46-3.41,1.97-2.27,3.33-4.97,4.09-8.1,.76-3.13,1.39-5.95,1.89-8.47h3.48Z"/><path class="b" d="M964.48,168.54v3.03c-3.43,.2-6,.81-7.72,1.82-1.72,1.01-2.85,2.65-3.41,4.92-.56,2.27-.83,5.47-.83,9.61v88.38h-4.99l-64.17-93.22v72.64c0,4.24,.3,7.54,.91,9.91,.61,2.37,1.92,4.06,3.93,5.07,2.02,1.01,5.09,1.66,9.23,1.97v3.03c-1.92-.2-4.37-.33-7.34-.38-2.98-.05-5.78-.08-8.4-.08s-5.05,.03-7.57,.08c-2.52,.05-4.59,.18-6.2,.38v-3.03c3.33-.3,5.85-.93,7.57-1.89,1.71-.96,2.88-2.6,3.48-4.92,.61-2.32,.91-5.5,.91-9.53v-71.73c0-3.73-.3-6.48-.91-8.25-.6-1.76-1.77-2.97-3.48-3.63-1.72-.66-4.24-1.03-7.57-1.14v-3.03c1.61,.1,3.68,.2,6.2,.3,2.52,.1,5.04,.15,7.57,.15,2.22,0,4.39-.05,6.51-.15,2.12-.1,3.98-.2,5.6-.3l55.24,79v-59.02c0-4.34-.33-7.67-.98-9.99-.66-2.32-1.99-4.01-4.01-5.07-2.02-1.06-5.05-1.69-9.08-1.89v-3.03c1.82,.1,4.24,.2,7.26,.3,3.03,.1,5.85,.15,8.48,.15s5.04-.05,7.57-.15c2.52-.1,4.59-.2,6.2-.3Z"/><path class="b" d="M1071.17,168.54v3.03l-57.51,100.64h25.12c4.24,0,7.95-.53,11.12-1.59,3.18-1.06,5.85-2.72,8.02-4.99,2.17-2.27,3.91-5.32,5.22-9.16,1.31-3.83,2.22-8.53,2.72-14.07h3.48c-.3,3.23-.45,7.47-.45,12.71,0,2.02,.08,4.94,.23,8.78,.15,3.84,.43,7.77,.83,11.8-5.55-.2-11.83-.33-18.84-.38-7.01-.05-13.29-.08-18.84-.08-6.16,0-12.61,.03-19.37,.08-6.76,.05-13.12,.18-19.07,.38v-3.03l57.81-100.64h-25.12c-5.85,0-10.59,.91-14.23,2.72-3.63,1.82-6.41,4.84-8.32,9.08-1.92,4.24-3.28,10.04-4.09,17.4h-3.48c.2-1.51,.33-3.33,.38-5.45,.05-2.12,.08-4.34,.08-6.66,0-2.02-.08-4.94-.23-8.78-.15-3.83-.43-7.77-.83-11.8,5.45,.2,11.55,.33,18.31,.38,6.76,.05,12.81,.08,18.16,.08,6.15,0,12.71-.02,19.67-.08,6.96-.05,13.37-.17,19.22-.38Z"/><path class="b" d="M1147.29,167.93l36.93,95.04c1.41,3.73,3.05,6.26,4.92,7.57,1.87,1.31,3.61,2.02,5.22,2.12v3.03c-2.42-.2-5.27-.33-8.55-.38-3.28-.05-6.58-.08-9.91-.08-4.24,0-8.17,.03-11.8,.08-3.63,.05-6.56,.18-8.78,.38v-3.03c5.15-.2,8.4-1.08,9.76-2.65,1.36-1.56,1.03-4.92-.98-10.06l-27.24-73.55,2.42-2.72-25.12,65.68c-2.42,6.05-3.58,10.74-3.48,14.07,.1,3.33,1.29,5.68,3.56,7.04s5.52,2.1,9.76,2.19v3.03c-3.03-.2-6.08-.33-9.16-.38-3.08-.05-5.98-.08-8.7-.08-2.42,0-4.57,.03-6.43,.08-1.87,.05-3.56,.18-5.07,.38v-3.03c2.12-.5,4.24-1.76,6.36-3.78,2.12-2.02,4.14-5.45,6.05-10.29l35.11-90.65h5.14Zm15.89,64.17v3.03h-45.1l1.51-3.03h43.59Z"/><path class="b" d="M1337.83,114.97v4.54c-5.15,.15-9.04,.72-11.69,1.7-2.65,.99-4.43,2.8-5.34,5.45-.91,2.65-1.36,6.77-1.36,12.37v113.5c0,5.15,.42,9.01,1.25,11.58,.83,2.58,2.5,4.28,4.99,5.11,2.5,.83,6.09,1.25,10.78,1.25h14.75c8.78,0,15.74-1.62,20.89-4.88,5.14-3.25,9.08-8.21,11.8-14.87,2.72-6.66,4.69-15.13,5.9-25.43h5.22c-.45,4.85-.68,11.2-.68,19.07,0,3.03,.11,7.45,.34,13.28,.23,5.83,.64,11.84,1.25,18.05-7.72-.3-16.42-.49-26.1-.57-9.69-.08-18.31-.11-25.88-.11h-18.73c-7.8,0-16.12,.04-24.97,.11-8.85,.08-17.14,.27-24.86,.57v-4.54c5.14-.3,9-.91,11.58-1.82,2.57-.91,4.27-2.72,5.11-5.45,.83-2.72,1.25-6.81,1.25-12.26v-112.6c0-5.6-.42-9.72-1.25-12.37-.83-2.65-2.58-4.46-5.22-5.45-2.65-.98-6.47-1.55-11.46-1.7v-4.54c3.48,.15,7.98,.31,13.51,.45,5.52,.15,11.46,.23,17.82,.23,5.75,0,11.46-.07,17.14-.23,5.68-.15,10.33-.3,13.96-.45Z"/><path class="b" d="M1476.3,168.54v3.03c-3.33,.1-5.85,.48-7.57,1.14-1.72,.66-2.88,1.87-3.48,3.63-.6,1.77-.91,4.52-.91,8.25v75.06c0,3.63,.3,6.36,.91,8.17,.61,1.82,1.76,3.03,3.48,3.63,1.71,.61,4.24,1.01,7.57,1.21v3.03c-2.42-.2-5.47-.33-9.16-.38-3.68-.05-7.44-.08-11.27-.08-4.24,0-8.2,.03-11.88,.08-3.68,.05-6.69,.18-9.01,.38v-3.03c3.43-.2,6-.6,7.72-1.21,1.71-.6,2.85-1.82,3.41-3.63,.55-1.82,.83-4.54,.83-8.17v-75.06c0-3.73-.28-6.48-.83-8.25-.56-1.76-1.72-2.97-3.48-3.63-1.77-.66-4.31-1.03-7.64-1.14v-3.03c2.32,.1,5.32,.2,9.01,.3,3.68,.1,7.64,.15,11.88,.15,3.83,0,7.59-.05,11.27-.15,3.68-.1,6.73-.2,9.16-.3Z"/><path class="b" d="M1629.15,168.54v3.03c-3.43,.1-6,.48-7.72,1.14-1.72,.66-2.85,1.87-3.41,3.63-.56,1.77-.83,4.52-.83,8.25v75.06c0,3.63,.28,6.36,.83,8.17,.55,1.82,1.69,3.03,3.41,3.63,1.71,.61,4.29,1.01,7.72,1.21v3.03c-2.52-.2-5.65-.33-9.38-.38-3.73-.05-7.52-.08-11.35-.08-4.24,0-8.22,.03-11.96,.08-3.73,.05-6.71,.18-8.93,.38v-3.03c3.43-.2,6.03-.6,7.79-1.21,1.76-.6,2.95-1.82,3.56-3.63,.6-1.82,.91-4.54,.91-8.17v-82.78l.76,.3-37.23,99.13h-2.42l-39.05-98.07v77.49c0,4.24,.3,7.54,.91,9.91,.61,2.37,1.92,4.06,3.93,5.07,2.02,1.01,5.09,1.66,9.23,1.97v3.03c-1.92-.2-4.37-.33-7.34-.38-2.98-.05-5.78-.08-8.4-.08s-5.05,.03-7.57,.08c-2.52,.05-4.59,.18-6.2,.38v-3.03c3.33-.3,5.85-.93,7.57-1.89,1.71-.96,2.88-2.6,3.48-4.92,.61-2.32,.91-5.5,.91-9.53v-71.73c0-3.73-.3-6.48-.91-8.25-.6-1.76-1.77-2.97-3.48-3.63-1.72-.66-4.24-1.03-7.57-1.14v-3.03c1.61,.1,3.68,.2,6.2,.3,2.52,.1,5.04,.15,7.57,.15,2.93,0,5.88-.05,8.85-.15,2.97-.1,5.52-.2,7.64-.3l33.45,85.96-2.88,1.97,32.84-87.47h8.32c3.83,0,7.62-.05,11.35-.15,3.73-.1,6.86-.2,9.38-.3Z"/><path class="b" d="M1700.43,168.54v3.03c-3.33,.1-5.85,.48-7.57,1.14-1.72,.66-2.88,1.87-3.48,3.63-.6,1.77-.91,4.52-.91,8.25v75.06c0,3.63,.3,6.36,.91,8.17,.61,1.82,1.76,3.03,3.48,3.63,1.71,.61,4.24,1.01,7.57,1.21v3.03c-2.42-.2-5.47-.33-9.16-.38-3.68-.05-7.44-.08-11.27-.08-4.24,0-8.2,.03-11.88,.08-3.68,.05-6.69,.18-9.01,.38v-3.03c3.43-.2,6-.6,7.72-1.21,1.71-.6,2.85-1.82,3.41-3.63,.55-1.82,.83-4.54,.83-8.17v-75.06c0-3.73-.28-6.48-.83-8.25-.56-1.76-1.72-2.97-3.48-3.63-1.77-.66-4.31-1.03-7.64-1.14v-3.03c2.32,.1,5.32,.2,9.01,.3,3.68,.1,7.64,.15,11.88,.15,3.83,0,7.59-.05,11.27-.15,3.68-.1,6.73-.2,9.16-.3Z"/><path class="b" d="M1816.66,168.54c-.4,4.24-.68,8.35-.83,12.33-.15,3.99-.23,7.04-.23,9.16,0,2.32,.05,4.54,.15,6.66,.1,2.12,.2,3.93,.3,5.45h-3.48c-1.01-7.57-2.34-13.52-4.01-17.86-1.67-4.34-4.06-7.46-7.19-9.38-3.13-1.92-7.62-2.88-13.47-2.88h-6.51v86.26c0,4.04,.38,7.06,1.13,9.08,.76,2.02,2.27,3.36,4.54,4.01,2.27,.66,5.57,1.09,9.91,1.29v3.03c-2.83-.2-6.46-.33-10.9-.38-4.44-.05-8.98-.08-13.62-.08s-9.41,.03-13.7,.08c-4.29,.05-7.74,.18-10.37,.38v-3.03c4.34-.2,7.62-.63,9.84-1.29,2.22-.66,3.73-1.99,4.54-4.01,.81-2.02,1.21-5.04,1.21-9.08v-86.26h-6.66c-5.65,0-10.09,.96-13.32,2.88-3.23,1.92-5.65,5.05-7.27,9.38-1.61,4.34-2.93,10.29-3.93,17.86h-3.48c.2-1.51,.33-3.33,.38-5.45,.05-2.12,.08-4.34,.08-6.66,0-2.12-.08-5.17-.23-9.16-.15-3.98-.43-8.1-.83-12.33,4.34,.1,9.08,.2,14.22,.3,5.15,.1,10.34,.15,15.59,.15h28.3c5.14,0,10.34-.05,15.59-.15,5.25-.1,9.99-.2,14.23-.3Z"/><path class="b" d="M1886.27,168.54v3.03c-3.33,.1-5.85,.48-7.57,1.14-1.72,.66-2.88,1.87-3.48,3.63-.6,1.77-.91,4.52-.91,8.25v75.06c0,3.63,.3,6.36,.91,8.17,.61,1.82,1.76,3.03,3.48,3.63,1.71,.61,4.24,1.01,7.57,1.21v3.03c-2.42-.2-5.47-.33-9.16-.38-3.68-.05-7.44-.08-11.27-.08-4.24,0-8.2,.03-11.88,.08-3.68,.05-6.69,.18-9.01,.38v-3.03c3.43-.2,6-.6,7.72-1.21,1.71-.6,2.85-1.82,3.41-3.63,.55-1.82,.83-4.54,.83-8.17v-75.06c0-3.73-.28-6.48-.83-8.25-.56-1.76-1.72-2.97-3.48-3.63-1.77-.66-4.31-1.03-7.64-1.14v-3.03c2.32,.1,5.32,.2,9.01,.3,3.68,.1,7.64,.15,11.88,.15,3.83,0,7.59-.05,11.27-.15,3.68-.1,6.73-.2,9.16-.3Z"/><path class="b" d="M1929.71,257.07c2.32,0,4.24,.45,5.75,1.36,1.51,.91,2.77,2.12,3.78,3.63,1.11,1.61,1.84,3.43,2.19,5.45,.35,2.02,.53,3.84,.53,5.45,0,4.94-1.26,9.48-3.78,13.62-2.52,4.14-6.46,7.47-11.8,9.99l-1.36-2.72c3.03-1.31,5.65-3.33,7.87-6.05,2.22-2.72,3.43-5.5,3.63-8.32,.1-1.51,0-2.93-.3-4.24-1.82,1.71-4.04,2.57-6.66,2.57-2.93,0-5.4-.91-7.42-2.72-2.02-1.82-3.03-4.34-3.03-7.57s1.03-5.65,3.1-7.57c2.07-1.92,4.56-2.87,7.49-2.87Z"/><path class="b" d="M120.18,348.28c-.61,5.75-1.02,11.31-1.25,16.69-.23,5.37-.34,9.5-.34,12.37s.07,5.6,.23,8.17c.15,2.58,.3,4.69,.45,6.36h-5.22c-1.06-9.68-2.69-17.33-4.88-22.93-2.2-5.6-5.45-9.57-9.76-11.92-4.31-2.34-10.33-3.52-18.05-3.52h-15.66c-4.85,0-8.51,.42-11.01,1.25-2.5,.83-4.2,2.5-5.11,4.99-.91,2.5-1.36,6.4-1.36,11.69v114.41c0,5.15,.45,9.01,1.36,11.58,.91,2.58,2.61,4.28,5.11,5.11,2.5,.83,6.16,1.25,11.01,1.25h14.76c8.63,0,15.47-1.36,20.54-4.09,5.07-2.72,8.93-7.19,11.58-13.39,2.65-6.2,4.65-14.68,6.02-25.43h5.22c-.45,4.39-.68,10.14-.68,17.25,0,3.03,.11,7.42,.34,13.17,.23,5.75,.64,11.65,1.25,17.71-7.72-.3-16.42-.49-26.11-.57-9.69-.08-18.31-.11-25.88-.11h-18.73c-7.8,0-16.12,.04-24.97,.11-8.85,.08-17.14,.27-24.86,.57v-4.54c5.14-.3,9-.91,11.58-1.82,2.57-.91,4.27-2.72,5.11-5.45,.83-2.72,1.25-6.81,1.25-12.26v-112.6c0-5.6-.42-9.72-1.25-12.37-.83-2.65-2.58-4.46-5.22-5.45-2.65-.98-6.47-1.55-11.46-1.7v-4.54c7.72,.15,16,.31,24.86,.45,8.85,.15,17.17,.23,24.97,.23h18.73c6.96,0,14.87-.04,23.72-.11,8.85-.07,16.76-.26,23.72-.57Zm-37.68,77.64v4.54H41.4v-4.54h41.09Zm6.58-29.97c-.61,8.63-.87,15.21-.79,19.75,.07,4.54,.11,8.7,.11,12.49s.07,7.95,.23,12.48c.15,4.54,.53,11.12,1.13,19.75h-5.22c-.76-4.99-1.74-9.8-2.95-14.41-1.21-4.61-3.37-8.36-6.47-11.24-3.1-2.87-7.91-4.31-14.42-4.31v-4.54c6.51,0,11.24-1.7,14.19-5.11,2.95-3.4,4.99-7.45,6.13-12.14,1.13-4.69,2.08-8.93,2.84-12.71h5.22Z"/><path class="b" d="M265.23,401.85v3.03c-3.43,.2-6,.81-7.72,1.82-1.72,1.01-2.85,2.65-3.41,4.92-.56,2.27-.83,5.47-.83,9.61v88.38h-4.99l-64.17-93.22v72.64c0,4.24,.3,7.54,.91,9.91,.61,2.37,1.92,4.06,3.93,5.07,2.02,1.01,5.09,1.66,9.23,1.97v3.03c-1.92-.2-4.37-.33-7.34-.38-2.98-.05-5.78-.08-8.4-.08s-5.05,.03-7.57,.08c-2.52,.05-4.59,.18-6.21,.38v-3.03c3.33-.3,5.85-.93,7.57-1.89,1.71-.96,2.88-2.6,3.48-4.92,.61-2.32,.91-5.5,.91-9.53v-71.73c0-3.73-.3-6.48-.91-8.25-.61-1.76-1.77-2.97-3.48-3.63-1.72-.66-4.24-1.03-7.57-1.14v-3.03c1.61,.1,3.68,.2,6.21,.3,2.52,.1,5.04,.15,7.57,.15,2.22,0,4.39-.05,6.51-.15,2.12-.1,3.98-.2,5.6-.3l55.24,79v-59.02c0-4.34-.33-7.67-.98-9.99-.66-2.32-1.99-4.01-4.01-5.07-2.02-1.06-5.05-1.69-9.08-1.89v-3.03c1.82,.1,4.24,.2,7.26,.3,3.03,.1,5.85,.15,8.47,.15s5.04-.05,7.57-.15c2.52-.1,4.59-.2,6.2-.3Z"/><path class="b" d="M380.55,401.85c-.4,4.24-.68,8.35-.83,12.33-.15,3.99-.23,7.04-.23,9.16,0,2.32,.05,4.54,.15,6.66,.1,2.12,.2,3.93,.3,5.45h-3.48c-1.01-7.57-2.35-13.52-4.01-17.86-1.67-4.34-4.06-7.46-7.19-9.38-3.13-1.92-7.62-2.88-13.47-2.88h-6.51v86.26c0,4.04,.38,7.06,1.13,9.08,.76,2.02,2.27,3.36,4.54,4.01,2.27,.66,5.57,1.09,9.91,1.29v3.03c-2.83-.2-6.46-.33-10.9-.38-4.44-.05-8.98-.08-13.62-.08s-9.41,.03-13.7,.08c-4.29,.05-7.74,.18-10.37,.38v-3.03c4.34-.2,7.62-.63,9.84-1.29,2.22-.66,3.73-1.99,4.54-4.01,.81-2.02,1.21-5.04,1.21-9.08v-86.26h-6.66c-5.65,0-10.09,.96-13.32,2.88-3.23,1.92-5.65,5.05-7.26,9.38-1.62,4.34-2.93,10.29-3.93,17.86h-3.48c.2-1.51,.33-3.33,.38-5.45,.05-2.12,.08-4.34,.08-6.66,0-2.12-.08-5.17-.23-9.16-.15-3.98-.43-8.1-.83-12.33,4.34,.1,9.08,.2,14.23,.3,5.15,.1,10.34,.15,15.59,.15h28.3c5.15,0,10.34-.05,15.59-.15,5.25-.1,9.99-.2,14.23-.3Z"/><path class="b" d="M408.85,401.85c2.32,.1,5.32,.2,9,.3,3.68,.1,7.34,.15,10.97,.15,4.84,0,9.46-.05,13.85-.15,4.39-.1,7.49-.15,9.31-.15,12.81,0,22.4,2.45,28.75,7.34,6.36,4.9,9.53,11.23,9.53,18.99,0,3.13-.63,6.43-1.89,9.91-1.26,3.48-3.46,6.71-6.58,9.69-3.13,2.98-7.37,5.42-12.71,7.34-5.35,1.92-12.16,2.88-20.43,2.88h-14.53v-3.03h13.01c6.76,0,11.93-1.13,15.51-3.4,3.58-2.27,6-5.3,7.26-9.08,1.26-3.78,1.89-8,1.89-12.64,0-7.97-1.72-14.15-5.15-18.54-3.43-4.39-9.38-6.58-17.86-6.58-4.34,0-7.19,.86-8.55,2.57-1.36,1.72-2.04,5.2-2.04,10.44v75.06c0,3.63,.3,6.36,.91,8.17s1.76,3.03,3.48,3.63c1.71,.61,4.24,1.01,7.57,1.21v3.03c-2.42-.2-5.47-.33-9.16-.38-3.68-.05-7.44-.08-11.27-.08-4.24,0-8.2,.03-11.88,.08-3.68,.05-6.68,.18-9,.38v-3.03c3.43-.2,6-.6,7.72-1.21,1.71-.6,2.85-1.82,3.41-3.63,.55-1.82,.83-4.54,.83-8.17v-75.06c0-3.73-.28-6.48-.83-8.25-.56-1.76-1.72-2.97-3.48-3.63-1.77-.66-4.31-1.03-7.64-1.14v-3.03Zm25.58,53.72c5.15,.2,9.28,.43,12.41,.68,3.13,.25,5.75,.48,7.87,.68,2.12,.2,4.09,.45,5.9,.76,7.57,1.01,13.09,3.03,16.57,6.05,3.48,3.03,5.88,7.67,7.19,13.92l3.78,15.44c.91,4.34,1.89,7.42,2.95,9.23,1.06,1.82,2.65,2.72,4.77,2.72,1.61-.1,2.95-.58,4.01-1.44,1.06-.86,2.19-2.04,3.41-3.56l2.12,1.67c-2.32,3.13-4.74,5.47-7.26,7.04-2.52,1.56-5.9,2.35-10.14,2.35s-8.05-1.14-11.12-3.41c-3.08-2.27-5.27-6.58-6.58-12.94l-3.03-15.13c-.91-4.34-1.92-8.1-3.03-11.28-1.11-3.18-2.65-5.68-4.62-7.49-1.97-1.82-4.82-2.72-8.55-2.72h-16.34l-.3-2.57Z"/><path class="b" d="M572.6,401.25l36.93,95.04c1.41,3.73,3.05,6.26,4.92,7.57,1.87,1.31,3.61,2.02,5.22,2.12v3.03c-2.42-.2-5.27-.33-8.55-.38-3.28-.05-6.58-.08-9.91-.08-4.24,0-8.17,.03-11.8,.08-3.63,.05-6.56,.18-8.78,.38v-3.03c5.15-.2,8.4-1.08,9.76-2.65,1.36-1.56,1.03-4.92-.98-10.06l-27.24-73.55,2.42-2.72-25.12,65.68c-2.42,6.05-3.58,10.74-3.48,14.07,.1,3.33,1.29,5.68,3.56,7.04,2.27,1.36,5.52,2.1,9.76,2.19v3.03c-3.03-.2-6.08-.33-9.16-.38-3.08-.05-5.98-.08-8.7-.08-2.42,0-4.57,.03-6.43,.08-1.87,.05-3.56,.18-5.07,.38v-3.03c2.12-.5,4.24-1.76,6.36-3.78,2.12-2.02,4.14-5.45,6.05-10.29l35.11-90.65h5.15Zm15.89,64.17v3.03h-45.1l1.51-3.03h43.59Z"/><path class="b" d="M794.46,401.85v3.03c-3.43,.2-6,.81-7.72,1.82-1.72,1.01-2.85,2.65-3.41,4.92-.56,2.27-.83,5.47-.83,9.61v88.38h-4.99l-64.17-93.22v72.64c0,4.24,.3,7.54,.91,9.91,.61,2.37,1.92,4.06,3.93,5.07,2.02,1.01,5.09,1.66,9.23,1.97v3.03c-1.92-.2-4.37-.33-7.34-.38-2.98-.05-5.78-.08-8.4-.08s-5.05,.03-7.57,.08c-2.52,.05-4.59,.18-6.21,.38v-3.03c3.33-.3,5.85-.93,7.57-1.89,1.71-.96,2.88-2.6,3.48-4.92,.61-2.32,.91-5.5,.91-9.53v-71.73c0-3.73-.3-6.48-.91-8.25-.61-1.76-1.77-2.97-3.48-3.63-1.72-.66-4.24-1.03-7.57-1.14v-3.03c1.61,.1,3.68,.2,6.21,.3,2.52,.1,5.04,.15,7.57,.15,2.22,0,4.39-.05,6.51-.15,2.12-.1,3.98-.2,5.6-.3l55.24,79v-59.02c0-4.34-.33-7.67-.98-9.99-.66-2.32-1.99-4.01-4.01-5.07-2.02-1.06-5.05-1.69-9.08-1.89v-3.03c1.82,.1,4.24,.2,7.26,.3,3.03,.1,5.85,.15,8.47,.15s5.04-.05,7.57-.15c2.52-.1,4.59-.2,6.21-.3Z"/><path class="b" d="M900.85,401.85c-.4,3.84-.68,7.54-.83,11.12-.15,3.58-.23,6.33-.23,8.25s.05,3.73,.15,5.45c.1,1.72,.2,3.13,.3,4.24h-3.48c-.71-6.46-1.79-11.55-3.25-15.29-1.46-3.73-3.63-6.38-6.51-7.95-2.87-1.56-6.89-2.35-12.03-2.35h-10.44c-3.23,0-5.68,.28-7.34,.83-1.67,.56-2.8,1.66-3.41,3.33-.6,1.67-.91,4.26-.91,7.79v76.28c0,3.43,.3,6,.91,7.72,.61,1.72,1.74,2.85,3.41,3.41,1.67,.56,4.11,.83,7.34,.83h9.84c5.75,0,10.31-.91,13.7-2.72,3.38-1.82,5.95-4.79,7.72-8.93,1.76-4.14,3.1-9.79,4.01-16.95h3.48c-.3,2.93-.45,6.76-.45,11.5,0,2.02,.08,4.94,.23,8.78,.15,3.84,.43,7.77,.83,11.8-5.15-.2-10.95-.33-17.4-.38-6.46-.05-12.21-.08-17.25-.08h-12.49c-5.2,0-10.74,.03-16.65,.08-5.9,.05-11.43,.18-16.57,.38v-3.03c3.43-.2,6-.6,7.72-1.21,1.71-.6,2.85-1.82,3.41-3.63,.55-1.82,.83-4.54,.83-8.17v-75.06c0-3.73-.28-6.48-.83-8.25-.56-1.76-1.72-2.97-3.48-3.63-1.77-.66-4.31-1.03-7.64-1.14v-3.03c5.15,.1,10.67,.2,16.57,.3,5.9,.1,11.45,.15,16.65,.15h12.49c4.64,0,9.91-.02,15.81-.08,5.9-.05,11.17-.17,15.81-.38Zm-25.12,51.76v3.03h-27.39v-3.03h27.39Zm4.39-19.98c-.4,5.75-.58,10.14-.53,13.17,.05,3.03,.08,5.8,.08,8.32s.05,5.3,.15,8.32c.1,3.03,.35,7.42,.76,13.17h-3.48c-.51-3.33-1.16-6.53-1.97-9.61-.81-3.08-2.25-5.57-4.31-7.49-2.07-1.92-5.27-2.88-9.61-2.88v-3.03c4.34,0,7.49-1.14,9.46-3.41,1.97-2.27,3.33-4.97,4.09-8.1,.76-3.13,1.39-5.95,1.89-8.47h3.48Z"/><path class="b" d="M976.67,401.85v3.03c-3.43,.1-6.03,.48-7.79,1.14-1.77,.66-2.95,1.87-3.56,3.63-.6,1.77-.91,4.52-.91,8.25v75.67c0,3.43,.28,6,.83,7.72,.55,1.72,1.67,2.85,3.33,3.41,1.67,.56,4.06,.83,7.19,.83h9.84c5.85,0,10.49-1.08,13.92-3.25,3.43-2.17,6.05-5.47,7.87-9.91,1.82-4.44,3.13-10.09,3.93-16.95h3.48c-.3,3.23-.45,7.47-.45,12.71,0,2.02,.08,4.97,.23,8.85,.15,3.88,.43,7.9,.83,12.03-5.15-.2-10.95-.33-17.4-.38-6.46-.05-12.21-.08-17.25-.08h-12.49c-5.2,0-10.74,.03-16.65,.08-5.9,.05-11.43,.18-16.57,.38v-3.03c3.43-.2,6-.6,7.72-1.21,1.71-.6,2.85-1.82,3.41-3.63,.55-1.82,.83-4.54,.83-8.17v-75.06c0-3.73-.28-6.48-.83-8.25-.56-1.76-1.72-2.97-3.48-3.63-1.77-.66-4.31-1.03-7.64-1.14v-3.03c2.32,.1,5.32,.2,9.01,.3,3.68,.1,7.64,.15,11.88,.15,3.83,0,7.64-.05,11.43-.15,3.78-.1,6.89-.2,9.31-.3Z"/><path class="b" d="M1085.02,401.85v3.03c-3.43,.1-6.03,.48-7.79,1.14-1.77,.66-2.95,1.87-3.56,3.63-.6,1.77-.91,4.52-.91,8.25v75.67c0,3.43,.28,6,.83,7.72,.55,1.72,1.67,2.85,3.33,3.41,1.67,.56,4.06,.83,7.19,.83h9.84c5.85,0,10.49-1.08,13.92-3.25,3.43-2.17,6.05-5.47,7.87-9.91,1.82-4.44,3.13-10.09,3.93-16.95h3.48c-.3,3.23-.45,7.47-.45,12.71,0,2.02,.08,4.97,.23,8.85,.15,3.88,.43,7.9,.83,12.03-5.15-.2-10.95-.33-17.4-.38-6.46-.05-12.21-.08-17.25-.08h-12.49c-5.2,0-10.74,.03-16.65,.08-5.9,.05-11.43,.18-16.57,.38v-3.03c3.43-.2,6-.6,7.72-1.21,1.71-.6,2.85-1.82,3.41-3.63,.55-1.82,.83-4.54,.83-8.17v-75.06c0-3.73-.28-6.48-.83-8.25-.56-1.76-1.72-2.97-3.48-3.63-1.77-.66-4.31-1.03-7.64-1.14v-3.03c2.32,.1,5.32,.2,9.01,.3,3.68,.1,7.64,.15,11.88,.15,3.83,0,7.64-.05,11.43-.15,3.78-.1,6.89-.2,9.31-.3Z"/><path class="b" d="M1197.01,401.25l36.93,95.04c1.41,3.73,3.05,6.26,4.92,7.57,1.87,1.31,3.61,2.02,5.22,2.12v3.03c-2.42-.2-5.27-.33-8.55-.38-3.28-.05-6.58-.08-9.91-.08-4.24,0-8.17,.03-11.8,.08-3.63,.05-6.56,.18-8.78,.38v-3.03c5.15-.2,8.4-1.08,9.76-2.65,1.36-1.56,1.03-4.92-.98-10.06l-27.24-73.55,2.42-2.72-25.12,65.68c-2.42,6.05-3.58,10.74-3.48,14.07,.1,3.33,1.29,5.68,3.56,7.04s5.52,2.1,9.76,2.19v3.03c-3.03-.2-6.08-.33-9.16-.38-3.08-.05-5.98-.08-8.7-.08-2.42,0-4.57,.03-6.43,.08-1.87,.05-3.56,.18-5.07,.38v-3.03c2.12-.5,4.24-1.76,6.36-3.78,2.12-2.02,4.14-5.45,6.05-10.29l35.11-90.65h5.14Zm15.89,64.17v3.03h-45.1l1.51-3.03h43.59Z"/><path class="b" d="M1402.53,345.1c9.99,0,18.2,1.48,24.63,4.43,6.43,2.95,12.14,6.4,17.14,10.33,3.03,2.27,5.34,2.54,6.92,.79,1.59-1.74,2.68-5.86,3.29-12.37h5.22c-.3,5.75-.53,12.68-.68,20.77-.15,8.1-.23,18.88-.23,32.35h-5.22c-1.06-6.66-2.08-12.11-3.07-16.34-.99-4.24-2.27-7.87-3.86-10.9-1.59-3.03-3.75-5.98-6.47-8.85-4.39-5.45-9.76-9.38-16.12-11.8-6.36-2.42-13.09-3.63-20.2-3.63-7.72,0-14.53,1.93-20.43,5.79-5.9,3.86-10.86,9.35-14.87,16.46-4.01,7.11-7.08,15.51-9.19,25.2-2.12,9.69-3.18,20.28-3.18,31.78s1.14,22.51,3.41,32.12c2.27,9.61,5.56,17.86,9.87,24.74,4.31,6.89,9.53,12.18,15.66,15.89,6.13,3.71,12.97,5.56,20.54,5.56,6.2,0,12.63-1.25,19.3-3.75,6.66-2.5,11.95-6.32,15.89-11.46,4.23-4.54,7.15-9.65,8.74-15.32s2.91-13.43,3.97-23.27h5.22c0,13.93,.07,25.16,.23,33.71,.15,8.55,.38,15.78,.68,21.68h-5.22c-.61-6.51-1.63-10.59-3.06-12.26-1.44-1.66-3.82-1.44-7.15,.68-5.6,3.94-11.54,7.38-17.82,10.33-6.28,2.95-14.34,4.43-24.18,4.43-14.98,0-28.07-3.25-39.27-9.76-11.2-6.5-19.9-15.89-26.11-28.15-6.21-12.26-9.31-27.01-9.31-44.27s3.21-31.78,9.65-44.49c6.43-12.71,15.24-22.62,26.45-29.74,11.2-7.11,24.14-10.67,38.82-10.67Z"/><path class="b" d="M1558.55,399.73c9.89,0,18.59,2.17,26.11,6.51,7.52,4.34,13.34,10.57,17.48,18.69,4.14,8.12,6.2,17.98,6.2,29.59s-2.12,21.19-6.36,29.66c-4.24,8.48-10.14,15.08-17.71,19.83-7.57,4.74-16.19,7.11-25.88,7.11s-18.72-2.17-26.18-6.51c-7.47-4.34-13.27-10.59-17.4-18.77-4.14-8.17-6.2-18.01-6.2-29.51s2.14-21.19,6.43-29.66c4.29-8.47,10.16-15.08,17.63-19.82,7.46-4.74,16.09-7.11,25.88-7.11Zm-.6,2.72c-6.26,0-11.71,2.27-16.34,6.81-4.64,4.54-8.22,10.8-10.75,18.77-2.52,7.97-3.78,17.2-3.78,27.69s1.41,20,4.24,27.92c2.82,7.92,6.66,14.03,11.5,18.31,4.84,4.29,10.24,6.43,16.19,6.43,6.25,0,11.68-2.27,16.27-6.81,4.59-4.54,8.17-10.82,10.74-18.84s3.86-17.23,3.86-27.62-1.44-20.13-4.31-28c-2.87-7.87-6.71-13.95-11.5-18.24-4.79-4.29-10.17-6.43-16.12-6.43Z"/><path class="b" d="M1761.5,401.85v3.03c-3.43,.1-6,.48-7.72,1.14-1.72,.66-2.85,1.87-3.41,3.63-.56,1.77-.83,4.52-.83,8.25v75.06c0,3.63,.28,6.36,.83,8.17,.55,1.82,1.69,3.03,3.41,3.63,1.71,.61,4.29,1.01,7.72,1.21v3.03c-2.52-.2-5.65-.33-9.38-.38-3.73-.05-7.52-.08-11.35-.08-4.24,0-8.22,.03-11.96,.08-3.73,.05-6.71,.18-8.93,.38v-3.03c3.43-.2,6.03-.6,7.79-1.21,1.76-.6,2.95-1.82,3.56-3.63,.6-1.82,.91-4.54,.91-8.17v-82.78l.76,.3-37.23,99.13h-2.42l-39.05-98.07v77.49c0,4.24,.3,7.54,.91,9.91,.61,2.37,1.92,4.06,3.93,5.07,2.02,1.01,5.09,1.66,9.23,1.97v3.03c-1.92-.2-4.37-.33-7.34-.38-2.98-.05-5.78-.08-8.4-.08s-5.05,.03-7.57,.08c-2.52,.05-4.59,.18-6.2,.38v-3.03c3.33-.3,5.85-.93,7.57-1.89,1.71-.96,2.88-2.6,3.48-4.92,.61-2.32,.91-5.5,.91-9.53v-71.73c0-3.73-.3-6.48-.91-8.25-.6-1.76-1.77-2.97-3.48-3.63-1.72-.66-4.24-1.03-7.57-1.14v-3.03c1.61,.1,3.68,.2,6.2,.3,2.52,.1,5.04,.15,7.57,.15,2.93,0,5.88-.05,8.85-.15,2.97-.1,5.52-.2,7.64-.3l33.45,85.96-2.88,1.97,32.84-87.47h8.32c3.83,0,7.62-.05,11.35-.15,3.73-.1,6.86-.2,9.38-.3Z"/><path class="b" d="M1914.35,401.85v3.03c-3.43,.1-6,.48-7.72,1.14-1.72,.66-2.85,1.87-3.41,3.63-.56,1.77-.83,4.52-.83,8.25v75.06c0,3.63,.28,6.36,.83,8.17,.55,1.82,1.69,3.03,3.41,3.63,1.71,.61,4.29,1.01,7.72,1.21v3.03c-2.52-.2-5.65-.33-9.38-.38-3.73-.05-7.52-.08-11.35-.08-4.24,0-8.22,.03-11.96,.08-3.73,.05-6.71,.18-8.93,.38v-3.03c3.43-.2,6.03-.6,7.79-1.21,1.76-.6,2.95-1.82,3.56-3.63,.6-1.82,.91-4.54,.91-8.17v-82.78l.76,.3-37.23,99.13h-2.42l-39.05-98.07v77.49c0,4.24,.3,7.54,.91,9.91,.61,2.37,1.92,4.06,3.93,5.07,2.02,1.01,5.09,1.66,9.23,1.97v3.03c-1.92-.2-4.37-.33-7.34-.38-2.98-.05-5.78-.08-8.4-.08s-5.05,.03-7.57,.08c-2.52,.05-4.59,.18-6.2,.38v-3.03c3.33-.3,5.85-.93,7.57-1.89,1.71-.96,2.88-2.6,3.48-4.92,.61-2.32,.91-5.5,.91-9.53v-71.73c0-3.73-.3-6.48-.91-8.25-.6-1.76-1.77-2.97-3.48-3.63-1.72-.66-4.24-1.03-7.57-1.14v-3.03c1.61,.1,3.68,.2,6.2,.3,2.52,.1,5.04,.15,7.57,.15,2.93,0,5.88-.05,8.85-.15,2.97-.1,5.52-.2,7.64-.3l33.45,85.96-2.88,1.97,32.84-87.47h8.32c3.83,0,7.62-.05,11.35-.15,3.73-.1,6.86-.2,9.38-.3Z"/><path class="b" d="M2038.3,401.85v3.03c-3.33,.2-5.85,.81-7.57,1.82-1.72,1.01-2.88,2.65-3.48,4.92-.61,2.27-.91,5.47-.91,9.61v43.74c0,6.86-.45,12.96-1.36,18.31-.91,5.35-2.52,9.94-4.84,13.77-2.52,4.24-6.23,7.64-11.12,10.22-4.9,2.57-10.72,3.86-17.48,3.86-4.84,0-9.53-.56-14.07-1.67-4.54-1.11-8.53-3.23-11.96-6.36-3.03-2.72-5.4-5.7-7.11-8.93-1.72-3.23-2.88-7.14-3.48-11.73-.61-4.59-.91-10.26-.91-17.03v-47.52c0-3.73-.28-6.48-.83-8.25-.56-1.76-1.69-2.97-3.41-3.63-1.72-.66-4.29-1.03-7.72-1.14v-3.03c2.32,.1,5.32,.2,9,.3,3.68,.1,7.64,.15,11.88,.15,3.83,0,7.64-.05,11.43-.15,3.78-.1,6.89-.2,9.31-.3v3.03c-3.43,.1-6.03,.48-7.79,1.14-1.77,.66-2.95,1.87-3.56,3.63-.6,1.77-.91,4.52-.91,8.25v52.36c0,6.86,.55,12.97,1.67,18.31,1.11,5.35,3.3,9.56,6.58,12.64,3.28,3.08,8.2,4.62,14.76,4.62,7.46,0,13.24-1.69,17.33-5.07,4.09-3.38,6.96-8.02,8.63-13.92,1.66-5.9,2.5-12.64,2.5-20.2v-44.8c0-4.34-.4-7.67-1.21-9.99-.81-2.32-2.22-4.01-4.24-5.07-2.02-1.06-4.89-1.69-8.63-1.89v-3.03c1.92,.1,4.39,.2,7.42,.3,3.03,.1,5.8,.15,8.32,.15s5.17-.05,7.64-.15c2.47-.1,4.51-.2,6.13-.3Z"/><path class="b" d="M2162.7,401.85v3.03c-3.43,.2-6,.81-7.72,1.82-1.72,1.01-2.85,2.65-3.41,4.92-.56,2.27-.83,5.47-.83,9.61v88.38h-4.99l-64.17-93.22v72.64c0,4.24,.3,7.54,.91,9.91,.61,2.37,1.92,4.06,3.93,5.07,2.02,1.01,5.09,1.66,9.23,1.97v3.03c-1.92-.2-4.37-.33-7.34-.38-2.98-.05-5.78-.08-8.4-.08s-5.05,.03-7.57,.08c-2.52,.05-4.59,.18-6.2,.38v-3.03c3.33-.3,5.85-.93,7.57-1.89,1.71-.96,2.88-2.6,3.48-4.92,.61-2.32,.91-5.5,.91-9.53v-71.73c0-3.73-.3-6.48-.91-8.25-.6-1.76-1.77-2.97-3.48-3.63-1.72-.66-4.24-1.03-7.57-1.14v-3.03c1.61,.1,3.68,.2,6.2,.3,2.52,.1,5.04,.15,7.57,.15,2.22,0,4.39-.05,6.51-.15,2.12-.1,3.98-.2,5.6-.3l55.24,79v-59.02c0-4.34-.33-7.67-.98-9.99-.66-2.32-1.99-4.01-4.01-5.07-2.02-1.06-5.05-1.69-9.08-1.89v-3.03c1.82,.1,4.24,.2,7.26,.3,3.03,.1,5.85,.15,8.48,.15s5.04-.05,7.57-.15c2.52-.1,4.59-.2,6.2-.3Z"/><path class="b" d="M2233.07,401.85v3.03c-3.33,.1-5.85,.48-7.57,1.14-1.72,.66-2.88,1.87-3.48,3.63-.6,1.77-.91,4.52-.91,8.25v75.06c0,3.63,.3,6.36,.91,8.17,.61,1.82,1.76,3.03,3.48,3.63,1.71,.61,4.24,1.01,7.57,1.21v3.03c-2.42-.2-5.47-.33-9.16-.38-3.68-.05-7.44-.08-11.27-.08-4.24,0-8.2,.03-11.88,.08-3.68,.05-6.69,.18-9.01,.38v-3.03c3.43-.2,6-.6,7.72-1.21,1.71-.6,2.85-1.82,3.41-3.63,.55-1.82,.83-4.54,.83-8.17v-75.06c0-3.73-.28-6.48-.83-8.25-.56-1.76-1.72-2.97-3.48-3.63-1.77-.66-4.31-1.03-7.64-1.14v-3.03c2.32,.1,5.32,.2,9.01,.3,3.68,.1,7.64,.15,11.88,.15,3.83,0,7.59-.05,11.27-.15,3.68-.1,6.73-.2,9.16-.3Z"/><path class="b" d="M2349.29,401.85c-.4,4.24-.68,8.35-.83,12.33-.15,3.99-.23,7.04-.23,9.16,0,2.32,.05,4.54,.15,6.66,.1,2.12,.2,3.93,.3,5.45h-3.48c-1.01-7.57-2.34-13.52-4.01-17.86-1.67-4.34-4.06-7.46-7.19-9.38-3.13-1.92-7.62-2.88-13.47-2.88h-6.51v86.26c0,4.04,.38,7.06,1.13,9.08,.76,2.02,2.27,3.36,4.54,4.01,2.27,.66,5.57,1.09,9.91,1.29v3.03c-2.83-.2-6.46-.33-10.9-.38-4.44-.05-8.98-.08-13.62-.08s-9.41,.03-13.7,.08c-4.29,.05-7.74,.18-10.37,.38v-3.03c4.34-.2,7.62-.63,9.84-1.29,2.22-.66,3.73-1.99,4.54-4.01,.81-2.02,1.21-5.04,1.21-9.08v-86.26h-6.66c-5.65,0-10.09,.96-13.32,2.88-3.23,1.92-5.65,5.05-7.27,9.38-1.61,4.34-2.93,10.29-3.93,17.86h-3.48c.2-1.51,.33-3.33,.38-5.45,.05-2.12,.08-4.34,.08-6.66,0-2.12-.08-5.17-.23-9.16-.15-3.98-.43-8.1-.83-12.33,4.34,.1,9.08,.2,14.22,.3,5.15,.1,10.34,.15,15.59,.15h28.3c5.14,0,10.34-.05,15.59-.15,5.25-.1,9.99-.2,14.23-.3Z"/><path class="b" d="M2462.19,401.85v3.03c-2.02,.51-4.06,1.89-6.13,4.16-2.07,2.27-4.37,5.83-6.89,10.67l-29.81,59.17h-4.09l-35.41-65.38c-2.02-3.63-3.71-5.95-5.07-6.96-1.36-1.01-2.6-1.51-3.71-1.51v-3.18c2.22,.1,4.54,.2,6.96,.3,2.42,.1,5.04,.15,7.87,.15,3.63,0,7.57-.02,11.8-.08,4.24-.05,8.17-.17,11.8-.38v3.18c-2.52,0-4.77,.25-6.73,.76-1.97,.5-3.28,1.49-3.93,2.95-.66,1.46-.28,3.56,1.14,6.28l24.97,47.97-2.42,2.57,18.61-37.08c3.13-6.15,4.71-10.92,4.77-14.3,.05-3.38-1.06-5.75-3.33-7.11s-5.52-2.09-9.76-2.19v-3.03c3.13,.1,6.2,.2,9.23,.3,3.03,.1,5.9,.15,8.63,.15,2.52,0,4.69-.05,6.51-.15,1.82-.1,3.48-.2,4.99-.3Zm-34.81,58.42v32.69c0,3.63,.3,6.36,.91,8.17,.61,1.82,1.76,3.03,3.48,3.63,1.71,.61,4.24,1.01,7.57,1.21v3.03c-2.42-.2-5.5-.33-9.23-.38-3.73-.05-7.52-.08-11.35-.08-4.14,0-8.07,.03-11.8,.08-3.73,.05-6.71,.18-8.93,.38v-3.03c3.43-.2,6-.6,7.72-1.21,1.71-.6,2.85-1.82,3.41-3.63,.55-1.82,.83-4.54,.83-8.17v-31.02l9.84,9.38,7.57-11.05Z"/></svg>