<?xml version="1.0" encoding="utf-8"?>
<!-- Generator: Adobe Illustrator 26.1.0, SVG Export Plug-In . SVG Version: 6.00 Build 0)  -->
<svg version="1.1" id="Livello_1" xmlns="http://www.w3.org/2000/svg" xmlns:xlink="http://www.w3.org/1999/xlink" x="0px" y="0px"
	 viewBox="0 0 20.2 19.9" style="enable-background:new 0 0 20.2 19.9;" xml:space="preserve">
<style type="text/css">
	.st0{display:none;}
	.st1{display:inline;fill:#191411;}
	.st2{display:inline;fill:#F5A409;}
	.st3{fill:#FFFFFF;}
	.st4{fill:#FFCE34;}
</style>
<g class="st0">
	<path id="Rettangolo_7_00000124854874225363319080000014409256155989448626_" class="st1" d="M3.1,1.5h3.8c0.8,0,1.4,0.6,1.4,1.4
		v3.8c0,0.8-0.6,1.4-1.4,1.4H3.1c-0.8,0-1.4-0.6-1.4-1.4V3C1.7,2.2,2.3,1.5,3.1,1.5z"/>
	<path id="Rettangolo_60_00000134240041994570283520000014301110505025568442_" class="st2" d="M13.2,1.5H17c0.8,0,1.4,0.6,1.4,1.4
		v3.8c0,0.8-0.6,1.4-1.4,1.4h-3.8c-0.8,0-1.4-0.6-1.4-1.4V3C11.8,2.2,12.4,1.5,13.2,1.5z"/>
	<path id="Rettangolo_58_00000132053418394371811520000002378111884714448014_" class="st2" d="M3.1,11.6h3.8c0.8,0,1.4,0.6,1.4,1.4
		v3.8c0,0.8-0.6,1.4-1.4,1.4H3.1c-0.8,0-1.4-0.6-1.4-1.4V13C1.7,12.3,2.3,11.6,3.1,11.6z"/>
	<path id="Rettangolo_59_00000119814519676949949790000000050606349736657326_" class="st2" d="M13.2,11.6H17c0.8,0,1.4,0.6,1.4,1.4
		v3.8c0,0.8-0.6,1.4-1.4,1.4h-3.8c-0.8,0-1.4-0.6-1.4-1.4V13C11.8,12.3,12.4,11.6,13.2,11.6z"/>
</g>
<g>
	<path id="Rettangolo_7_00000104677483122117305240000009763389286172195479_" class="st3" d="M3.2,1.6h3.8c0.8,0,1.4,0.6,1.4,1.4
		v3.8c0,0.8-0.6,1.4-1.4,1.4H3.2c-0.8,0-1.4-0.6-1.4-1.4V3.1C1.8,2.3,2.3,1.6,3.2,1.6z"/>
	<path id="Rettangolo_60_00000148634768473123052900000000649062789991456164_" class="st4" d="M13.3,1.6H17c0.8,0,1.4,0.6,1.4,1.4
		v3.8c0,0.8-0.6,1.4-1.4,1.4h-3.8c-0.8,0-1.4-0.6-1.4-1.4V3.1C11.8,2.3,12.4,1.6,13.3,1.6z"/>
	<path id="Rettangolo_58_00000043426679834345852930000012864029875572678292_" class="st4" d="M3.2,11.7h3.8c0.8,0,1.4,0.6,1.4,1.4
		v3.8c0,0.8-0.6,1.4-1.4,1.4H3.2c-0.8,0-1.4-0.6-1.4-1.4v-3.8C1.8,12.4,2.3,11.7,3.2,11.7z"/>
	<path id="Rettangolo_59_00000141444974229154673330000010346863457133478043_" class="st4" d="M13.3,11.7H17c0.8,0,1.4,0.6,1.4,1.4
		v3.8c0,0.8-0.6,1.4-1.4,1.4h-3.8c-0.8,0-1.4-0.6-1.4-1.4v-3.8C11.8,12.4,12.4,11.7,13.3,11.7z"/>
</g>
</svg>
