<?xml version="1.0" encoding="utf-8"?>
<!-- Generator: Adobe Illustrator 26.0.3, SVG Export Plug-In . SVG Version: 6.00 Build 0)  -->
<svg version="1.1" id="Livello_1" xmlns="http://www.w3.org/2000/svg" xmlns:xlink="http://www.w3.org/1999/xlink" x="0px" y="0px"
	 viewBox="0 0 141.7 141.7" style="enable-background:new 0 0 141.7 141.7;" xml:space="preserve">
<style type="text/css">
	.st0{fill:none;}
	.st1{fill:#191412;}
	.st2{fill:none;stroke:#191412;stroke-width:3.1351;}
</style>
<g id="Raggruppa_58" transform="translate(-58 -254)">
	<g id="Tracciato_37" transform="translate(58 254)">
		<path class="st0" d="M70.9,4.8c36.9,0,66.9,29.9,66.9,66.9c0,0,0,0,0,0c0,36.9-29.9,65.2-66.8,65.2S4,108.6,4,71.7
			C4,34.8,33.9,4.8,70.9,4.8C70.9,4.8,70.9,4.8,70.9,4.8z"/>
		<path class="st1" d="M70.9,8c-8.6,0-17,1.7-24.8,5c-7.6,3.2-14.4,7.8-20.3,13.7c-5.9,5.9-10.4,12.7-13.7,20.3
			c-3.3,7.9-5,16.2-5,24.8c0,16.9,6.6,32.6,18.7,44.2c11.9,11.5,28,17.9,45.1,17.9c17.1,0,33.2-6.3,45.1-17.9
			c12-11.6,18.6-27.3,18.6-44.2c0-8.6-1.7-17-5-24.8c-3.2-7.6-7.8-14.4-13.7-20.3c-5.9-5.9-12.7-10.4-20.3-13.7
			C87.8,9.7,79.5,8,70.9,8 M70.9,4.8c36.9,0,66.9,29.9,66.9,66.9s-29.9,65.2-66.8,65.2S4,108.6,4,71.7S33.9,4.8,70.9,4.8z"/>
	</g>
	<ellipse id="Ellisse_12" class="st2" cx="107.6" cy="303.3" rx="15.7" ry="15.7"/>
	<path id="Tracciato_36" class="st2" d="M187.3,351.8c-15.6,32.1-54.3,45.5-86.4,29.9C89,376,79.2,366.7,72.7,355.1l16.4-16.8
		l-0.3-0.5c0.4,0.4,0.9,0.8,1.3,1.3l15.8,16.1c1.6,2.3,4.7,2.8,7,1.2c0.5-0.3,0.9-0.7,1.2-1.2c12.3-12.6,24.7-25.3,37-37.9
		c0.5-0.6,0.9-1.2,1.3-1.8c0.4,0.5,0.7,1,1.1,1.5C164.8,328.6,176,340.2,187.3,351.8z"/>
</g>
</svg>
