<?xml version="1.0" encoding="utf-8"?>
<!-- Generator: Adobe Illustrator 26.0.3, SVG Export Plug-In . SVG Version: 6.00 Build 0)  -->
<svg version="1.1" id="Livello_1" xmlns="http://www.w3.org/2000/svg" xmlns:xlink="http://www.w3.org/1999/xlink" x="0px" y="0px"
	 viewBox="0 0 37.8 19.9" style="enable-background:new 0 0 37.8 19.9;" xml:space="preserve">
<style type="text/css">
	.st0{fill:#FFFFFF;}
	.st1{fill:#6D150D;}
</style>
<g>
	<g id="Raggruppa_158">
		<g id="Raggruppa_156">
			<path id="Tracciato_53" class="st0" d="M35.4,18.5L35.4,18.5c-0.1,0-0.1,0-0.2,0c-5.5,0-10.9,0-16.3,0H2.8c-0.7,0-0.7,0-0.7-0.7
				c0-0.7,0-1.6,0-2.3c0-0.1,0-0.3,0.1-0.4c0.2-0.1,0.3-0.1,0.5-0.1c5,0,10,0,15,0h17.4c0.9,0,0.8-0.1,0.8,0.9c0,0.7,0,1.4,0,2.2
				C35.8,18.3,35.7,18.4,35.4,18.5z"/>
			<path id="Tracciato_54" class="st0" d="M35.8,11.8c-0.1-0.4,0-0.7,0-1.1c0-0.3-0.1-0.5-0.1-0.8h-0.1l-0.1,1c0,0.5-0.1,1-0.1,1.5
				l-0.3,0.1c-0.9,0.1-1.8,0.2-2.6,0.3c-1.2,0.2-2.4,0.4-3.6,0.5c-0.3,0-0.5,0-0.9-0.1c-0.1-0.1-0.2-0.1-0.2-0.3c0-0.5,0-1.1,0-1.6
				v-0.7l0,0l0,0c0.1,0.1,0.5,0.9,1.1,0.9h0.1c-0.3-0.4-1-1.6-1-1.6c0.6-0.1,1.1-0.7,1.1-1.3c0-0.3,0-0.5-0.1-0.7l0,0
				c-0.1-0.1-0.1-0.1-0.1-0.2C28.7,7.3,28.3,7,27.9,7c0-0.7,0-1.8,0-2.4l1.4-0.2h0.2v0.2l0,0v0.1v0.3V5v0.5l0,0V6v0.2v0.3v0.1v0.5
				v0.7v0.3v0.1l0,0v1.9h-0.1c-0.2,0.1-0.3,0.1-0.5,0s0.2,0.3,0.5,0.1h0.1v2.2h-0.1h-0.1l0.1,0.1h0.1h0.1v0.1l-0.1,0.1l0.1,0.1l0,0
				l0,0c0,0,0.2,0.1,0.2,0c0-0.5,0-0.9,0-1.5l0,0c0-1.1,0-2.2,0-3.1V8h0.1V7.5V7.3l0,0v-3h0.1l5.7-0.8h0.1v5.8h0.1
				c0-1.8,0-3.6,0-5.5c0-0.4,0-0.8-0.5-0.7l-0.5-0.7c0,0,0,0,0,0.1l0,0v0.1v0.1l0,0c0,0,0,0,0,0.1c0,0,0,0,0,0.1l0,0l0,0l0,0l0,0
				l0,0l0,0c-0.5,0.2-0.9,0.4-1.4,0.5l1.4-0.7l0.1-0.1l-0.8,0.3c0-0.2,0-0.3-0.1-0.5c-0.6-0.1-0.7-0.1-0.9,0l-0.1,0.1l0.3-0.1h0.1
				l0.2-0.1l0,0l0,0l0,0v0.1l0,0l0,0l0,0l0,0l0,0l0,0l-0.1,0.1l0,0h-0.1l0,0h-0.1l0,0h-0.1h-0.1L33,2.5l-0.1,0.3l0,0
				c-0.1,0.1-0.2,0.1-0.3,0.1h-0.1h-0.1h-0.1h-0.1h-0.1h-0.1l0,0h-0.1H32l-0.1,0.1l-0.1,0.1h-0.1h-0.1l0,0h-0.1l0,0h-0.1h-0.1h-0.1
				H31H31c-0.1,0-0.3,0.1-0.4,0.1c0.3-0.1,0.7-0.1,0.9-0.3l0.2-0.1l0.1,0l0.1-0.1L32,2.7l0.7-0.3l0.3-0.1V2.1
				C33,1.9,33,1.7,32.9,1.4l-0.2,0.3l-0.3,0.3L32.6,2h0.1c0,0.1,0,0.2,0,0.3c-0.1,0.1-0.3,0.3-0.4,0.3h-0.1l-2,0.7
				c-0.3,0.1-0.6,0.2-0.9,0.3l0.1-0.5l0,0l0.1-0.1l-0.2,0.1h-0.1L29,3.4l-0.3,0.3V3.6c-0.1-0.5-0.5-0.9-1-0.9
				c-0.9-0.2-1.8-0.3-2.6-0.4c-0.5-0.1-1-0.1-1.6-0.2l-0.1,0.1v0.1l-0.2-0.1L23,2.1c-0.1,0.1-0.1,0.1-0.1,0.1l-0.1,0.1
				c-0.1,0-0.1,0-0.1,0c-0.1,0-0.3,0.1-0.4,0.1c-0.3,0.2-0.6,0.6-0.6,1v0.1c0,2.4,0,4.8,0,7.2V11c0,0.6-0.1,0.7-0.5,0.9
				C21,12,20.9,12,20.8,12c0-0.1,0.1-0.2,0.1-0.3c0-0.7,0-1.5-0.1-2.3c-0.1-0.8-0.8-1.1-1.6-1.1c-0.3,0-0.5,0.1-0.7,0.2
				c-0.5,0.3-0.7,0.7-0.8,1.1c-0.1,0.5,0,1.1,0.3,1.6c-0.1-0.1-0.3-0.1-0.4-0.1C17,11,16.4,11,15.8,11.1c-0.3,0.1-0.7-0.1-0.8-0.5
				c0-0.1,0-0.1-0.1-0.1c0.5,0,0.9,0,1.4,0c0.1,0,0.3,0,0.3-0.1c0.3-0.1,0.6-0.3,0.7-0.7c0.1-0.5-0.2-1-0.7-1.3
				c-0.5-0.3-1.1-0.3-1.6,0c-0.3,0.1-0.5,0.4-0.7,0.7c-0.4,0.9-0.1,2.1,0.8,2.4c0.1,0.1,0.1,0.1,0.2,0.1c-0.5,0.3-0.9,0.6-1.4,0.8
				c-0.3,0.1-0.7,0.2-1,0.2c-0.7,0.1-1.1-0.4-1-1.1c0.1-0.3,0.2-0.6,0.3-0.9c0.1-0.5,0.3-0.9,0.4-1.4c0.1-0.5-0.1-1.1-0.7-1.4
				c-0.4-0.2-0.9-0.4-1.4-0.5c-0.1-0.4-0.2-1-0.5-1.4C9.2,4.7,7.7,3.7,5.8,4.1C5.4,4.2,5,4.3,4.6,4.5l0,0c-1.4,0.6-2.4,1.7-2.4,3
				c-0.1,0.5-0.1,0.9,0,1.4c0.1,1.2,0.7,2.4,1.8,3c1.4,0.7,2.9,0.9,4.3,0.4c0.4-0.1,0.8-0.4,1.1-0.7c0.5-0.4,0.9-1,1-1.7
				c0.1-0.5,0.1-0.9,0.2-1.4V8.4c0.1,0,0.1,0,0.2,0c0.7,0.1,1.1,0.7,1,1.4c0,0.1-0.1,0.2-0.1,0.3c-0.2,0.7-0.5,1.3-0.6,2
				c-0.1,0.5,0,0.9,0.4,1.2c0.5,0.4,1.5,0.5,2.2,0.2c0.1-0.1,0.2-0.1,0.3-0.1c0.4-0.3,0.9-0.5,1.3-0.7c0.2-0.1,0.3-0.2,0.5-0.3
				c0.6-0.3,1.3-0.4,2-0.3c0.5,0.2,0.9,0.4,1.4,0.6c0,0.1,0,0.1-0.1,0.1l-0.3-0.1c-0.2-0.1-0.3-0.1-0.5-0.1s-0.3,0.1-0.5,0.1v0.1
				c0.1,0.1,0.1,0.4,0.2,0.5c0.5,0.3,1.1,0.3,1.6,0.1c0.2-0.1,0.3-0.1,0.5-0.3c0.2-0.1,0.3-0.3,0.5-0.3c0.3-0.2,0.7-0.3,1-0.2
				c1.8,0.3,3.5,0.5,5.2,0.7h0.2h0.1h0.1c0-0.1,0-0.1,0-0.2h0.1l-5.6-0.8c0.2-0.5,0.9-0.7,0.9-1.4c0-0.1,0-0.1,0-0.1
				c0.2,0,0.4,0,0.6,0c0.7-0.1,1.2-0.1,1.4,0.8c0,0.1,0.1,0.1,0.3,0.2l0.1,0.1c0.1-0.1,0.2-0.3,0.1-0.5c-0.1-0.5-0.3-1-0.5-1.6
				c-0.3-0.8-0.6-1.6-0.9-2.4c-0.1-0.2-0.3-0.3-0.5-0.4c-0.1,0-0.1,0.1-0.2,0.1c-0.1,0.1-0.1,0.1-0.2,0.3c-0.1,0.3-0.2,0.5-0.3,0.7
				c-0.3,0.9-0.6,1.7-0.9,2.6h-0.1V3.4l6,0.9V7h-0.3h-0.3c-0.3,0-0.5,0.1-0.8,0.2c-0.4,0.2-0.6,0.7-0.5,1.1c0,1,0,2,0.1,3
				c0,0.2,0,0.5,0.3,0.4l0,0c0.3,0,0.3-0.3,0.3-0.5c0-0.3,0-0.7,0-1v-0.1c1-0.2,1.1,0.3,1.1,0.9v0.1c0,0.5,0,1.1,0,1.6
				c0,0.2,0.1,0.4,0.2,0.5c0.1,0.1,0.3,0.2,0.5,0.2c0.3,0,0.5,0,0.7-0.1c0.6-0.1,1.2-0.3,1.9-0.3c1.4-0.2,2.8-0.4,4.2-0.5
				c0.1,0,0.1,0,0.1,0C35.6,12.4,35.8,12.2,35.8,11.8z M33.7,2.5L33.7,2.5h0.1l0,0l0,0H33.7v0.2l0,0l0,0l0,0v0.1l0,0l0,0l0,0l0,0
				l0,0h-0.2C32.7,3,32,3.2,31.2,3.4V3.3L33.7,2.5z M30.9,3.9L30.9,3.9c0.4-0.1,0.8-0.1,1.1-0.2h0.1h0.1h0.1h0.1h0.1h0.1h0.1h-0.1
				H33l0.1-0.2l0,0h0.1h0.1l0.2-0.1l0,0l0.1-0.1l0,0l0.1-0.1l0.1-0.1h0.1h0.1H34h0.1h0.1h0.1l0.3-0.1L34.5,3l0.1-0.1l0.2-0.1
				l0.1,0.1l0,0l0,0l0,0L34.9,3l0,0l0,0l0,0l0,0l0,0l0,0l0,0l0,0c0,0,0,0.1-0.1,0.1l0,0l0,0l0,0C33.1,3.5,31.6,3.7,30,4
				c0,0,0,0-0.1-0.1l0.3-0.1h0.1C30.6,3.9,30.7,3.9,30.9,3.9L30.9,3.9z M23.5,8.3h0.1c0.2,0.5,0.3,1.1,0.6,1.7h-1.3
				C23.1,9.4,23.3,8.9,23.5,8.3L23.5,8.3z M20.3,11.4c-0.1,0.9-0.3,1-1.1,0.5c-0.1-0.1-0.3-0.1-0.5-0.3c0.7,0.1,1.2,0.1,1.6-0.5
				C20.3,11.3,20.3,11.4,20.3,11.4z M19.3,9.1c0.5,0,0.8,0.3,0.9,0.8c0,0.1,0,0.1,0,0.1c0.1,0.5-0.3,1-0.8,1.1l0,0
				c-0.1,0-0.1,0-0.1,0c-0.5,0-0.9-0.3-0.9-0.9C18.4,9.5,18.7,9.1,19.3,9.1L19.3,9.1z M16.2,9.1c0.2,0.1,0.3,0.3,0.3,0.5
				c0,0.1-0.3,0.3-0.5,0.3c-0.4,0-0.8,0-1.2-0.1C15.1,9.2,15.6,8.9,16.2,9.1L16.2,9.1z M10,6.2L10,6.2L10,6.2L10,6.2l0.1,0.1v0.1
				l0.1,0.1l0,0l0.1,0.1v0.1v0.1v0.1l0.1,0.1v0l0,0c0,0,0,0,0,0.1c0,0,0,0,0,0.1V7v0.1v0.1c0,0,0,0,0,0.1v0.1v0.1v0.1v0.1v0.1v0.3
				c0,0,0,0,0,0.1v0.1v0.1v0.1v0.1v0.1v0.1v0.1c0,0,0,0,0,0.1s-0.1,0.1-0.1,0.2l0,0c0,0,0,0,0,0.1v0.1l0,0l0,0v0.1V9v0.1l0,0l0,0
				l0,0l0,0c0,0,0,0,0,0.1l0,0l0,0l0,0l-0.1,0.1L10,6.2z M7.4,8.9l0.1-0.5l0.1-0.5c0.1,0.9-0.3,2.4-0.8,2.4C7.1,9.9,7.3,9.3,7.4,8.9
				L7.4,8.9z M6.8,10.3l-0.1-0.1L7,9.1l0.1,0.1C7,9.5,6.9,9.9,6.8,10.3L6.8,10.3z M8.2,7.5c0.3,0.7-0.3,2.8-0.8,2.8
				C7.8,9.4,7.6,8.4,8.2,7.5z M8.5,7.5C8.6,7.2,8.7,7.1,8.9,7C8.7,8.2,8.7,9.3,8,10.4C8.2,9.3,8.3,8.4,8.5,7.5L8.5,7.5z M9.2,7
				c0.1-0.1,0.1-0.3,0.3-0.5C9.6,7.6,9,9.9,8.5,10.1C8.7,9.1,8.9,8.1,9.2,7L9.2,7z M9.7,6.4c0.3,0.9,0.3,1.9,0,2.8
				C9.6,9.5,9.3,9.7,9,10C9.3,8.7,9.5,7.6,9.7,6.4L9.7,6.4z M9.7,5.6L10,5.9L9.8,6L7.7,8l0,0L7.2,8.7L7.1,8.9L6.8,9.3L6.3,10
				c0-1.1,1.6-3.4,3.2-4.3L9.7,5.6L9.7,5.6z M9.3,5.4L9.3,5.4L9.3,5.4L9.3,5.4L9.3,5.4L9.3,5.4l0.2,0.1H9.4l0,0l0,0L9.3,5.6L9.2,5.6
				L9,5.8C8.9,5.8,8.8,6,8.7,6L8.5,6.1L8.5,6.2L8.4,6.2L8.3,6.3L8.3,6.4L8.2,6.4L8.1,6.5L8.1,6.6L8,6.7L7.9,6.8
				C7.9,6.8,7.9,6.8,7.8,6.9l0.1-0.1v0.1L7.8,7L7.7,7L7.7,7.1L7.5,7.3L7.5,7.4L7.3,7.5L7.3,7.6l0-0.1L7.2,7.6C7.1,7.8,7,7.9,6.9,8.1
				v0.1L6.8,8.3L6.7,8.3c0,0,0,0.1-0.1,0.1L6.6,8.5L6.5,8.5L6.5,8.6c0,0.1-0.1,0.1-0.1,0.1l0,0l0.1,0.1L6.5,8.9c0,0,0,0.1-0.1,0.1
				C6.3,9.3,6.2,9.5,6.1,9.7C5.8,9.2,6.8,7.4,7.8,6.4c0.7-0.7,1.1-1,1.4-1L9.3,5.4L9.3,5.4z M9,5.2L9,5.2h0.2H9v0.1L8.6,5.5L8.5,5.6
				L8.5,5.6L8.3,5.7L8.3,5.8L8.2,5.8L8.1,5.9L8.1,6L7.9,6.1L7.8,6.2C7.7,6.3,7.5,6.4,7.4,6.6L7.3,6.6L7.3,6.8c0,0-0.1,0.1-0.1,0.1
				l0,0L7.1,6.9L7.1,7l0,0L7,7L6.9,7.1l0,0L6.9,7.2L6.8,7.2L6.7,7.3L6.7,7.4L6.6,7.5l0.1,0.1C6.7,7.6,6.6,7.7,6.5,7.8L6.5,7.9
				c0,0,0,0.1-0.1,0.1C6.3,8,6.3,8.1,6.3,8.1L6.2,8.3L6.1,8.4v0.1L6,8.5v0.1v0.1C6,8.8,6,8.9,5.9,9v0.1c0,0.1-0.1,0.1-0.1,0.1V9.1
				c0,0,0,0,0-0.1V8.9l0,0c0,0,0,0,0-0.1c0,0,0,0,0-0.1c0,0,0,0,0-0.1c0,0,0,0,0-0.1V8.6c0,0,0,0,0-0.1s0,0,0,0V8.5
				c0-0.1,0.1-0.1,0.1-0.3V8.1V8.1V8C6,7.9,6,7.8,6,7.7V7.7c0-0.1,0.1-0.1,0.1-0.1l0.1-0.1V7.4l0,0c0,0,0-0.1,0.1-0.1l0.1-0.1l0,0
				c0-0.1,0.1-0.1,0.1-0.1l0,0l0.1,0c0,0,0.1-0.1,0.1-0.1l0.1-0.1V6.8l0.1-0.1V6.7c0,0,0,0,0-0.1l0.1-0.2l0.1-0.1L7,6.3l0.1-0.1
				l0.1-0.1V6.1V6L7.3,6l0,0V5.9l0.2-0.1l0.1-0.1c0.1-0.1,0.2-0.2,0.3-0.3h0.1l0.1-0.1h0.1l0.1-0.1l0.1-0.1h0.1h0.1
				c0.1-0.1,0.2-0.1,0.3-0.1h0.1l0,0L9,5.2L9,5.2z M6.4,5.5l-1,2.7C5.5,7.2,5.7,6.2,6.4,5.5L6.4,5.5z M5.2,7.6
				c0.1-0.7-0.1-1.4,0.7-1.8C5.7,6.4,5.5,6.9,5.2,7.6z M6,7.1C6,6,7,5.1,8.3,5C7.4,5.5,6.5,6,6,7.1z M7.8,5.4L6,7.5
				C6.3,6.6,7,5.9,7.8,5.4z M2.7,6.4c0.7-1.4,2.2-2,3.7-2.1C6.1,4.3,5.8,4.4,5.5,4.5C4.1,5,2.9,5.8,2.6,7.2c-0.1,0.7,0,1.6,0,2.4
				c0,0.1,0,0.3,0.1,0.5C2.1,8.9,2.1,7.5,2.7,6.4L2.7,6.4z M3.5,11.4C3.2,11,3,10.5,2.9,9.9C2.8,9.2,2.7,8.5,2.7,7.7
				c0-0.7,0.3-1.4,0.9-1.8c0.5-0.6,1.2-1,2-1.1C6.1,4.6,6.5,4.4,7,4.4C6.3,4.7,5.7,5,5.1,5.4C3.6,6.2,2.8,8.1,3.3,9.8
				c0.1,0.5,0.2,1.1,0.3,1.6H3.5z M4,11.7c-0.1-0.1-0.1-0.3-0.1-0.3c-0.3-1.2-0.7-2.4-0.3-3.7c0.2-0.8,0.7-1.6,1.4-2
				c0.9-0.5,1.8-0.9,2.7-1.2l0,0l0,0h0.3l0,0h0.1H8h0.1h0.1h0.1h0.1v0.1l0,0C7.9,4.7,7.6,4.8,7.2,5c-0.5,0.2-1,0.5-1.5,0.7
				c-1.6,0.9-2,2.5-1.9,4.3C3.8,10.5,4,11,4,11.6L4,11.7z M4.1,10.7l1,1.5C4.4,12.2,4.1,11.8,4.1,10.7z M4,9.3l1.7,2.9
				C5,12.2,3.9,10.4,4,9.3z M4.1,8.3c0.5,1.6,1.2,2.9,2.4,4.1C5.5,12.1,3.9,9.3,4.1,8.3z M5.7,11.3C5.3,10.7,5,10.1,4.6,9.4
				C4.3,8.7,4.1,7.9,4.6,7c0,2.2,0.9,3.9,2.6,5.4C6.5,12.2,6,11.8,5.7,11.3L5.7,11.3z M5.2,9.5C4.6,8.2,4.6,6.9,5.1,6.4
				C5,8.8,6.3,10.6,7.6,12.2C7,12.3,5.9,11.1,5.2,9.5L5.2,9.5z M7.4,11.7l2.5-0.9C9.5,11.4,8,12,7.4,11.7L7.4,11.7z M10.1,10.2
				L10.1,10.2c0,0.1-0.1,0.1-0.1,0.1l0,0l0,0l0,0c0,0,0,0.1-0.1,0.1l0,0l0,0l0,0l0,0c-0.7,0.5-1.6,0.9-2.6,1c-0.1,0-0.3-0.1-0.5-0.2
				L6.9,11c1.1-0.3,2.3-0.3,3.2-1.2l0.1,0.1l0.1,0.1C10.2,10,10.2,10.1,10.1,10.2L10.1,10.2z M10.4,9.1L10.4,9.1c0,0.1,0,0.1,0,0.2
				c0,0,0,0,0,0.1l0,0l0,0v0.1v0.1l-0.1,0.1c0,0,0,0.1-0.1,0.1l0,0l0,0l-0.1,0.1l0,0l-0.1,0.1l0,0L10,9.8l0,0l0,0l0,0l0,0L10,9.9
				l0,0H9.9l0,0H9.8H9.8H9.7L9.6,9.9H9.6l0,0H9.5L9.4,10l0,0l-0.1,0.1l-0.1,0.2c-0.7,0.3-1.4,0.5-2,0.5c-0.1,0.1-0.3-0.1-0.5-0.2
				h0.1h0.1h0.3h0h0.1h0.1h0.2h0.1h0.1h0.1h0.1h0.1h0l0,0h0.1H8h0.1h0.1h0.1h0.1h0.1h0.1l0.1-0.1h0l0,0h0.1h0.1h0.1l0.1-0.1h0.1
				L9,10.4H9l0.1-0.1c0,0,0.1,0,0.1-0.1l0.1-0.1l0,0c0.1-0.1,0.1-0.1,0.2-0.1l0,0L9.5,10l0,0l0.3-0.3l0.1-0.1L10,9.6L10,9.5
				c0.1-0.1,0.1-0.1,0.1-0.1l0.1-0.1l0.1-0.1l0,0l0,0L10.4,9.1c0.1,0.1,0.1,0.1,0.1,0.1L10.4,9.1z M13.7,13.3
				c-0.7,0.3-1.5,0.2-2.1-0.3c-0.4-0.3-0.5-0.8-0.3-1.3c0.2-0.7,0.5-1.3,0.7-2c0.2-0.7-0.3-1.4-0.9-1.6l0,0c-0.1,0-0.1,0-0.1,0h-0.3
				c0-0.1-0.1-0.1-0.1-0.2V7.9l0,0l0,0l0,0l0,0l0,0l0,0l0,0l0,0l0,0l0,0l0,0l0,0l0,0l0,0l0,0l0,0l0,0l0,0h0.1l0,0H11
				c0.8,0,1.5,0.7,1.5,1.6l0,0c0,0.1-0.1,0.2-0.1,0.3c-0.1,0.4-0.3,0.8-0.4,1.3c-0.1,0.3-0.2,0.7-0.2,0.9V12v0.1v0.1v0.1
				c0,0.1,0,0.1,0,0.1v0.1c0,0,0,0,0,0.1c0,0,0,0.1,0.1,0.1c0,0,0,0.1,0.1,0.1v0.1l0,0l0.1,0.1l0,0l0,0l0,0l0,0l0,0l0,0l0,0l0,0l0,0
				l0,0l0,0l0,0l0,0l0,0l0,0l0,0l0,0h0.1l0,0l0,0l0,0l0,0h0.1l0,0h0.1l0,0h0.1h0.1l0.2,0.2c0.9,0.1,1.6-0.3,2.2-0.7
				c0.5-0.3,0.9-0.5,1.4-0.4C15.5,12.3,14.7,12.8,13.7,13.3L13.7,13.3z M19.5,12.5c0,0-0.8-0.4-1.4-0.6c-0.3-0.1-0.6-0.2-0.9-0.2
				l0,0c-0.1,0-0.1,0-0.3,0l0,0c0.2-0.2,0.5-0.3,0.7-0.2h0.1c0.2,0.1,0.3,0.1,0.5,0.2l0,0c0.5,0.3,1.1,0.6,1.1,0.6
				c0.2,0.1,0.3,0.1,0.5,0.1C19.9,12.5,19.5,12.5,19.5,12.5L19.5,12.5z M20.7,12.5c0.1-0.1,0.2-0.1,0.3-0.3c0,0,0.7-0.1,0.9-0.6
				c0.1,0.1-0.1,0.3-0.1,0.5l0,0v0.1h-0.1h-0.1C21.2,12.2,21,12.4,20.7,12.5L20.7,12.5z M28.5,8.6c0.1,0.3-0.1,0.7-0.5,0.7V7.8
				C28.4,8,28.5,8.3,28.5,8.6L28.5,8.6z M24.3,2.6c1.3,0.1,2.7-0.2,3.8,0.7C27,2.7,25.6,2.7,24.3,2.6z M27,3.9
				c-1.5-0.3-3-0.5-4.5-0.7c-0.1,0-0.2-0.1-0.3-0.2c0-0.1-0.1-0.1-0.1-0.2c1.8,0.3,3.6,0.1,5.3,0.8c-0.9-0.1-1.8-0.3-2.7-0.3
				c-0.7-0.1-1.4-0.1-2-0.2c0.5,0.1,0.9,0.2,1.4,0.3c1.1,0.2,2.3,0.3,3.4,0.5c0.1,0,0.3,0.1,0.4,0.3C27.7,4,27.3,4,27,3.9z
				 M27.5,9.5c-0.3,0-0.5,0-0.9,0c0-0.5,0-0.9,0-1.4c0.1-0.4,0.4-0.5,1.1-0.3c0,0.5,0,0.9,0,1.4C27.8,9.3,27.7,9.4,27.5,9.5
				L27.5,9.5z M32.2,7.1L32.2,7.1c-0.1,0-0.2,0-0.3,0c-0.7,0-1.3,0-2,0c-0.1,0-0.1,0.1-0.2,0.1c-0.1,0.2-0.1,0.4,0.1,0.5
				c0.3,0,0.7,0,0.9,0c0,0.2,0,0.5,0,0.7c0,0.9,0,2,0.1,2.9c0,0.1,0.1,0.3,0.3,0.4l0.1,0.1c0.1-0.1,0.3-0.3,0.3-0.5
				c0.1-0.9,0-1.8,0.1-2.6c0-0.3,0-0.5,0-0.8V7.8c0.2,0,0.5,0,0.7,0l0,0c0.1-0.1,0.2-0.1,0.3-0.3C32.5,7.4,32.4,7.2,32.2,7.1
				L32.2,7.1z"/>
			<path id="Tracciato_55" class="st0" d="M13.5,9.3c0,0.7,0,1.4,0,2c0,0.1-0.2,0.3-0.3,0.5l-0.1-0.1c-0.1-0.1-0.2-0.2-0.2-0.3
				c0-1.4,0-2.7-0.1-4.1c0-0.1,0-0.1,0-0.1C12.9,7.2,13,7,13.1,7l0.2-0.2c0.1,0.2,0.3,0.3,0.3,0.5C13.5,7.9,13.5,8.6,13.5,9.3
				L13.5,9.3z"/>
			<path id="Tracciato_56" class="st0" d="M34.4,11L34.4,11L34.4,11c0,0.1,0,0.2,0,0.3l0,0c0,0.1,0,0.2,0,0.3l0,0l0,0l0,0v-0.1
				l-0.3,0.1l0,0l0,0c0,0.1,0,0.2,0,0.3l0.1-0.1c0,0.1-0.1,0.1-0.1,0.1l0,0h-0.1H34c-0.1,0-0.1,0-0.2,0s-0.1,0-0.1,0
				c-0.1,0-0.1,0-0.1-0.1c0,0,0,0-0.1,0c-0.1,0-0.1-0.1-0.1-0.1s-0.1-0.1-0.1-0.2c0-0.3,0-0.6,0-0.9c0-0.8,0-1.7,0-2.5
				c0-0.2,0-0.5,0.1-0.9V7.2c0.1-0.4,0.6-0.3,0.6,0c0,0.7,0,1.7,0,2.5c0,0.1,0,0.3,0,0.4c0,0.2,0,0.5,0,0.7v0.4l0.1-0.1v0.1l0.1-0.1
				l0,0V11l0,0L34.4,11z"/>
			<path id="Tracciato_57" class="st0" d="M34.4,11.6L34.4,11.6l0.1-0.1L34.4,11.6C34.5,11.6,34.4,11.6,34.4,11.6z"/>
			<path id="Tracciato_58" class="st0" d="M34.7,11.3L34.7,11.3v0.3l0,0l0,0h-0.1l0,0l0,0l0,0v-0.5l0,0l0.1-0.1V11L34.7,11.3
				L34.7,11.3C34.7,11.2,34.7,11.2,34.7,11.3z"/>
			<path id="Tracciato_59" class="st0" d="M35.1,9.9l-0.1,1.8l0,0l0,0l0,0l-0.5,0.1c0-0.1-0.1-0.1-0.1-0.1l0.5-0.1L35,11l0,0v-0.1
				l0,0c0-0.1,0-0.1,0-0.1v-0.1v-0.1v-0.1c0-0.1,0-0.1,0-0.3v-0.1l0,0l-0.1,0.1l-0.1,0.1l0,0l0.1-0.1l0,0l0.1-0.1V10L35.1,9.9
				C35.1,9.9,35.1,9.9,35.1,9.9z"/>
			<path id="Tracciato_60" class="st0" d="M32.4,1.5c-0.1,0.1-0.1,0.3-0.2,0.4C32.1,2,32,2,31.8,2l0,0c-0.1,0.1-0.1,0.1-0.2,0.1
				c-0.7,0.1-1.4,0.3-2,0.8V3l0,0l0,0l0,0h-0.1l-0.2,0.1h-0.1L29,3.3c0.5-0.3,1-0.7,1.6-1.1C30.8,2.1,30.9,2,31,2l0,0
				C31.4,1.9,31.9,1.7,32.4,1.5z"/>
			<path id="Tracciato_61" class="st0" d="M35,10.1L35,10.1l-0.1,0.1h-0.1v0.1l-0.2,0.3l-0.1,0.1l0.1-0.1v0.2l-0.1,0.1v-0.1L34.3,11
				c0,0,0,0,0,0.1l0,0c0,0.1,0,0.1,0,0.3l0,0v0.3l0,0l0.1-0.1l0,0v-0.2l0.1-0.1l0,0l0,0l0.1-0.1V11l0.1,0.2v0.1l0,0V11l0.1-0.1l0,0
				l0,0V11l0,0V11l0,0c0-0.1,0-0.1,0-0.1v-0.1v-0.1v-0.1c0-0.1,0-0.1,0-0.3v-0.1l0,0L35,10.1z M34.9,10.5L34.9,10.5l-0.1,0.1v-0.2
				l0.1-0.1V10.5z"/>
			<path id="Tracciato_62" class="st0" d="M11.8,12.3L11.8,12.3C11.8,12.4,11.8,12.4,11.8,12.3z"/>
			<path id="Tracciato_63" class="st0" d="M11.9,12.6C11.9,12.6,11.9,12.5,11.9,12.6L11.9,12.6z"/>
			<path id="Tracciato_64" class="st0" d="M9.4,5.4L9.4,5.4L9.4,5.4z"/>
			<path id="Tracciato_65" class="st0" d="M8.8,5.2L8.8,5.2L8.8,5.2z"/>
			<path id="Tracciato_66" class="st0" d="M33.8,2.5L33.8,2.5L33.8,2.5L33.8,2.5z"/>
		</g>
		<path id="Tracciato_67" class="st0" d="M17.1,11.6H17h-0.1C17.1,11.6,17.1,11.6,17.1,11.6z"/>
		<path id="Tracciato_68" class="st0" d="M29.2,11.7l-0.1-0.1c-0.3-0.4-1-1.6-1-1.6c0.1,0.6,0.5,1.1,0.9,1.6
			C29.1,11.6,29.1,11.7,29.2,11.7c0,0.2-0.1,0.3-0.2,0.3C29.2,12,29.3,11.8,29.2,11.7z M29.3,10.2c-0.2,0.1-0.3,0.1-0.5,0
			S28.9,10.4,29.3,10.2L29.3,10.2L29.3,10.2L29.3,10.2z M29.3,12.6L29.3,12.6c-0.1,0-0.1,0.1-0.2,0.1H29h0.1l0.2,0.1l0,0h0.1l0,0
			v-0.1H29.3L29.3,12.6z M29.3,12.4h-0.1H29h-0.1v0.1l0,0c0.1,0,0.2,0,0.3,0L29.3,12.4L29.3,12.4L29.3,12.4L29.3,12.4z"/>
		<path id="Tracciato_69" class="st0" d="M28,11.1"/>
		<path id="Tracciato_70" class="st0" d="M29.4,5v0.1l0,0h-0.1l0,0C29.1,5.2,28.6,5,28.7,5C29,5.1,29.2,5.1,29.4,5L29.4,5L29.4,5
			L29.4,5z"/>
		<path id="Tracciato_71" class="st0" d="M29,12L29,12c-0.3,0-0.9-0.9-1.1-1.3l0,0v-0.1c-0.1-0.3-0.1-0.7-0.1-0.7l0.3,0.1
			c0,0,0.7,1.2,1,1.6l0.1,0.1C29.3,11.8,29.2,12,29,12z"/>
		<path id="Tracciato_72" class="st0" d="M29.6,6.9v0.3v0.5v0.3l0,0c0,0.1-0.1,0.3-0.1,0V7.7c0-0.2,0-0.3,0-0.5
			C29.6,7.1,29.6,7,29.6,6.9L29.6,6.9z"/>
		<path id="Tracciato_73" class="st0" d="M29.7,4.1v0.4L29.6,7v0.3v0.5v0.3l0,0l-0.1,3.1l0,0v1.2l-0.1,0.1l-0.1,0.1V4.3L29.7,4.1z"
			/>
		<path id="Tracciato_74" class="st0" d="M34.4,11.9C34.4,12,34.4,12,34.4,11.9L34.4,11.9z M35.1,9.3H35l0,0l0,0l-0.1,0.8l0,0
			l-0.1,0.1v-0.1V9.5l0,0l0,0l0,0h-0.1l0,0l0,0l0,0l-0.1,0.8v0.1l-0.1,0.1l0,0l0,0l0.1-0.7l0,0l0,0l0,0h-0.1l0,0l0,0l0,0l-0.1,0.9
			l-0.2,0.1l0.1-1l0,0l0,0c0,0.3-0.1,0.7-0.1,1.1c0,0.1,0,0.2,0,0.3l0,0c0,0.1,0,0.1,0,0.1l0,0l0,0v0.1c0,0.1,0,0.1,0,0.1l0,0l0,0
			l0,0l0.1-0.1v0.1l0,0l0,0h0.1l0,0l0,0l0,0v-0.1l0,0v-0.2l0.1-0.1l0,0v0.5l0,0l0,0h0.1c0,0,0,0,0.1,0l0,0l0,0v-0.3l0,0v-0.3
			l0.1-0.1l0,0l0,0V11l0,0l-0.1,0.7l-0.5,0.1h-0.1l-0.1,0.1l0,0c0,0.1,0,0.1,0,0.1s0,0,0,0.1h0.1l0.3-0.1l0.5-0.1l0,0l0,0l0,0L35,10
			L35.1,9.3L35.1,9.3L35.1,9.3z M34.1,11.3L34.1,11.3v-0.2l0.1-0.1v0.1l0,0v0.1l0,0L34.1,11.3z M34.5,11v-0.1v-0.1l0.1-0.1l0.1-0.1
			v0.2L34.5,11z M34.9,10.6l-0.1,0.1v-0.2l0.1-0.1V10.6L34.9,10.6z"/>
		<path id="Tracciato_75" class="st0" d="M29.4,5.5L29.4,5.5L29.4,5.5L29.4,5.5c-0.5,0.4-1.2,0-0.9,0.1C28.8,5.6,29.1,5.5,29.4,5.5
			L29.4,5.5L29.4,5.5L29.4,5.5z"/>
		<path id="Tracciato_76" class="st0" d="M29.4,6.2L29.4,6.2L29.4,6.2C28.6,6.4,28.1,6,28.5,6C28.8,6,29.1,6,29.3,6l0,0h0.1h0.1
			C29.5,6,29.6,6.1,29.4,6.2z"/>
		<path id="Tracciato_77" class="st0" d="M29.4,6.6L29.4,6.6L29.4,6.6c-0.6,0.1-0.8,0-0.8-0.1c0.3,0.1,0.5,0,0.7-0.1l0,0l0,0h0.1
			C29.5,6.6,29.5,6.6,29.4,6.6z"/>
		<path id="Tracciato_78" class="st0" d="M29.5,10.1c-0.1,0.1-0.1,0.1-0.1,0.1l0,0h-0.1c-0.3,0.1-0.7-0.1-0.5-0.1c0.2,0,0.3,0,0.5,0
			h0.1L29.5,10.1z"/>
		<path id="Tracciato_79" class="st0" d="M29.4,12.4L29.4,12.4L29.4,12.4h-0.1h-0.1c-0.1,0-0.2,0-0.3,0l0,0c-0.1,0-0.1-0.1,0-0.1
			l0,0h0.1c0.1,0,0.1,0,0.1,0L29.4,12.4L29.4,12.4L29.4,12.4c0.1-0.1,0.1-0.1,0.1-0.1C29.5,12.3,29.5,12.4,29.4,12.4z"/>
		<path id="Tracciato_80" class="st0" d="M29.4,12.7L29.4,12.7L29.4,12.7h-0.2h-0.1l0,0c-0.1,0-0.2,0-0.3,0c-0.2,0-0.3-0.1-0.3-0.1
			c0.1,0,0.3,0,0.4,0l0,0H29c0.1,0,0.1-0.1,0.2-0.1l0,0h0.1l0,0h0.1l0,0C29.4,12.6,29.4,12.7,29.4,12.7z"/>
		<path id="Tracciato_81" class="st0" d="M29.4,4.7L29.4,4.7L29.4,4.7L29.4,4.7c-0.4,0.1-0.5,0-0.6,0C29,4.7,29.1,4.7,29.4,4.7
			L29.4,4.7L29.4,4.7L29.4,4.7L29.4,4.7C29.4,4.7,29.4,4.7,29.4,4.7z"/>
		<g id="Raggruppa_157">
			<path id="Tracciato_82" class="st0" d="M34.1,4.1L33.5,5c0,0,0,0-0.1,0l-0.1-0.1c0,0,0,0,0-0.1L34,4c0,0,0,0,0.1,0L34.1,4.1
				L34.1,4.1L34.1,4.1z"/>
			<path id="Tracciato_83" class="st0" d="M35.3,5.2L35.3,5.2L34.7,6c0,0,0,0-0.1,0L34.5,6c0,0,0,0,0-0.1l0,0l0,0l0.7-0.8
				c0,0,0,0,0.1,0L35.3,5.2L35.3,5.2L35.3,5.2z"/>
			<path id="Tracciato_84" class="st0" d="M34.5,4.1l-1,1.3c0,0,0,0-0.1,0l0,0l-0.1-0.1c0,0,0,0,0-0.1l1-1.3c0,0,0,0,0.1,0L34.5,4.1
				C34.5,4.1,34.5,4.1,34.5,4.1z"/>
			<path id="Tracciato_85" class="st0" d="M35.3,4.8L35.3,4.8l-1,1.3c0,0,0,0-0.1,0L34.2,6c0,0,0,0,0-0.1l0,0l1-1.3c0,0,0,0,0.1,0
				L35.3,4.8L35.3,4.8C35.3,4.7,35.3,4.8,35.3,4.8L35.3,4.8z"/>
			<path id="Tracciato_86" class="st0" d="M34.9,4l-1.5,1.8c0,0,0,0-0.1,0l-0.1-0.1c0,0,0,0,0-0.1l0,0l1.5-1.8c0,0,0,0,0.1,0L34.9,4
				L34.9,4z"/>
			<path id="Tracciato_87" class="st0" d="M35.3,4.4l-1.5,1.8c0,0,0,0-0.1,0l0,0l-0.1-0.1c0,0,0,0,0-0.1l1.5-1.8c0,0,0,0,0.1,0l0,0
				L35.3,4.4L35.3,4.4z"/>
			<path id="Tracciato_88" class="st0" d="M35.3,4l-1.8,2.3c0,0,0,0-0.1,0l-0.1-0.1c0,0,0,0,0-0.1l1.8-2.3c0,0,0,0,0.1,0l0,0L35.3,4
				C35.3,3.9,35.3,4,35.3,4z"/>
		</g>
		<path id="Tracciato_89" class="st0" d="M35.1,9.3l-0.1,0.7L35,11.8l0,0l0,0h-0.1l0,0l0,0v-0.1l0.1-0.7l0,0v-0.2l0,0l0,0v-0.3v-0.2
			v-0.2V10L35,9.2l0,0l0,0L35.1,9.3C35.1,9.3,35.1,9.3,35.1,9.3L35.1,9.3L35.1,9.3z"/>
		<path id="Tracciato_90" class="st0" d="M35.1,10.2L35.1,10.2l-0.1,0.1l-0.3,0.3l-0.1,0.1l-0.1,0.1l-0.1,0.1l-0.1,0.2l0,0l0,0l0,0
			l0,0l-0.3,0.3l-0.4,0.4l-0.1,0.1L33.3,12l-0.2,0.2c0,0,0,0-0.1,0l0,0L33,12.2c0,0,0,0,0-0.1l0,0l0,0L35.1,10.2L35.1,10.2
			L35.1,10.2L35.1,10.2L35.1,10.2L35.1,10.2L35.1,10.2L35.1,10.2L35.1,10.2z"/>
		<path id="Tracciato_91" class="st0" d="M35.1,10.6l-0.1,0.1l0,0l0,0l-0.3,0.3l0,0l-0.1,0.1l-0.1,0.1l0,0l-0.1,0.1l-0.1,0.1l0,0
			l0,0L33.6,12c0,0,0,0-0.1,0l0,0V12c0,0,0,0,0-0.1l0,0l0.1-0.1l0.5-0.5l0.1-0.1l0,0l0.1-0.1l0.1-0.1l0,0l0.1-0.1l0,0l0.1-0.1
			l0.1-0.1l0.1-0.2l0.1-0.1l0,0l0,0l0,0l0,0l0.1,0.1C35.1,10.6,35.1,10.6,35.1,10.6L35.1,10.6z"/>
		<path id="Tracciato_92" class="st0" d="M34.9,9.5l-0.1,0.6v0.1v0.1v0.2v0.2v0.2v0.3l0,0v0.3l0,0l0,0h-0.1l0,0l0,0v-0.5l0,0v-0.3
			v-0.2v-0.1v-0.2v-0.1l0.1-0.8l0,0l0,0l0,0L34.9,9.5L34.9,9.5L34.9,9.5L34.9,9.5z"/>
		<path id="Tracciato_93" class="st0" d="M34.5,9.8l-0.1,0.7l0,0l0,0v0.3v0.1V11v0.3v0.2l0,0v0.1l0,0h-0.1l0,0l0,0v-0.1v-0.3l0,0
			v-0.1l0,0V11v-0.1v-0.1V9.8l0,0L34.5,9.8L34.5,9.8z"/>
		<path id="Tracciato_94" class="st0" d="M34.2,9.8v1V11l0,0l0,0v0.2v0.1v0.3l0,0l0,0h-0.1l0,0l0,0v-0.1v-0.2l0,0V11L34.2,9.8
			L34.2,9.8L34.2,9.8L34.2,9.8L34.2,9.8L34.2,9.8L34.2,9.8z"/>
		<path id="Tracciato_95" class="st0" d="M35,11.8L35,11.8l-0.5,0.1L34.2,12h-0.1H34L33.7,12l0,0l-1.2,0.3c0,0,0,0-0.1,0l0,0l0,0
			v-0.1c0,0,0,0,0-0.1l0,0l0,0l0.4-0.1l0.3-0.1l0.3-0.1h0.1h0.1l0.2-0.1l0.3-0.1h0.1l0,0l0.1-0.1h0.1l0.5-0.1h0.1l0,0l0,0L35,11.8
			C34.9,11.8,35,11.8,35,11.8z"/>
	</g>
	<g id="LEGAMI_ARTISTICI_NELL_APPIO_TUSCOLANO">
		<g>
			<path class="st1" d="M4,17.3v-1h0.1v0.9h0.6v0.1H4z"/>
			<path class="st1" d="M4.8,17.3v-1h0.7v0.1H5v0.3h0.5v0.1H5v0.3h0.6v0.1L4.8,17.3L4.8,17.3z"/>
			<path class="st1" d="M5.7,16.8L5.7,16.8c-0.1-0.3,0.1-0.5,0.4-0.5c0,0,0,0,0.1,0c0.2,0,0.4,0.1,0.5,0.3H6.5
				c0-0.1-0.1-0.3-0.3-0.3c-0.3,0-0.3,0.2-0.3,0.4l0,0c0,0.2,0.1,0.4,0.3,0.4c0.1,0,0.3-0.1,0.3-0.3c0,0,0,0,0-0.1l0,0H6.2v-0.1h0.4
				v0.5H6.5v-0.1v-0.1V17l0,0v0.1c-0.1,0.1-0.2,0.2-0.3,0.2C5.8,17.4,5.6,17.1,5.7,16.8L5.7,16.8z"/>
			<path class="st1" d="M6.7,17.3l0.5-1h0.2l0.5,1H7.6L7.5,17H7l-0.1,0.3H6.7z M7,17h0.4l-0.2-0.5l0,0L7,17z"/>
			<path class="st1" d="M7.8,17.3v-1h0.3l0.3,0.9l0,0l0.3-0.9h0.2v1H8.7v-0.9l0,0l-0.3,0.9H8.2l-0.3-0.9l0,0v0.9H7.8z"/>
			<path class="st1" d="M9.1,17.3v-1h0.1v1H9.1z"/>
			<path class="st1" d="M9.6,17.3l0.4-1h0.2l0.4,1h-0.1L10.4,17H9.9l-0.1,0.3H9.6z M10,17h0.4l-0.2-0.5l0,0L10,17z"/>
			<path class="st1" d="M10.8,17.3v-1h0.5c0.2,0,0.3,0.1,0.3,0.3c0,0.1-0.1,0.3-0.2,0.3l0.2,0.5h-0.1L11.2,17H11v0.4L10.8,17.3z
				 M10.9,16.8h0.3c0.1,0,0.2-0.1,0.2-0.2s-0.1-0.2-0.2-0.2H11L10.9,16.8L10.9,16.8z"/>
			<path class="st1" d="M12,17.3v-0.9h-0.3v-0.1h0.9v0.1h-0.3v0.9H12z"/>
			<path class="st1" d="M12.6,17.3v-1h0.1v1H12.6z"/>
			<path class="st1" d="M12.9,17h0.1c0,0.1,0.1,0.2,0.3,0.2s0.3-0.1,0.3-0.2c0-0.1-0.1-0.1-0.2-0.2h-0.1c-0.3-0.1-0.3-0.1-0.3-0.3
				c0-0.1,0.1-0.3,0.4-0.3s0.4,0.1,0.4,0.3h-0.1c0-0.1-0.1-0.2-0.2-0.2s-0.3,0.1-0.3,0.1c0,0.1,0.1,0.1,0.2,0.2h0.1
				c0.3,0.1,0.3,0.1,0.3,0.3s-0.1,0.3-0.4,0.3C13.1,17.4,12.9,17.2,12.9,17z"/>
			<path class="st1" d="M14.2,17.3v-0.9h-0.3v-0.1h0.8v0.1h-0.3v0.9H14.2z"/>
			<path class="st1" d="M14.8,17.3v-1h0.1v1H14.8z"/>
			<path class="st1" d="M15,16.8L15,16.8c0-0.3,0.2-0.5,0.5-0.5c0,0,0,0,0.1,0c0.2,0,0.4,0.1,0.5,0.3h-0.1c0-0.1-0.1-0.3-0.3-0.2
				c-0.3,0-0.3,0.2-0.3,0.4l0,0c0,0.2,0.1,0.4,0.3,0.4c0.1,0,0.3-0.1,0.3-0.2H16c-0.1,0.2-0.3,0.4-0.5,0.3
				C15.2,17.4,15,17.1,15,16.8L15,16.8z"/>
			<path class="st1" d="M16.1,17.3v-1h0.2v1H16.1z"/>
			<path class="st1" d="M16.7,17.3v-1h0.2l0.5,0.8l0,0v-0.8h0.1v1h-0.2l-0.5-0.8l0,0v0.8H16.7z"/>
			<path class="st1" d="M17.7,17.3v-1h0.8v0.1h-0.6v0.3h0.5v0.1h-0.5v0.3h0.6v0.1L17.7,17.3L17.7,17.3z"/>
			<path class="st1" d="M18.7,17.3v-1h0.1v0.9h0.6v0.1H18.7z"/>
			<path class="st1" d="M19.6,17.3v-1h0.1v0.9h0.6v0.1H19.6z"/>
			<path class="st1" d="M20.2,16.6c0.1,0,0.1-0.1,0.1-0.1l0,0h-0.1v-0.1h0.2v0.2c0,0.1-0.1,0.2-0.1,0.2c0,0,0,0-0.1,0
				C20.2,16.7,20.2,16.6,20.2,16.6z"/>
			<path class="st1" d="M20.4,17.3l0.4-1H21l0.4,1h-0.1L21.1,17h-0.5l-0.1,0.3H20.4z M20.6,17H21l-0.2-0.5l0,0L20.6,17z"/>
			<path class="st1" d="M21.4,17.3v-1h0.5c0.2,0,0.3,0.1,0.3,0.3S22.1,17,21.9,17h-0.3v0.4L21.4,17.3z M21.6,16.8h0.3
				c0.1,0,0.2-0.1,0.2-0.2s-0.1-0.2-0.2-0.2h-0.3V16.8z"/>
			<path class="st1" d="M22.5,17.3v-1h0.5c0.2,0,0.3,0.1,0.3,0.3S23.1,17,22.9,17h-0.3v0.4L22.5,17.3z M22.6,16.8h0.3
				c0.1,0,0.2-0.1,0.2-0.2s-0.1-0.2-0.2-0.2h-0.3V16.8z"/>
			<path class="st1" d="M23.4,17.3v-1h0.1v1H23.4z"/>
			<path class="st1" d="M23.7,16.8L23.7,16.8c0-0.3,0.2-0.5,0.5-0.5c0.3,0,0.5,0.2,0.5,0.5v0.1l0,0c0,0.3-0.2,0.5-0.5,0.5
				C23.9,17.4,23.7,17.2,23.7,16.8C23.7,16.8,23.7,16.8,23.7,16.8z M24.5,16.8L24.5,16.8c0-0.2-0.1-0.4-0.3-0.4s-0.3,0.2-0.3,0.4
				l0,0c0,0.2,0.1,0.4,0.3,0.4C24.4,17.2,24.5,17,24.5,16.8L24.5,16.8z"/>
			<path class="st1" d="M25.4,17.3v-0.9H25v-0.1h0.9v0.1h-0.3v0.9H25.4z"/>
			<path class="st1" d="M26,16.9v-0.6h0.1v0.6c0,0.2,0.1,0.3,0.3,0.3c0.1,0,0.3-0.1,0.3-0.3c0,0,0,0,0-0.1v-0.6h0.1v0.6
				c0,0.3-0.2,0.4-0.4,0.4C26.2,17.3,26,17.1,26,16.9z"/>
			<path class="st1" d="M27,17h0.1c0,0.1,0.1,0.2,0.3,0.2s0.3-0.1,0.3-0.2c0-0.1-0.1-0.1-0.2-0.2h-0.1c-0.3-0.1-0.3-0.1-0.3-0.3
				c0-0.1,0.1-0.3,0.4-0.3s0.4,0.1,0.4,0.3h-0.1c0-0.1-0.1-0.2-0.2-0.2s-0.3,0.1-0.3,0.1c0,0.1,0.1,0.1,0.2,0.2h0.1
				c0.3,0.1,0.3,0.1,0.3,0.3s-0.1,0.3-0.4,0.3C27.2,17.3,27,17.2,27,17z"/>
			<path class="st1" d="M27.9,16.8L27.9,16.8c0-0.3,0.2-0.5,0.5-0.5c0,0,0,0,0.1,0c0.2,0,0.4,0.1,0.5,0.3h-0.2
				c0-0.1-0.1-0.3-0.3-0.2c-0.3,0-0.3,0.2-0.3,0.4l0,0c0,0.2,0.1,0.4,0.3,0.4c0.1,0,0.3-0.1,0.3-0.2h0.1c0,0.2-0.2,0.4-0.5,0.3
				C28.1,17.4,27.9,17.1,27.9,16.8L27.9,16.8z"/>
			<path class="st1" d="M28.9,16.8L28.9,16.8c0-0.3,0.1-0.5,0.4-0.5c0,0,0,0,0.1,0c0.3,0,0.5,0.2,0.5,0.5v0.1l0,0
				c0.1,0.3-0.1,0.5-0.4,0.5h-0.1C29.1,17.4,28.9,17.1,28.9,16.8L28.9,16.8z M29.7,16.8L29.7,16.8c0-0.2-0.1-0.4-0.3-0.4
				s-0.3,0.2-0.3,0.4l0,0c0,0.2,0.1,0.4,0.3,0.4C29.6,17.2,29.7,17,29.7,16.8L29.7,16.8z"/>
			<path class="st1" d="M30,17.3v-1h0.1v0.9h0.6v0.1H30z"/>
			<path class="st1" d="M30.8,17.3l0.4-1h0.2l0.4,1h-0.1L31.6,17h-0.5L31,17.3H30.8z M31.2,17h0.4l-0.2-0.5l0,0L31.2,17z"/>
			<path class="st1" d="M32,17.3v-1h0.2l0.5,0.8l0,0v-0.8h0.1v1h-0.2l-0.5-0.8l0,0v0.8H32z"/>
			<path class="st1" d="M32.9,16.8L32.9,16.8c0-0.3,0.2-0.5,0.5-0.5c0,0,0,0,0.1,0c0.3,0,0.5,0.2,0.5,0.5c0,0,0,0,0,0.1l0,0
				c0,0.3-0.1,0.5-0.4,0.5h-0.1C33.1,17.4,32.9,17.1,32.9,16.8L32.9,16.8z M33.7,16.8L33.7,16.8c0-0.2-0.1-0.4-0.3-0.4
				c-0.2,0-0.3,0.2-0.3,0.4l0,0c0,0.2,0.1,0.4,0.3,0.4S33.7,17,33.7,16.8L33.7,16.8z"/>
		</g>
	</g>
</g>
</svg>
