<?xml version="1.0" encoding="utf-8"?>
<!-- Generator: Adobe Illustrator 26.0.3, SVG Export Plug-In . SVG Version: 6.00 Build 0)  -->
<svg version="1.1" id="Livello_1" xmlns="http://www.w3.org/2000/svg" xmlns:xlink="http://www.w3.org/1999/xlink" x="0px" y="0px"
	 viewBox="0 0 31.3 31.3" style="enable-background:new 0 0 31.3 31.3;" xml:space="preserve">
<style type="text/css">
	.st0{opacity:0.49;fill:#191411;stroke:#191411;stroke-width:0.8;enable-background:new    ;}
	.st1{opacity:0.41;fill:#191411;stroke:#191411;stroke-width:0.8;enable-background:new    ;}
	.st2{opacity:0.51;fill:#191411;stroke:#191411;stroke-width:0.8;enable-background:new    ;}
	.st3{opacity:0.53;fill:#191411;stroke:#191411;stroke-width:0.8;enable-background:new    ;}
	.st4{fill:#191411;stroke:#191411;stroke-width:0.8;}
</style>
<g id="book" transform="translate(0.4 0.432)">
	<path id="Tracciato_1" class="st0" d="M26.3,26.3L26.3,26.3z"/>
	<path id="Tracciato_2" class="st0" d="M28,24.5L28,24.5L28,24.5C28,24.5,28,24.5,28,24.5z"/>
	<path id="Tracciato_3" class="st1" d="M15.8,22.2C15.8,22.2,15.9,22.2,15.8,22.2L15.8,22.2z M15.8,22.2
		C15.8,22.2,15.9,22.2,15.8,22.2L15.8,22.2z M15.8,22.2C15.8,22.2,15.9,22.2,15.8,22.2L15.8,22.2z M15.8,22.2
		C15.8,22.2,15.9,22.2,15.8,22.2L15.8,22.2z M15.8,22.2C15.8,22.2,15.9,22.2,15.8,22.2L15.8,22.2z M15.8,22.2
		C15.8,22.2,15.9,22.2,15.8,22.2L15.8,22.2z M15.8,22.2C15.8,22.2,15.9,22.2,15.8,22.2L15.8,22.2z M15.8,22.2
		C15.8,22.2,15.9,22.2,15.8,22.2L15.8,22.2z M15.8,22.2C15.8,22.2,15.9,22.2,15.8,22.2L15.8,22.2z"/>
	<path id="Tracciato_4" class="st1" d="M16.6,7.7L16.6,7.7L16.6,7.7L16.6,7.7z M16.6,7.7L16.6,7.7L16.6,7.7L16.6,7.7z"/>
	<path id="Tracciato_5" class="st2" d="M15.6,23.3c0,0-0.1,0-0.1,0.1l0,0h0l0,0L15.6,23.3z"/>
	<path id="Tracciato_6" class="st2" d="M22.7,19.9C22.6,19.9,22.6,19.9,22.7,19.9C22.6,19.9,22.6,19.9,22.7,19.9L22.7,19.9
		L22.7,19.9z"/>
	<path id="Tracciato_7" class="st2" d="M15.9,22.2C15.9,22.2,15.8,22.2,15.9,22.2L15.9,22.2z"/>
	<path id="Tracciato_8" class="st3" d="M15.9,22.2C15.9,22.2,15.8,22.2,15.9,22.2L15.9,22.2z"/>
	<g id="Raggruppa_44" transform="translate(0 0)">
		<path id="Tracciato_9" class="st4" d="M28.6,10L28.6,10l0,14.5c0,0,0,0,0,0c0,1-0.8,1.7-1.7,1.7H3.7c-1,0-1.7-0.8-1.7-1.7
			c0,0,0,0,0,0V10h0c0,0,0,0,0-0.1c0-0.2,0.2-0.4,0.4-0.4h1.5C4,9.6,4.2,9.8,4.2,10c0,0.2-0.2,0.3-0.3,0.3H2.7v14.2l0,0c0,0,0,0,0,0
			c0,0.5,0.4,1,1,1c0,0,0,0,0,0h0l0,0h23.2l0,0h0c0.5,0,1-0.4,1-1c0,0,0,0,0,0c0,0,0,0,0,0l0,0V10.4h-1.2c-0.2,0-0.4-0.2-0.3-0.4
			c0-0.2,0.2-0.3,0.3-0.3h1.5C28.4,9.6,28.6,9.8,28.6,10C28.6,10,28.6,10,28.6,10z"/>
		<path id="Tracciato_10" class="st4" d="M22.9,19.5C22.9,19.6,22.9,19.6,22.9,19.5c0,0.2-0.1,0.3-0.2,0.4l0,0l0,0
			c-0.2,0.1-0.5,0.2-0.9,0.4c-1.8,0.7-3.6,1.6-5.4,2.5c-0.2,0.1-0.5,0.3-0.7,0.4l-0.1,0.1l0,0c0,0-0.1,0-0.1,0
			c-0.2,0-0.4-0.1-0.4-0.3l0,0V9.3l0-0.7c0-0.2-0.1-0.2-0.2-0.3c-1.2-0.4-2.5-0.6-3.8-0.5C9.4,7.9,8,8.1,6.7,8.4
			C6.4,8.5,6.4,8.7,6.4,8.7v15C6.3,24.1,6.6,24,6.6,24c1.4-0.4,2.8-0.6,4.3-0.6c1.3-0.2,2.6,0,3.8,0.5c0.2,0.1,0.2,0.3,0.1,0.5
			c-0.1,0.1-0.2,0.2-0.4,0.2c-1-0.4-2.1-0.5-3.2-0.4c-1.7,0.1-3.3,0.3-4.9,0.7c-0.6,0.2-0.7-0.3-0.7-0.4V8.4c0-0.4,0.3-0.4,0.5-0.5
			C7.7,7.4,9.3,7.2,11,7.2c1.4-0.1,2.7,0.1,4,0.5l0.1,0C15.6,8,15.6,8,15.6,8.2v13.9c0,0.1,0.1,0.1,0.1,0.1c0,0,0,0,0,0c0,0,0,0,0,0
			c0,0,0,0,0,0l0,0c1.9-1.1,3.9-2,6-2.8l0,0c0,0,0,0,0,0l0,0c0,0,0.1-0.1,0.1-0.1l0,0c0,0,0,0,0,0c0,0,0,0,0,0l0,0
			c0-1.3-0.1-12.2-0.1-14c0,0,0,0,0,0s0,0,0,0c0,0,0,0,0,0c0-0.1-0.1-0.1-0.1-0.1h0c0,0,0,0,0,0c0,0,0,0,0,0
			c-1.3,0.6-2.6,1.2-3.8,1.9c-0.4,0.3-0.9,0.5-1.2,0.7l0,0l0,0c-0.2,0.1-0.4,0-0.5-0.2c-0.1-0.2,0-0.4,0.1-0.5l0,0
			c0.4-0.2,0.8-0.4,1.2-0.7c1.3-0.7,2.6-1.4,3.9-1.9c0.3-0.1,0.6-0.2,0.9-0.3l0,0c0,0,0.1,0,0.1,0c0.2,0,0.4,0.2,0.4,0.4l0,0
			c0,0.3,0,0.6,0,1c0,3.3,0.1,10.7,0.2,13.4C22.9,19.2,22.9,19.4,22.9,19.5L22.9,19.5z"/>
		<path id="Tracciato_11" class="st4" d="M25.7,22.5c0,0.6-0.3,0.6-0.3,0.6c-0.2,0.1-0.4,0.2-0.6,0.3c-2.3,0.5-4.6,0.9-7,1
			c-0.2,0.1-0.4-0.1-0.5-0.3c0,0,0,0,0,0c0-0.2,0.1-0.4,0.3-0.5c0,0,0.1,0,0.1,0c2.4-0.2,4.7-0.5,7-1.1c0.1-0.1,0.2-0.2,0.3-0.3
			l0-14.1c0,0,0-0.3-0.2-0.2C24.4,8,24.4,8,23.9,8.1l-0.2-0.8C24.2,7.2,24.5,7.2,25,7c0.7-0.2,0.7,0.2,0.7,0.4S25.7,22.5,25.7,22.5z
			"/>
		<g id="Raggruppa_42" transform="translate(15.013 5.17)">
			<path id="Tracciato_12" class="st4" d="M5.3,4.3c0.1,0.2,0,0.3-0.1,0.4c0,0,0,0,0,0l0,0C4.2,5,3.2,5.4,2.4,5.9l0,0c0,0,0,0-0.1,0
				C2.2,6,2,5.9,2,5.7c-0.1-0.1,0-0.3,0.1-0.4l0,0c0.9-0.6,1.8-1,2.8-1.2l0,0C5.1,4.1,5.3,4.2,5.3,4.3z"/>
			<path id="Tracciato_13" class="st4" d="M5.3,7.7c0.1,0.2,0,0.3-0.1,0.4c0,0,0,0,0,0l0,0c-1,0.2-1.9,0.6-2.7,1.1l0,0
				c0,0,0,0-0.1,0C2.2,9.3,2,9.2,2,9c-0.1-0.1,0-0.3,0.1-0.4l0,0c0.9-0.6,1.8-1,2.8-1.2l0,0C5.1,7.4,5.3,7.5,5.3,7.7z"/>
			<path id="Tracciato_14" class="st4" d="M5.3,11c0.1,0.2,0,0.3-0.1,0.4c0,0,0,0,0,0l0,0c-1,0.2-1.9,0.6-2.7,1.1l0,0c0,0,0,0-0.1,0
				c-0.2,0-0.3-0.1-0.4-0.2c-0.1-0.1,0-0.3,0.1-0.4l0,0c0.9-0.6,1.8-1,2.8-1.2l0,0C5.1,10.8,5.3,10.9,5.3,11z"/>
		</g>
		<g id="Raggruppa_43" transform="translate(6.624 7.511)">
			<path id="Tracciato_15" class="st4" d="M6.2,4.6c0,0.2-0.1,0.4-0.3,0.4c0,0,0,0-0.1,0l0,0C4.7,4.8,3.5,4.8,2.4,5.1l0,0
				c0,0-0.1,0-0.1,0c-0.2,0-0.3-0.2-0.3-0.4c0-0.2,0.1-0.3,0.3-0.4v0c1.2-0.2,2.4-0.3,3.7-0.1l0,0C6.1,4.2,6.2,4.4,6.2,4.6z"/>
			<path id="Tracciato_16" class="st4" d="M6.2,8.3c0,0.2-0.1,0.4-0.3,0.4c0,0,0,0-0.1,0l0,0C4.7,8.5,3.5,8.5,2.4,8.8l0,0
				c0,0-0.1,0-0.1,0c-0.2,0-0.3-0.2-0.3-0.4c0-0.2,0.1-0.3,0.3-0.4v0c1.2-0.2,2.4-0.3,3.7-0.1l0,0C6.1,7.9,6.2,8.1,6.2,8.3z"/>
			<path id="Tracciato_17" class="st4" d="M6.2,12c0,0.2-0.1,0.4-0.3,0.4c0,0,0,0-0.1,0l0,0c-1.2-0.1-2.3-0.1-3.5,0.1l0,0
				c0,0-0.1,0-0.1,0c-0.2,0-0.3-0.2-0.3-0.4c0-0.2,0.1-0.3,0.3-0.4v0c1.2-0.2,2.4-0.3,3.7-0.1l0,0C6.1,11.6,6.2,11.8,6.2,12z"/>
		</g>
		<ellipse id="Ellisse_10" class="st4" cx="23.8" cy="7.7" rx="0.4" ry="0.4"/>
	</g>
</g>
</svg>
