<?xml version="1.0" encoding="UTF-8"?><svg id="a" xmlns="http://www.w3.org/2000/svg" viewBox="0 0 964.65 411.09"><g><path d="M62.22,0V4.67c-5.01,.16-8.81,.74-11.4,1.75-2.59,1.01-4.33,2.88-5.24,5.6-.91,2.72-1.37,6.96-1.37,12.72v115.74c0,5.6,.46,9.8,1.37,12.6,.91,2.8,2.66,4.67,5.24,5.6,2.58,.93,6.38,1.56,11.4,1.87v4.67c-3.65-.31-8.24-.5-13.79-.58-5.55-.08-11.21-.12-16.98-.12-6.38,0-12.35,.04-17.89,.12-5.55,.08-10.07,.27-13.56,.58v-4.67c5.16-.31,9.04-.93,11.62-1.87,2.58-.93,4.29-2.8,5.13-5.6,.83-2.8,1.25-7,1.25-12.6V24.73c0-5.76-.42-9.99-1.25-12.72-.84-2.72-2.59-4.59-5.24-5.6-2.66-1.01-6.5-1.59-11.51-1.75V0C3.49,.16,8.01,.31,13.56,.47c5.54,.16,11.51,.23,17.89,.23,5.77,0,11.43-.08,16.98-.23,5.54-.15,10.14-.31,13.79-.47Z"/><path d="M141.61,55.07v3.11c-3.44,.11-6.05,.49-7.83,1.17-1.77,.68-2.96,1.92-3.57,3.73-.61,1.82-.91,4.64-.91,8.48v77.78c0,3.53,.28,6.17,.84,7.93,.56,1.76,1.67,2.93,3.34,3.5,1.67,.57,4.08,.86,7.22,.86h9.88c5.87,0,10.53-1.11,13.98-3.34,3.44-2.23,6.08-5.62,7.9-10.19,1.82-4.56,3.14-10.37,3.95-17.42h3.49c-.3,3.32-.46,7.68-.46,13.07,0,2.08,.08,5.11,.23,9.1,.15,3.99,.43,8.12,.84,12.37-5.17-.21-10.99-.34-17.47-.39-6.48-.05-12.26-.08-17.32-.08h-12.53c-5.22,0-10.79,.03-16.71,.08-5.93,.05-11.47,.18-16.64,.39v-3.11c3.44-.21,6.03-.62,7.75-1.24,1.72-.62,2.86-1.87,3.42-3.73,.56-1.87,.84-4.67,.84-8.4V71.56c0-3.84-.28-6.66-.84-8.48-.56-1.81-1.72-3.06-3.49-3.73-1.77-.67-4.33-1.06-7.67-1.17v-3.11c2.33,.11,5.34,.21,9.04,.31,3.7,.11,7.67,.16,11.93,.16,3.85,0,7.67-.05,11.47-.16,3.8-.1,6.91-.21,9.34-.31Z"/><path d="M445.1,0V4.67c-5.17,.16-9.04,.74-11.62,1.75-2.59,1.01-4.29,2.88-5.13,5.6-.84,2.72-1.25,6.96-1.25,12.72v115.74c0,5.6,.42,9.8,1.25,12.6,.83,2.8,2.54,4.67,5.13,5.6,2.58,.93,6.46,1.56,11.62,1.87v4.67c-3.8-.31-8.51-.5-14.13-.58-5.62-.08-11.32-.12-17.09-.12-6.38,0-12.39,.04-18,.12-5.62,.08-10.11,.27-13.45,.58v-4.67c5.16-.31,9.08-.93,11.74-1.87,2.66-.93,4.44-2.8,5.36-5.6,.91-2.8,1.37-7,1.37-12.6V12.83l1.14,.47-56.07,152.84h-3.65L283.51,14.93v119.47c0,6.53,.46,11.63,1.37,15.28,.91,3.66,2.88,6.26,5.93,7.82,3.04,1.56,7.67,2.57,13.9,3.03v4.67c-2.89-.31-6.57-.5-11.05-.58-4.48-.08-8.7-.12-12.65-.12s-7.6,.04-11.4,.12c-3.8,.08-6.92,.27-9.34,.58v-4.67c5.01-.47,8.81-1.44,11.4-2.92,2.58-1.48,4.33-4,5.24-7.58,.91-3.58,1.37-8.48,1.37-14.7V24.73c0-5.76-.46-9.99-1.37-12.72-.91-2.72-2.66-4.59-5.24-5.6-2.59-1.01-6.38-1.59-11.4-1.75V0c2.43,.16,5.54,.31,9.34,.47,3.8,.16,7.6,.23,11.4,.23,4.4,0,8.85-.08,13.33-.23,4.48-.15,8.32-.31,11.51-.47l50.37,132.54-4.33,3.03L401.34,.7h12.53c5.77,0,11.47-.08,17.09-.23,5.62-.15,10.33-.31,14.13-.47Z"/><path d="M534.52,52.89c9.93,0,18.66,2.23,26.21,6.69,7.54,4.46,13.39,10.87,17.55,19.21,4.15,8.35,6.23,18.49,6.23,30.41s-2.13,21.78-6.38,30.49c-4.25,8.71-10.18,15.51-17.78,20.38-7.6,4.88-16.26,7.31-25.98,7.31s-18.79-2.23-26.29-6.69c-7.5-4.46-13.32-10.89-17.47-19.29-4.15-8.4-6.23-18.51-6.23-30.33s2.15-21.78,6.46-30.49c4.3-8.71,10.2-15.5,17.7-20.38,7.49-4.87,16.16-7.31,25.98-7.31Zm-.61,2.8c-6.28,0-11.75,2.33-16.41,7-4.66,4.67-8.26,11.1-10.79,19.29-2.53,8.19-3.8,17.68-3.8,28.47s1.42,20.56,4.25,28.7c2.83,8.14,6.69,14.42,11.55,18.82,4.86,4.41,10.28,6.61,16.26,6.61,6.28,0,11.72-2.33,16.33-7,4.61-4.67,8.2-11.12,10.79-19.37,2.58-8.24,3.87-17.71,3.87-28.39s-1.44-20.69-4.33-28.78c-2.89-8.09-6.74-14.34-11.55-18.75-4.81-4.41-10.21-6.61-16.18-6.61Z"/><path d="M708.94,55.07v3.11c-3.44,.21-6.03,.83-7.75,1.87-1.72,1.04-2.86,2.72-3.42,5.05-.56,2.33-.84,5.63-.84,9.88v90.85h-5.01l-64.42-95.83v74.67c0,4.35,.3,7.75,.91,10.19,.61,2.44,1.92,4.18,3.95,5.21,2.03,1.04,5.11,1.71,9.27,2.02v3.11c-1.93-.21-4.38-.34-7.37-.39-2.99-.05-5.8-.08-8.43-.08s-5.07,.03-7.6,.08c-2.53,.05-4.61,.18-6.23,.39v-3.11c3.34-.31,5.87-.96,7.6-1.94,1.72-.98,2.89-2.67,3.49-5.05,.61-2.38,.91-5.65,.91-9.8V71.56c0-3.84-.3-6.66-.91-8.48-.61-1.81-1.77-3.06-3.49-3.73-1.72-.67-4.25-1.06-7.6-1.17v-3.11c1.62,.11,3.7,.21,6.23,.31,2.53,.11,5.06,.16,7.6,.16,2.23,0,4.41-.05,6.53-.16,2.13-.1,4-.21,5.62-.31l55.46,81.2v-60.67c0-4.46-.33-7.88-.99-10.27-.66-2.38-2-4.12-4.03-5.21-2.03-1.09-5.07-1.73-9.12-1.94v-3.11c1.82,.11,4.25,.21,7.29,.31,3.04,.11,5.87,.16,8.51,.16s5.06-.05,7.6-.16c2.53-.1,4.61-.21,6.23-.31Z"/><path d="M778.38,55.07c18.74,0,32.67,4.64,41.78,13.92,9.12,9.28,13.67,22.58,13.67,39.9,0,11.3-2.23,21.18-6.68,29.63-4.46,8.45-10.92,15.01-19.37,19.68-8.46,4.67-18.71,7-30.77,7-2.23,0-5.55-.08-9.95-.23-4.41-.16-8.28-.23-11.62-.23-3.85,0-7.62,.03-11.32,.08-3.7,.05-6.71,.18-9.04,.39v-3.11c3.44-.21,6.03-.62,7.75-1.24,1.72-.62,2.86-1.87,3.42-3.73,.56-1.87,.84-4.67,.84-8.4V71.56c0-3.84-.28-6.66-.84-8.48-.56-1.81-1.72-3.06-3.49-3.73-1.77-.67-4.33-1.06-7.67-1.17v-3.11c2.33,.11,5.34,.23,9.04,.39,3.7,.16,7.37,.18,11.02,.08,3.65-.1,7.72-.21,12.23-.31,4.51-.1,8.18-.16,11.02-.16Zm-2.58,2.8c-4.66,0-7.7,.88-9.12,2.64-1.42,1.76-2.13,5.34-2.13,10.73v77.78c0,5.39,.73,8.97,2.2,10.73,1.47,1.76,4.53,2.64,9.19,2.64,10.23,0,18.18-2.05,23.85-6.14,5.67-4.1,9.67-10.08,12-17.97,2.33-7.88,3.49-17.47,3.49-28.78,0-17.42-2.94-30.39-8.81-38.89-5.88-8.5-16.11-12.76-30.69-12.76Z"/><path d="M914.66,52.89c9.93,0,18.66,2.23,26.21,6.69,7.54,4.46,13.39,10.87,17.55,19.21,4.15,8.35,6.23,18.49,6.23,30.41s-2.13,21.78-6.38,30.49c-4.25,8.71-10.18,15.51-17.78,20.38-7.6,4.88-16.26,7.31-25.98,7.31s-18.79-2.23-26.29-6.69c-7.5-4.46-13.32-10.89-17.47-19.29-4.15-8.4-6.23-18.51-6.23-30.33s2.15-21.78,6.46-30.49c4.3-8.71,10.2-15.5,17.7-20.38,7.49-4.87,16.16-7.31,25.98-7.31Zm-.61,2.8c-6.28,0-11.75,2.33-16.41,7-4.66,4.67-8.26,11.1-10.79,19.29-2.53,8.19-3.8,17.68-3.8,28.47s1.42,20.56,4.25,28.7c2.83,8.14,6.69,14.42,11.55,18.82,4.86,4.41,10.28,6.61,16.26,6.61,6.28,0,11.72-2.33,16.33-7,4.61-4.67,8.2-11.12,10.79-19.37,2.58-8.24,3.88-17.71,3.88-28.39s-1.44-20.69-4.33-28.78c-2.89-8.09-6.74-14.34-11.55-18.75-4.81-4.41-10.21-6.61-16.18-6.61Z"/></g><g><path d="M161.93,243.71v4.67c-5.17,.16-9.08,.74-11.74,1.75-2.66,1.01-4.44,2.88-5.36,5.6-.91,2.72-1.37,6.96-1.37,12.72v116.67c0,5.29,.42,9.26,1.25,11.9,.83,2.65,2.51,4.4,5.01,5.25,2.51,.86,6.11,1.28,10.83,1.28h14.81c8.81,0,15.8-1.67,20.97-5.02,5.16-3.34,9.12-8.44,11.85-15.28,2.74-6.84,4.71-15.55,5.93-26.13h5.24c-.46,4.98-.68,11.51-.68,19.6,0,3.11,.11,7.66,.34,13.65,.23,5.99,.64,12.17,1.25,18.55-7.75-.31-16.49-.5-26.21-.58-9.72-.08-18.39-.12-25.98-.12h-18.8c-7.83,0-16.18,.04-25.07,.12-8.89,.08-17.21,.27-24.96,.58v-4.67c5.16-.31,9.04-.93,11.62-1.87,2.58-.93,4.29-2.8,5.13-5.6,.83-2.8,1.25-7,1.25-12.6v-115.74c0-5.76-.42-9.99-1.25-12.72-.84-2.72-2.59-4.59-5.24-5.6-2.66-1.01-6.5-1.59-11.51-1.75v-4.67c3.49,.16,8.01,.31,13.56,.47,5.54,.16,11.51,.23,17.89,.23,5.77,0,11.51-.08,17.21-.23,5.7-.15,10.37-.31,14.02-.47Z"/><path d="M332.55,298.78c-.41,3.94-.68,7.75-.84,11.43-.15,3.68-.23,6.51-.23,8.48s.05,3.84,.15,5.6c.1,1.76,.2,3.22,.3,4.35h-3.49c-.71-6.64-1.8-11.87-3.27-15.71-1.47-3.83-3.65-6.56-6.53-8.17-2.89-1.61-6.91-2.41-12.08-2.41h-10.48c-3.24,0-5.7,.29-7.37,.86-1.67,.57-2.81,1.71-3.42,3.42s-.91,4.38-.91,8.01v78.4c0,3.53,.3,6.17,.91,7.93,.61,1.76,1.75,2.93,3.42,3.5,1.67,.57,4.13,.86,7.37,.86h9.88c5.77,0,10.36-.93,13.75-2.8,3.39-1.87,5.98-4.92,7.75-9.18,1.77-4.25,3.11-10.06,4.03-17.42h3.49c-.3,3.01-.46,6.95-.46,11.82,0,2.08,.08,5.08,.23,9.02,.15,3.94,.43,7.99,.84,12.13-5.17-.21-10.99-.34-17.47-.39-6.48-.05-12.26-.08-17.32-.08h-12.53c-5.22,0-10.79,.03-16.71,.08-5.93,.05-11.47,.18-16.64,.39v-3.11c3.44-.21,6.03-.62,7.75-1.24,1.72-.62,2.86-1.87,3.42-3.73,.56-1.87,.84-4.67,.84-8.4v-77.16c0-3.84-.28-6.66-.84-8.48-.56-1.81-1.72-3.06-3.49-3.73-1.77-.67-4.33-1.06-7.67-1.17v-3.11c5.17,.11,10.71,.21,16.64,.31,5.93,.11,11.5,.16,16.71,.16h12.53c4.66,0,9.95-.03,15.88-.08,5.93-.05,11.22-.18,15.88-.39Zm-25.22,53.2v3.11h-27.5v-3.11h27.5Zm4.41-20.53c-.41,5.91-.58,10.42-.53,13.53,.05,3.11,.08,5.97,.08,8.56s.05,5.45,.15,8.56c.1,3.11,.35,7.62,.76,13.53h-3.49c-.51-3.42-1.17-6.71-1.98-9.88-.81-3.16-2.26-5.73-4.33-7.7-2.08-1.97-5.29-2.95-9.65-2.95v-3.11c4.35,0,7.52-1.17,9.5-3.5s3.34-5.11,4.1-8.32c.76-3.21,1.39-6.12,1.9-8.71h3.49Z"/><path d="M416.57,296.6c6.69,0,12.1,1.01,16.26,3.03,4.15,2.02,7.95,4.38,11.4,7.08,1.31,1.04,2.33,1.55,3.04,1.55,1.92,0,3.19-3.16,3.8-9.49h3.49c-.2,3.94-.36,8.69-.46,14.23-.1,5.55-.15,12.94-.15,22.17h-3.49c-.71-4.98-1.65-9.59-2.81-13.85-1.17-4.25-3.17-7.88-6-10.89-2.74-3.32-6.31-5.91-10.71-7.78s-8.89-2.8-13.45-2.8c-5.27,0-9.93,1.32-13.98,3.97-4.05,2.65-7.47,6.41-10.26,11.28-2.79,4.88-4.91,10.6-6.38,17.19-1.47,6.59-2.2,13.82-2.2,21.7,0,18.67,2.81,32.33,8.43,40.99,5.62,8.66,14.1,12.99,25.45,12.99,3.24,0,6.05-.47,8.43-1.4,2.38-.93,4.28-1.87,5.7-2.8,1.72-1.24,2.83-2.46,3.34-3.65,.51-1.19,.76-2.77,.76-4.74v-15.09c0-4.46-.38-7.75-1.14-9.88-.76-2.12-2.26-3.58-4.48-4.36-2.23-.78-5.47-1.22-9.72-1.32v-3.11c1.92,.11,4.2,.18,6.84,.23,2.63,.05,5.39,.11,8.28,.16,2.89,.05,5.49,.08,7.82,.08,3.65,0,6.96-.05,9.95-.16,2.99-.1,5.44-.21,7.37-.31v3.11c-3.14,.21-5.17,1.04-6.08,2.49-.91,1.45-1.37,5.08-1.37,10.89v30.8h-3.04c-.1-1.76-.48-3.68-1.14-5.76-.66-2.07-1.65-3.11-2.96-3.11-.71,0-1.44,.15-2.2,.47-.76,.31-2.05,1.09-3.87,2.33-3.55,2.49-7.24,4.49-11.09,5.99-3.85,1.5-8.2,2.26-13.07,2.26-16.41,0-29.07-4.9-37.98-14.7-8.91-9.8-13.37-23.41-13.37-40.83,0-12.03,2.2-22.45,6.61-31.27,4.41-8.81,10.43-15.63,18.08-20.46,7.65-4.82,16.43-7.23,26.36-7.23Z"/><path d="M532.65,298.16l37.07,97.69c1.42,3.84,3.06,6.43,4.94,7.78,1.87,1.35,3.62,2.08,5.24,2.18v3.11c-2.43-.21-5.29-.34-8.58-.39-3.29-.05-6.61-.08-9.95-.08-4.25,0-8.21,.03-11.85,.08-3.65,.05-6.59,.18-8.81,.39v-3.11c5.17-.21,8.43-1.11,9.8-2.72,1.37-1.61,1.04-5.06-.99-10.35l-27.35-75.6,2.43-2.8-25.22,67.51c-2.43,6.22-3.6,11.05-3.49,14.47,.1,3.42,1.29,5.83,3.57,7.23,2.28,1.4,5.55,2.15,9.8,2.26v3.11c-3.04-.21-6.1-.34-9.19-.39-3.09-.05-6-.08-8.74-.08-2.43,0-4.58,.03-6.46,.08-1.88,.05-3.57,.18-5.09,.39v-3.11c2.13-.52,4.25-1.81,6.38-3.89,2.13-2.07,4.15-5.6,6.08-10.58l35.25-93.18h5.17Zm15.95,65.96v3.11h-45.28l1.52-3.11h43.76Z"/><path d="M596.92,298.78c2.33,.11,5.34,.21,9.04,.31,3.7,.11,7.37,.16,11.02,.16,4.86,0,9.5-.05,13.9-.16,4.41-.1,7.52-.15,9.34-.15,12.86,0,22.49,2.52,28.87,7.55,6.38,5.03,9.57,11.54,9.57,19.52,0,3.22-.63,6.61-1.9,10.19-1.27,3.58-3.47,6.9-6.61,9.96-3.14,3.06-7.4,5.58-12.76,7.55-5.37,1.97-12.21,2.95-20.51,2.95h-14.59v-3.11h13.07c6.79,0,11.98-1.17,15.57-3.5,3.59-2.33,6.03-5.44,7.29-9.33,1.27-3.89,1.9-8.22,1.9-12.99,0-8.19-1.72-14.54-5.17-19.06-3.44-4.51-9.42-6.77-17.93-6.77-4.36,0-7.22,.88-8.58,2.65-1.37,1.76-2.05,5.34-2.05,10.73v77.16c0,3.73,.3,6.53,.91,8.4,.61,1.87,1.77,3.11,3.49,3.73,1.72,.62,4.25,1.04,7.6,1.24v3.11c-2.43-.21-5.5-.34-9.19-.39-3.7-.05-7.47-.08-11.32-.08-4.25,0-8.23,.03-11.93,.08-3.7,.05-6.71,.18-9.04,.39v-3.11c3.44-.21,6.03-.62,7.75-1.24,1.72-.62,2.86-1.87,3.42-3.73,.56-1.87,.84-4.67,.84-8.4v-77.16c0-3.84-.28-6.66-.84-8.48-.56-1.81-1.72-3.06-3.49-3.73-1.77-.67-4.33-1.06-7.67-1.17v-3.11Zm25.68,55.22c5.17,.21,9.32,.44,12.46,.7,3.14,.26,5.77,.49,7.9,.7s4.1,.47,5.93,.78c7.6,1.04,13.14,3.11,16.64,6.22,3.49,3.11,5.9,7.88,7.22,14.31l3.8,15.87c.91,4.46,1.9,7.62,2.96,9.49,1.06,1.87,2.66,2.8,4.79,2.8,1.62-.1,2.96-.6,4.03-1.48,1.06-.88,2.2-2.1,3.42-3.66l2.13,1.71c-2.33,3.22-4.76,5.63-7.29,7.23-2.53,1.61-5.93,2.41-10.18,2.41s-8.08-1.17-11.17-3.5c-3.09-2.33-5.29-6.77-6.61-13.3l-3.04-15.56c-.91-4.46-1.93-8.32-3.04-11.59-1.12-3.27-2.66-5.83-4.63-7.7s-4.84-2.8-8.58-2.8h-16.41l-.3-2.64Z"/><path d="M798.55,298.78c-.41,4.36-.68,8.58-.84,12.68-.15,4.1-.23,7.23-.23,9.41,0,2.39,.05,4.67,.15,6.84,.1,2.18,.2,4.05,.3,5.6h-3.49c-1.01-7.78-2.35-13.9-4.03-18.36-1.67-4.46-4.08-7.67-7.22-9.64-3.14-1.97-7.65-2.96-13.52-2.96h-6.53v88.67c0,4.15,.38,7.26,1.14,9.33,.76,2.08,2.28,3.45,4.56,4.12,2.28,.68,5.6,1.12,9.95,1.32v3.11c-2.84-.21-6.48-.34-10.94-.39-4.46-.05-9.02-.08-13.67-.08s-9.45,.03-13.75,.08c-4.31,.05-7.77,.18-10.41,.39v-3.11c4.35-.21,7.65-.65,9.88-1.32,2.23-.67,3.75-2.05,4.56-4.12,.81-2.07,1.22-5.19,1.22-9.33v-88.67h-6.69c-5.67,0-10.13,.99-13.37,2.96-3.24,1.97-5.67,5.19-7.29,9.64-1.62,4.46-2.94,10.58-3.95,18.36h-3.49c.2-1.55,.33-3.42,.38-5.6,.05-2.18,.08-4.46,.08-6.84,0-2.18-.08-5.31-.23-9.41-.15-4.1-.43-8.32-.84-12.68,4.35,.11,9.12,.21,14.28,.31,5.17,.11,10.38,.16,15.65,.16h28.41c5.17,0,10.38-.05,15.65-.16,5.27-.1,10.03-.21,14.28-.31Z"/><path d="M865.4,298.78v3.11c-3.34,.11-5.88,.49-7.6,1.17-1.72,.68-2.89,1.92-3.49,3.73-.61,1.82-.91,4.64-.91,8.48v77.16c0,3.73,.3,6.53,.91,8.4,.61,1.87,1.77,3.11,3.49,3.73,1.72,.62,4.25,1.04,7.6,1.24v3.11c-2.43-.21-5.5-.34-9.19-.39-3.7-.05-7.47-.08-11.32-.08-4.25,0-8.23,.03-11.93,.08-3.7,.05-6.71,.18-9.04,.39v-3.11c3.44-.21,6.03-.62,7.75-1.24,1.72-.62,2.86-1.87,3.42-3.73,.56-1.87,.84-4.67,.84-8.4v-77.16c0-3.84-.28-6.66-.84-8.48-.56-1.81-1.72-3.06-3.49-3.73-1.77-.67-4.33-1.06-7.67-1.17v-3.11c2.33,.11,5.34,.21,9.04,.31,3.7,.11,7.67,.16,11.93,.16,3.85,0,7.62-.05,11.32-.16,3.7-.1,6.76-.21,9.19-.31Z"/></g></svg>