<?xml version="1.0" encoding="UTF-8"?><svg id="a" xmlns="http://www.w3.org/2000/svg" viewBox="0 0 997.35 795.68"><defs><style>.b{fill:#fff;}</style></defs><path class="b" d="M136.25,35.7v5.37c-6.09,.18-10.7,.85-13.83,2.01-3.13,1.17-5.23,3.31-6.31,6.44-1.07,3.13-1.61,8.01-1.61,14.63V198.39c0,6.09,.49,10.65,1.48,13.69,.98,3.04,2.95,5.06,5.91,6.04,2.95,.99,7.2,1.48,12.75,1.48h17.45c10.38,0,18.61-1.92,24.7-5.77,6.08-3.85,10.74-9.71,13.96-17.58,3.22-7.87,5.54-17.9,6.98-30.07h6.17c-.54,5.73-.8,13.25-.8,22.55,0,3.58,.13,8.82,.4,15.7,.27,6.89,.76,14.01,1.48,21.34-9.13-.36-19.42-.58-30.87-.67-11.46-.09-21.66-.13-30.61-.13h-22.15c-9.22,0-19.06,.05-29.53,.13-10.47,.09-20.27,.31-29.4,.67v-5.37c6.08-.36,10.65-1.07,13.69-2.15,3.04-1.07,5.05-3.22,6.04-6.44,.98-3.22,1.48-8.05,1.48-14.5V64.15c0-6.62-.5-11.5-1.48-14.63-.99-3.13-3.05-5.28-6.17-6.44-3.13-1.16-7.65-1.83-13.56-2.01v-5.37c4.12,.18,9.44,.36,15.97,.54,6.53,.18,13.56,.27,21.08,.27,6.8,0,13.56-.09,20.27-.27,6.71-.18,12.22-.36,16.51-.54Z"/><path class="b" d="M381.09,35.7c-.72,6.8-1.21,13.38-1.48,19.73-.27,6.36-.4,11.23-.4,14.63s.09,6.62,.27,9.66c.18,3.05,.36,5.55,.54,7.52h-6.17c-1.25-11.45-3.18-20.49-5.77-27.12-2.6-6.62-6.44-11.32-11.54-14.09-5.1-2.77-12.21-4.16-21.34-4.16h-18.52c-5.73,0-10.07,.5-13.02,1.48-2.95,.99-4.97,2.95-6.04,5.91s-1.61,7.56-1.61,13.83V198.39c0,6.09,.54,10.65,1.61,13.69,1.07,3.04,3.09,5.06,6.04,6.04,2.95,.99,7.29,1.48,13.02,1.48h17.45c10.2,0,18.3-1.61,24.3-4.83,5.99-3.22,10.56-8.5,13.69-15.84,3.13-7.34,5.5-17.36,7.11-30.07h6.17c-.54,5.19-.8,11.99-.8,20.4,0,3.58,.13,8.77,.4,15.57,.27,6.8,.76,13.78,1.48,20.94-9.13-.36-19.42-.58-30.87-.67-11.46-.09-21.66-.13-30.61-.13h-22.15c-9.22,0-19.06,.05-29.53,.13-10.47,.09-20.27,.31-29.4,.67v-5.37c6.08-.36,10.65-1.07,13.69-2.15,3.04-1.07,5.05-3.22,6.04-6.44,.98-3.22,1.48-8.05,1.48-14.5V64.15c0-6.62-.5-11.5-1.48-14.63-.99-3.13-3.05-5.28-6.17-6.44-3.13-1.16-7.65-1.83-13.56-2.01v-5.37c9.13,.18,18.93,.36,29.4,.54,10.47,.18,20.31,.27,29.53,.27h22.15c8.23,0,17.59-.04,28.06-.13,10.47-.09,19.82-.31,28.05-.67Zm-44.57,91.82v5.37h-48.59v-5.37h48.59Zm7.79-35.44c-.72,10.2-1.03,17.99-.94,23.36,.09,5.37,.13,10.29,.13,14.77s.09,9.4,.27,14.77c.18,5.37,.63,13.15,1.34,23.36h-6.17c-.9-5.91-2.06-11.59-3.49-17.05-1.43-5.46-3.99-9.89-7.65-13.29-3.67-3.4-9.35-5.1-17.05-5.1v-5.37c7.69,0,13.29-2.01,16.78-6.04,3.49-4.03,5.91-8.81,7.25-14.36,1.34-5.55,2.46-10.56,3.36-15.03h6.18Z"/><path class="b" d="M524.18,31.94c11.81,0,21.38,1.75,28.73,5.24,7.34,3.49,14.05,7.56,20.13,12.22,2.33,1.79,4.12,2.68,5.37,2.68,3.4,0,5.64-5.46,6.71-16.38h6.18c-.36,6.8-.63,14.99-.81,24.56-.18,9.58-.27,22.33-.27,38.26h-6.17c-1.26-8.59-2.91-16.55-4.97-23.89-2.06-7.34-5.6-13.6-10.6-18.79-4.83-5.73-11.14-10.2-18.93-13.42-7.78-3.22-15.7-4.83-23.76-4.83-9.31,0-17.54,2.28-24.7,6.85-7.16,4.56-13.2,11.05-18.12,19.46-4.92,8.41-8.68,18.3-11.28,29.67-2.6,11.37-3.89,23.85-3.89,37.45,0,32.22,4.97,55.8,14.9,70.74,9.93,14.95,24.92,22.42,44.97,22.42,5.73,0,10.69-.81,14.9-2.42,4.2-1.61,7.56-3.22,10.07-4.83,3.04-2.15,5.01-4.25,5.91-6.31,.89-2.06,1.34-4.79,1.34-8.19v-26.04c0-7.69-.67-13.38-2.01-17.05-1.34-3.67-3.99-6.17-7.92-7.52-3.94-1.34-9.66-2.1-17.18-2.28v-5.37c3.4,.18,7.42,.31,12.08,.4,4.65,.09,9.53,.18,14.63,.27,5.1,.09,9.71,.13,13.83,.13,6.44,0,12.3-.09,17.58-.27,5.28-.18,9.62-.36,13.02-.54v5.37c-5.55,.36-9.13,1.79-10.74,4.3-1.61,2.51-2.41,8.77-2.41,18.79v53.16h-5.37c-.18-3.04-.85-6.35-2.01-9.93-1.17-3.58-2.91-5.37-5.24-5.37-1.25,0-2.55,.27-3.89,.81-1.34,.54-3.62,1.88-6.85,4.03-6.27,4.3-12.8,7.74-19.6,10.34-6.8,2.59-14.5,3.89-23.09,3.89-28.99,0-51.37-8.46-67.12-25.37-15.75-16.91-23.62-40.4-23.62-70.47,0-20.76,3.89-38.75,11.68-53.96,7.79-15.21,18.43-26.98,31.95-35.3,13.51-8.32,29.04-12.48,46.58-12.48Z"/><path class="b" d="M737.34,31.94c11.81,0,21.38,1.75,28.73,5.24,7.34,3.49,14.05,7.56,20.13,12.22,2.33,1.79,4.12,2.68,5.37,2.68,3.4,0,5.64-5.46,6.71-16.38h6.18c-.36,6.8-.63,14.99-.81,24.56-.18,9.58-.27,22.33-.27,38.26h-6.17c-1.26-8.59-2.91-16.55-4.97-23.89-2.06-7.34-5.6-13.6-10.6-18.79-4.83-5.73-11.14-10.2-18.93-13.42-7.78-3.22-15.7-4.83-23.76-4.83-9.31,0-17.54,2.28-24.7,6.85-7.16,4.56-13.2,11.05-18.12,19.46-4.92,8.41-8.68,18.3-11.28,29.67-2.6,11.37-3.89,23.85-3.89,37.45,0,32.22,4.97,55.8,14.9,70.74,9.93,14.95,24.92,22.42,44.97,22.42,5.73,0,10.69-.81,14.9-2.42,4.2-1.61,7.56-3.22,10.07-4.83,3.04-2.15,5.01-4.25,5.91-6.31,.89-2.06,1.34-4.79,1.34-8.19v-26.04c0-7.69-.67-13.38-2.01-17.05-1.34-3.67-3.99-6.17-7.92-7.52-3.94-1.34-9.66-2.1-17.18-2.28v-5.37c3.4,.18,7.42,.31,12.08,.4,4.65,.09,9.53,.18,14.63,.27,5.1,.09,9.71,.13,13.83,.13,6.44,0,12.3-.09,17.58-.27,5.28-.18,9.62-.36,13.02-.54v5.37c-5.55,.36-9.13,1.79-10.74,4.3-1.61,2.51-2.41,8.77-2.41,18.79v53.16h-5.37c-.18-3.04-.85-6.35-2.01-9.93-1.17-3.58-2.91-5.37-5.24-5.37-1.25,0-2.55,.27-3.89,.81-1.34,.54-3.62,1.88-6.85,4.03-6.27,4.3-12.8,7.74-19.6,10.34-6.8,2.59-14.5,3.89-23.09,3.89-28.99,0-51.37-8.46-67.12-25.37-15.75-16.91-23.62-40.4-23.62-70.47,0-20.76,3.89-38.75,11.68-53.96,7.79-15.21,18.43-26.98,31.95-35.3,13.51-8.32,29.04-12.48,46.58-12.48Z"/><path class="b" d="M930.63,35.7v5.37c-5.91,.18-10.38,.85-13.42,2.01-3.05,1.17-5.1,3.31-6.17,6.44-1.07,3.13-1.61,8.01-1.61,14.63V197.31c0,6.44,.54,11.27,1.61,14.5,1.07,3.22,3.13,5.37,6.17,6.44,3.04,1.07,7.52,1.79,13.42,2.15v5.37c-4.3-.36-9.71-.58-16.24-.67-6.54-.09-13.2-.13-20-.13-7.52,0-14.54,.05-21.07,.13-6.53,.09-11.86,.31-15.97,.67v-5.37c6.08-.36,10.65-1.07,13.69-2.15,3.04-1.07,5.05-3.22,6.04-6.44,.98-3.22,1.48-8.05,1.48-14.5V64.15c0-6.62-.49-11.5-1.48-14.63-.99-3.13-3.05-5.28-6.18-6.44-3.13-1.16-7.65-1.83-13.56-2.01v-5.37c4.11,.18,9.44,.36,15.97,.54,6.53,.18,13.56,.27,21.07,.27,6.8,0,13.47-.09,20-.27,6.53-.18,11.95-.36,16.24-.54Z"/><path class="b" d="M116.81,306.46c9.21,0,16.26,1.04,21.13,3.13,4.87,2.09,9.13,4.35,12.78,6.78,2.09,1.22,3.78,2.13,5.08,2.74,1.3,.61,2.56,.91,3.78,.91,2.78,0,4.69-3.82,5.74-11.47h6c-.18,3.13-.39,6.83-.65,11.08-.26,4.26-.44,9.87-.52,16.82-.09,6.96-.13,16.08-.13,27.38h-6c-.52-8.52-2.39-16.78-5.61-24.78-3.22-7.99-7.91-14.51-14.08-19.56-6.17-5.04-14.04-7.56-23.6-7.56-8.87,0-16.21,2.65-22.04,7.95-5.83,5.31-8.74,12.3-8.74,20.99,0,7.65,1.91,14.04,5.74,19.17,3.82,5.13,9.08,9.91,15.78,14.34,6.69,4.43,14.3,9.35,22.82,14.74,8.69,5.57,16.52,11.08,23.47,16.56,6.95,5.48,12.43,11.52,16.43,18.13,4,6.61,6,14.6,6,23.99,0,11.3-2.65,20.65-7.96,28.04-5.3,7.39-12.39,12.91-21.25,16.56-8.87,3.65-18.61,5.48-29.21,5.48-9.74,0-17.47-1.04-23.21-3.13-5.74-2.09-10.61-4.26-14.61-6.52-3.83-2.43-6.78-3.65-8.87-3.65-2.78,0-4.7,3.83-5.74,11.47h-6c.35-3.82,.56-8.3,.65-13.43,.09-5.13,.17-11.87,.26-20.21,.09-8.35,.13-18.86,.13-31.56h6c.69,10.78,2.65,20.86,5.87,30.25,3.22,9.39,8.17,16.91,14.87,22.56,6.69,5.65,15.6,8.48,26.73,8.48,8.69,0,16.43-2.65,23.21-7.95,6.78-5.3,10.17-13.6,10.17-24.91,0-10.6-3.7-19.43-11.08-26.47-7.39-7.04-17.08-14.21-29.08-21.52-8.18-5.22-15.82-10.43-22.95-15.65-7.13-5.22-12.82-11.3-17.08-18.26-4.26-6.95-6.39-15.21-6.39-24.78,0-10.6,2.48-19.3,7.43-26.08,4.95-6.78,11.38-11.82,19.3-15.13,7.91-3.3,16.39-4.96,25.43-4.96Z"/><path class="b" d="M356.74,309.59c-.7,6.61-1.17,13-1.44,19.17-.26,6.17-.39,10.91-.39,14.21s.09,6.43,.26,9.39c.17,2.96,.35,5.39,.52,7.3h-6c-1.22-11.12-3.09-19.91-5.61-26.34-2.52-6.43-6.26-10.99-11.22-13.69-4.95-2.69-11.87-4.04-20.73-4.04h-17.99c-5.57,0-9.78,.48-12.65,1.43-2.87,.96-4.83,2.87-5.87,5.74s-1.57,7.35-1.57,13.43v131.44c0,5.91,.52,10.35,1.57,13.3,1.04,2.96,3,4.91,5.87,5.87,2.87,.96,7.08,1.43,12.65,1.43h16.95c9.91,0,17.77-1.56,23.6-4.69,5.82-3.13,10.26-8.26,13.3-15.39,3.04-7.13,5.35-16.86,6.91-29.21h6c-.52,5.04-.78,11.65-.78,19.82,0,3.48,.13,8.52,.39,15.13,.26,6.61,.74,13.39,1.43,20.34-8.87-.35-18.87-.56-29.99-.65-11.13-.09-21.04-.13-29.73-.13h-21.52c-8.96,0-18.52,.04-28.69,.13-10.17,.09-19.69,.31-28.56,.65v-5.22c5.91-.35,10.34-1.04,13.3-2.09,2.95-1.04,4.91-3.13,5.87-6.26,.95-3.13,1.43-7.82,1.43-14.08v-129.35c0-6.43-.48-11.17-1.43-14.21-.96-3.04-2.96-5.13-6-6.26-3.04-1.13-7.43-1.78-13.17-1.96v-5.22c8.87,.18,18.39,.35,28.56,.52,10.17,.18,19.73,.26,28.69,.26h21.52c8,0,17.08-.04,27.25-.13,10.17-.09,19.25-.3,27.25-.65Zm-43.29,89.19v5.22h-47.2v-5.22h47.2Zm7.56-34.42c-.7,9.91-1,17.47-.91,22.69,.09,5.22,.13,10,.13,14.34s.09,9.13,.26,14.34c.17,5.22,.61,12.78,1.3,22.69h-6c-.87-5.74-2-11.26-3.39-16.56-1.39-5.3-3.87-9.6-7.43-12.91-3.57-3.3-9.09-4.96-16.56-4.96v-5.22c7.47,0,12.91-1.96,16.3-5.87,3.39-3.91,5.74-8.56,7.04-13.95,1.3-5.39,2.39-10.26,3.26-14.6h6Z"/><path class="b" d="M571.9,309.59v5.22c-5.91,.35-10.35,1.39-13.3,3.13-2.96,1.74-4.91,4.56-5.87,8.48-.96,3.91-1.43,9.43-1.43,16.56v152.31h-8.61l-110.58-160.65v125.18c0,7.3,.52,13,1.57,17.08,1.04,4.09,3.3,7,6.78,8.74,3.48,1.74,8.78,2.87,15.91,3.39v5.22c-3.3-.35-7.52-.56-12.65-.65-5.13-.09-9.96-.13-14.47-.13s-8.7,.04-13.04,.13c-4.35,.09-7.91,.31-10.69,.65v-5.22c5.74-.52,10.08-1.61,13.04-3.26,2.95-1.65,4.95-4.47,6-8.48,1.04-4,1.56-9.47,1.56-16.43v-123.62c0-6.43-.52-11.17-1.56-14.21-1.04-3.04-3.04-5.13-6-6.26-2.96-1.13-7.3-1.78-13.04-1.96v-5.22c2.78,.18,6.34,.35,10.69,.52,4.34,.18,8.69,.26,13.04,.26,3.82,0,7.56-.09,11.22-.26,3.65-.17,6.87-.35,9.65-.52l95.19,136.13v-101.71c0-7.47-.57-13.21-1.7-17.21-1.13-4-3.44-6.91-6.91-8.74-3.48-1.83-8.7-2.91-15.65-3.26v-5.22c3.13,.18,7.3,.35,12.52,.52,5.22,.18,10.08,.26,14.61,.26s8.69-.09,13.04-.26c4.34-.17,7.91-.35,10.69-.52Z"/><path class="b" d="M745.32,309.59v5.22l-99.1,173.43h43.29c7.3,0,13.69-.91,19.17-2.74,5.48-1.83,10.08-4.69,13.82-8.61,3.74-3.91,6.74-9.17,9-15.78,2.26-6.61,3.82-14.69,4.7-24.25h6c-.52,5.57-.78,12.87-.78,21.91,0,3.48,.13,8.52,.39,15.13,.26,6.61,.74,13.39,1.44,20.34-9.56-.35-20.39-.56-32.47-.65-12.09-.09-22.91-.13-32.47-.13-10.61,0-21.74,.04-33.38,.13-11.65,.09-22.6,.31-32.86,.65v-5.22l99.62-173.43h-43.29c-10.09,0-18.26,1.56-24.52,4.69s-11.04,8.35-14.34,15.65c-3.3,7.3-5.65,17.3-7.04,29.99h-6c.35-2.61,.56-5.74,.65-9.39,.09-3.65,.13-7.47,.13-11.48,0-3.48-.13-8.52-.39-15.13-.26-6.61-.74-13.39-1.43-20.34,9.39,.35,19.91,.57,31.56,.65,11.65,.09,22.08,.13,31.3,.13,10.6,0,21.91-.04,33.9-.13,12-.09,23.04-.3,33.12-.65Z"/><path class="b" d="M866.07,308.55l63.63,163.78c2.43,6.43,5.26,10.78,8.48,13.04,3.22,2.26,6.21,3.48,9,3.65v5.22c-4.17-.35-9.09-.56-14.74-.65-5.65-.09-11.34-.13-17.08-.13-7.3,0-14.08,.04-20.34,.13-6.26,.09-11.3,.31-15.13,.65v-5.22c8.87-.35,14.47-1.87,16.82-4.56,2.35-2.69,1.78-8.48-1.69-17.34l-46.94-126.75,4.17-4.69-43.29,113.18c-4.17,10.43-6.17,18.52-6,24.25,.17,5.74,2.22,9.78,6.13,12.13,3.91,2.35,9.52,3.61,16.82,3.78v5.22c-5.22-.35-10.48-.56-15.78-.65-5.31-.09-10.3-.13-15-.13-4.17,0-7.87,.04-11.08,.13-3.22,.09-6.13,.31-8.74,.65v-5.22c3.65-.87,7.3-3.04,10.95-6.52,3.65-3.48,7.13-9.39,10.43-17.73l60.5-156.22h8.87Zm27.38,110.58v5.22h-77.72l2.61-5.22h75.11Z"/><path class="b" d="M121.89,578.06v5.22c-5.91,.18-10.39,.83-13.43,1.96-3.04,1.13-5.08,3.22-6.13,6.26-1.04,3.04-1.56,7.78-1.56,14.21v130.4c0,5.91,.48,10.35,1.43,13.3,.95,2.96,2.87,4.91,5.74,5.87,2.87,.96,7,1.44,12.39,1.44h16.95c10.08,0,18.08-1.87,23.99-5.61,5.91-3.74,10.43-9.43,13.56-17.08,3.13-7.65,5.39-17.38,6.78-29.21h6c-.52,5.57-.78,12.87-.78,21.91,0,3.48,.13,8.56,.39,15.26,.26,6.7,.74,13.61,1.44,20.73-8.87-.35-18.87-.56-29.99-.65-11.13-.09-21.04-.13-29.73-.13h-21.52c-8.96,0-18.52,.04-28.69,.13-10.17,.09-19.69,.31-28.56,.65v-5.22c5.91-.35,10.34-1.04,13.3-2.09,2.95-1.04,4.91-3.13,5.87-6.26,.95-3.13,1.44-7.82,1.44-14.08v-129.35c0-6.43-.48-11.17-1.44-14.21-.96-3.04-2.96-5.13-6-6.26-3.04-1.13-7.43-1.78-13.17-1.96v-5.22c4,.18,9.17,.35,15.52,.52,6.34,.18,13.17,.26,20.47,.26,6.61,0,13.17-.09,19.69-.26,6.52-.17,11.87-.35,16.04-.52Z"/><path class="b" d="M293.76,578.06v5.22c-5.74,.18-10.09,.83-13.04,1.96-2.96,1.13-4.96,3.22-6,6.26-1.04,3.04-1.57,7.78-1.57,14.21v129.35c0,6.26,.52,10.95,1.57,14.08s3.04,5.22,6,6.26c2.95,1.04,7.3,1.74,13.04,2.09v5.22c-4.17-.35-9.43-.56-15.78-.65-6.35-.09-12.82-.13-19.43-.13-7.3,0-14.13,.04-20.47,.13-6.35,.09-11.52,.31-15.52,.65v-5.22c5.91-.35,10.34-1.04,13.3-2.09,2.95-1.04,4.91-3.13,5.87-6.26,.95-3.13,1.43-7.82,1.43-14.08v-129.35c0-6.43-.48-11.17-1.43-14.21-.96-3.04-2.96-5.13-6-6.26-3.04-1.13-7.43-1.78-13.17-1.96v-5.22c4,.18,9.17,.35,15.52,.52,6.34,.18,13.17,.26,20.47,.26,6.61,0,13.08-.09,19.43-.26,6.34-.17,11.6-.35,15.78-.52Z"/><path class="b" d="M542.82,578.06v5.22c-5.91,.18-10.35,.83-13.3,1.96-2.96,1.13-4.92,3.22-5.87,6.26-.96,3.04-1.43,7.78-1.43,14.21v129.35c0,6.26,.48,10.95,1.43,14.08,.95,3.13,2.91,5.22,5.87,6.26,2.95,1.04,7.39,1.74,13.3,2.09v5.22c-4.35-.35-9.74-.56-16.17-.65-6.43-.09-12.95-.13-19.56-.13-7.3,0-14.17,.04-20.6,.13-6.43,.09-11.57,.31-15.39,.65v-5.22c5.91-.35,10.39-1.04,13.43-2.09,3.04-1.04,5.09-3.13,6.13-6.26s1.56-7.82,1.56-14.08v-142.65l1.3,.52-64.16,170.82h-4.17l-67.29-169v133.53c0,7.3,.52,13,1.57,17.08,1.04,4.09,3.3,7,6.78,8.74,3.48,1.74,8.78,2.87,15.91,3.39v5.22c-3.3-.35-7.52-.56-12.65-.65-5.13-.09-9.96-.13-14.47-.13s-8.7,.04-13.04,.13c-4.35,.09-7.91,.31-10.69,.65v-5.22c5.74-.52,10.08-1.61,13.04-3.26,2.95-1.65,4.95-4.47,6-8.47,1.04-4,1.56-9.47,1.56-16.43v-123.62c0-6.43-.52-11.17-1.56-14.21-1.04-3.04-3.04-5.13-6-6.26-2.96-1.13-7.3-1.78-13.04-1.96v-5.22c2.78,.18,6.34,.35,10.69,.52,4.34,.18,8.69,.26,13.04,.26,5.04,0,10.13-.09,15.26-.26,5.13-.17,9.52-.35,13.17-.52l57.64,148.13-4.96,3.39,56.59-150.74h14.34c6.61,0,13.13-.09,19.56-.26,6.43-.17,11.82-.35,16.17-.52Z"/><path class="b" d="M651.31,578.06v5.22c-5.74,.18-10.09,.83-13.04,1.96-2.96,1.13-4.96,3.22-6,6.26-1.04,3.04-1.57,7.78-1.57,14.21v129.35c0,6.26,.52,10.95,1.57,14.08s3.04,5.22,6,6.26c2.95,1.04,7.3,1.74,13.04,2.09v5.22c-4.17-.35-9.43-.56-15.78-.65-6.35-.09-12.82-.13-19.43-.13-7.3,0-14.13,.04-20.47,.13-6.35,.09-11.52,.31-15.52,.65v-5.22c5.91-.35,10.34-1.04,13.3-2.09,2.95-1.04,4.91-3.13,5.87-6.26,.95-3.13,1.43-7.82,1.43-14.08v-129.35c0-6.43-.48-11.17-1.43-14.21-.96-3.04-2.96-5.13-6-6.26-3.04-1.13-7.43-1.78-13.17-1.96v-5.22c4,.18,9.17,.35,15.52,.52,6.34,.18,13.17,.26,20.47,.26,6.61,0,13.08-.09,19.43-.26,6.34-.17,11.6-.35,15.78-.52Z"/><path class="b" d="M837.25,578.06c-.7,7.3-1.17,14.39-1.43,21.26-.26,6.87-.39,12.13-.39,15.78,0,4,.09,7.82,.26,11.48,.17,3.65,.35,6.78,.52,9.39h-6c-1.74-13.04-4.04-23.3-6.91-30.77-2.87-7.47-7-12.86-12.39-16.17-5.39-3.3-13.13-4.95-23.21-4.95h-11.21v148.65c0,6.96,.65,12.17,1.96,15.65,1.3,3.48,3.91,5.78,7.82,6.91,3.91,1.13,9.6,1.87,17.08,2.22v5.22c-4.87-.35-11.13-.56-18.78-.65-7.65-.09-15.48-.13-23.47-.13s-16.21,.04-23.6,.13c-7.39,.09-13.35,.31-17.87,.65v-5.22c7.47-.35,13.13-1.08,16.95-2.22,3.82-1.13,6.43-3.43,7.82-6.91,1.39-3.48,2.09-8.69,2.09-15.65v-148.65h-11.48c-9.74,0-17.39,1.65-22.95,4.95-5.57,3.3-9.74,8.7-12.52,16.17-2.78,7.48-5.04,17.73-6.78,30.77h-6c.35-2.61,.56-5.74,.65-9.39,.09-3.65,.13-7.47,.13-11.48,0-3.65-.13-8.91-.39-15.78-.26-6.87-.74-13.95-1.43-21.26,7.47,.18,15.65,.35,24.52,.52,8.87,.18,17.82,.26,26.86,.26h48.77c8.87,0,17.82-.09,26.86-.26,9.04-.17,17.21-.35,24.51-.52Z"/><path class="b" d="M942.87,578.06v5.22c-5.74,.18-10.09,.83-13.04,1.96-2.96,1.13-4.96,3.22-6,6.26-1.04,3.04-1.57,7.78-1.57,14.21v129.35c0,6.26,.52,10.95,1.57,14.08s3.04,5.22,6,6.26c2.95,1.04,7.3,1.74,13.04,2.09v5.22c-4.17-.35-9.43-.56-15.78-.65-6.35-.09-12.82-.13-19.43-.13-7.3,0-14.13,.04-20.47,.13-6.35,.09-11.52,.31-15.52,.65v-5.22c5.91-.35,10.34-1.04,13.3-2.09,2.95-1.04,4.91-3.13,5.87-6.26,.95-3.13,1.43-7.82,1.43-14.08v-129.35c0-6.43-.48-11.17-1.43-14.21-.96-3.04-2.96-5.13-6-6.26-3.04-1.13-7.43-1.78-13.17-1.96v-5.22c4,.18,9.17,.35,15.52,.52,6.34,.18,13.17,.26,20.47,.26,6.61,0,13.08-.09,19.43-.26,6.34-.17,11.6-.35,15.78-.52Z"/></svg>