<?xml version="1.0" encoding="UTF-8"?><svg id="a" xmlns="http://www.w3.org/2000/svg" viewBox="0 0 221.03 68.96"><defs><style>.b{fill:#ffce34;}</style></defs><rect class="b" x="0" y="0" width="6.96" height="53.87" rx="3.07" ry="3.07"/><path class="b" d="M39.55,45.48c-.86,.85-2.79,1.49-6.36,1.4-11.84,0-12.16-8.94-12.16-8.94,.12,.84,4.53,1.95,10.21,1.95,7.79,0,14.78-.7,14.78-9.42,0-13.78-14.39-12.54-15.1-12.54s-17.9-1.27-17.9,17.36c0,16.69,14.41,18.58,18.98,18.58s9.07-.55,12.62-3.96c2.36-2.26-2.34-7-5.07-4.43Zm-19.38-12.8c-.38-.32,1.4-8.81,10.88-8.81,8.43,0,8.16,4.53,8.16,5.97s-.18,5.12-9.02,5.12-9.64-1.96-10.02-2.28Z"/><path class="b" d="M67.79,17.9c-13.03,0-17.66,8.61-17.66,18.22,0,11.15,5.74,15.83,15.4,15.83s12.38-7.15,12.38-7.15c0,0,.13,5.15-1.74,10.05-1.87,4.89-4.21,7.53-10.26,7.53-5.36,.04-7.95-1.36-7.95-1.36,0,0-3.37-1.79-4.68,.04-2.17,2.34,.17,5.11,2,5.87,3.48,2.07,10.25,2,10.25,2,0,0,8.68,.72,13.32-5.06,5.87-7.28,6.21-15.11,6.21-25.19s-4.25-20.78-17.27-20.78Zm-1.37,27.97c-5.87,0-9.35-3.36-9.35-10.92,0-8.47,4.89-10.91,9.69-10.91,5.75,0,10.17,3.15,10.17,10.59s-4.63,11.24-10.51,11.24Z"/><path class="b" d="M143.11,49.35c0,.06,0,.12-.01,.18v-.36c.01,.06,.01,.12,.01,.18Z"/><path class="b" d="M169.84,48.33l-.2-.27-.02-.02-10.03-13.6c7.82-2.08,10.53-8.18,10.53-15.39,0-8.93-7.63-16.16-17.05-16.16s-16.99,2.64-17.05,16.01v30.45c0,.13,.01,.26,.02,.39,.2,1.78,1.7,3.16,3.53,3.16s3.32-1.38,3.52-3.16c.01-.07,.01-.14,.01-.21v-13.57h8.58l12.08,16.37,.03,.04,.2,.28c.66,.85,1.69,1.39,2.85,1.39,2.02,0,3.65-1.63,3.65-3.64,0-.77-.24-1.48-.65-2.07Zm-15.99-18.33h-10.75V15.89c0-.37,.03-.73,.1-1.09,.48-2.66,2.71-4.71,5.46-4.92v-.02h5.74v.06c5.04,.55,8.97,4.81,8.97,10.01s-4.22,9.77-9.52,10.06h0Z"/><path class="b" d="M130.6,48.29c-.02-.07-.04-.14-.07-.21l-3.77-10.57v-3.69h-1.32l-9.89-27.69-.02-.07c-.6-1.84-2.33-3.17-4.37-3.17-2.33,0-4.25,1.72-4.56,3.96l-14.8,41.44h.02c-.13,.36-.2,.74-.2,1.14,0,1.91,1.55,3.47,3.47,3.47,1.66,0,3.06-1.18,3.4-2.75v-.02l3.23-9.05h18.98l3.23,9.05v.02l.02,.06c.35,1.54,1.73,2.69,3.38,2.69,1.91,0,3.47-1.56,3.47-3.47,0-.4-.07-.78-.2-1.14Zm-26.28-14.47l6.89-19.31,6.89,19.31h-13.78Z"/><path class="b" d="M130.61,48.29h-.01c-.02-.07-.04-.14-.07-.21l.08,.21Z"/><path class="b" d="M136.04,49.74h-.02v-.39c0,.13,.01,.26,.02,.39Z"/><path class="b" d="M143.1,49.53v.21h-.01c.01-.07,.01-.14,.01-.21Z"/><path class="b" d="M149.14,9.86c-.16,0-.32,.01-.48,.02v-.02h.48Z"/><path class="b" d="M154.4,9.86v.06c-.36-.04-.73-.06-1.1-.06h1.1Z"/><path class="b" d="M153.85,29.99h-.55c.18,.01,.37,.01,.55,0Z"/><path class="b" d="M149.14,9.86c-.16,0-.32,.01-.48,.02v-.02h.48Z"/><path class="b" d="M154.4,9.86v.06c-.36-.04-.73-.06-1.1-.06h1.1Z"/><path class="b" d="M153.3,30c.18,0,.37,0,.55-.01h-.55Z"/><path class="b" d="M153.85,30h-.55c.18,0,.37,0,.55-.01h0Z"/><path class="b" d="M208.03,7.92c0,1.66-1.35,3.01-3.01,3.01h-11.03V51.06h0c-.07,1.59-1.39,2.85-3,2.85s-2.92-1.26-2.99-2.85c0-.05,0-.1,0-.15V10.93h-11.04c-1.66,0-3.01-1.35-3.01-3.01s1.35-3,3.01-3h28.08c1.66,0,3.01,1.34,3.01,3Z"/><path class="b" d="M187.99,51.06h0v-.15s0,.1,0,.15Z"/><path class="b" d="M221.02,7.08h.01V51h-.01c-.03,1.62-1.37,2.93-3,2.93s-2.96-1.31-2.99-2.93h-.01V7.08h.01s-.01-.11-.01-.16c0-1.66,1.34-3.01,3-3.01s3.01,1.35,3.01,3.01c0,.05,0,.11-.01,.16Z"/></svg>