<svg id="Livello_1" data-name="Livello 1" xmlns="http://www.w3.org/2000/svg" viewBox="0 0 36.38 18.26"><defs><style>.cls-1{fill:#6f0300;}.cls-2,.cls-3{isolation:isolate;}.cls-3{font-size:1.5px;fill:#f5a409;font-family:Halenoir-Medium;font-weight:500;letter-spacing:0.04em;}.cls-4{letter-spacing:0.02em;}.cls-5{letter-spacing:0.03em;}.cls-6{letter-spacing:0.03em;}.cls-7{letter-spacing:0.03em;}.cls-8{letter-spacing:0.01em;}.cls-9{letter-spacing:0.04em;}.cls-10{letter-spacing:-0.06em;}.cls-11{letter-spacing:-0.06em;}.cls-12{letter-spacing:0.04em;}.cls-13{letter-spacing:0.06em;}.cls-14{letter-spacing:0.03em;}</style></defs><g id="Raggruppa_162" data-name="Raggruppa 162"><g id="Raggruppa_156" data-name="Raggruppa 156"><path id="Tracciato_53" data-name="Tracciato 53" class="cls-1" d="M36.73,19.07h-.21q-8.79,0-17.57,0H1.52c-.79,0-.78,0-.78-.77s0-1.66,0-2.48a.58.58,0,0,1,.09-.44.58.58,0,0,1,.46-.12h34.9c1,0,.9-.13.91.93,0,.78,0,1.56,0,2.33C37.1,18.9,37,19,36.73,19.07Z" transform="translate(-0.71 -0.82)"/><path id="Tracciato_54" data-name="Tracciato 54" class="cls-1" d="M37,12c0-.41,0-.83,0-1.24s-.05-.6-.07-.9h-.12c0,.35,0,.71-.07,1.07,0,.53-.07,1.06-.1,1.61l-.26,0-2.78.4c-1.29.19-2.57.41-3.85.59a3.15,3.15,0,0,1-.92,0,.41.41,0,0,1-.23-.31c0-.58,0-1.17,0-1.76v-.7h0c.09.16.59,1,1.2,1h.09L28.84,9.94a1.61,1.61,0,0,0,1.23-1.36A2,2,0,0,0,30,7.77h0c0-.08-.09-.15-.14-.23a1.62,1.62,0,0,0-1.18-.78c0-.83,0-1.86,0-2.6l1.5-.2h.07V4.2h0v.87h0v3h0v2h-.07a1.37,1.37,0,0,1-.57,0c-.19-.06.19.26.57.11l.07,0v2.3h-.07l-.18,0,.07.13.11,0h.07v.14l-.09,0,.07.14h0v0s.18.09.23,0c0-.49,0-1,0-1.63h0c0-1.14,0-2.36,0-3.38V7.55h.08V6.86h0v-3h.06L36.73,3l.13,0V9.22H37c0-2,0-3.92,0-5.88,0-.47,0-.86-.51-.77L36,1.75a.17.17,0,0,0,0,.05v0l0,.06A.43.43,0,0,0,36,2l0,0s0,0,0,0l0,0h0l0,0h0a15.56,15.56,0,0,1-1.55.61l1.46-.83L36,1.75l-.86.37c0-.21,0-.37,0-.53-.68-.1-.77-.12-.95,0l-.1.09.27-.08,0,0,.24-.07v.06h0l0,0,0,0h0l0,0h0l0,0,0,0-.05,0h0l0,0,0,0,0,0,0,0-.05,0,0,0-.09.05-.09,0-.07,0-.29.12-.07,0-.08,0,0,0-.11,0,0,0h-.12l-.09,0-.14,0-.13,0-.08,0-.11,0h0l-.08,0h0l-.11,0-.14,0-.11,0-.14,0h-.1l-.45.05c.34-.1.7-.18,1-.31l.19-.07.15-.07.15-.06.13-.06.76-.34.27-.12V1.65C34,1.44,34,1.24,33.88,1l-.23.24-.24.24.28-.07.12,0a.53.53,0,0,1,0,.35.7.7,0,0,1-.44.31h0l-2.21.71c-.31.1-.62.22-1,.36l.21-.47h0l0-.08-.22.11-.06,0-.29.15-.36.31s0-.06,0-.09a1.4,1.4,0,0,0-1.07-1c-.92-.21-1.87-.34-2.81-.46-.58-.08-1.17-.08-1.8-.13l0,.13,0,.07-.18-.08-.14-.06a1.92,1.92,0,0,0-.13.17.17.17,0,0,1-.1.07l-.15,0a1.31,1.31,0,0,0-.43.16A1.29,1.29,0,0,0,21.85,3V3q0,3.87,0,7.74v.37c0,.64-.05.83-.56,1l-.3.09a2.63,2.63,0,0,0,.06-.39,13.37,13.37,0,0,0-.11-2.45,1.44,1.44,0,0,0-1.66-1.15h-.06a2.07,2.07,0,0,0-.77.22,1.67,1.67,0,0,0-.86,1.29,2.32,2.32,0,0,0,.33,1.72,3.61,3.61,0,0,0-.42-.16,5.5,5.5,0,0,0-2-.1.86.86,0,0,1-.89-.51.56.56,0,0,1,0-.12c.49,0,1,0,1.47,0a1.19,1.19,0,0,0,.37-.06.94.94,0,0,0,.69-.73,1.24,1.24,0,0,0-.7-1.34,2,2,0,0,0-1.78,0,1.63,1.63,0,0,0-.73.76,1.9,1.9,0,0,0,.89,2.59A1.14,1.14,0,0,1,15,12a8.61,8.61,0,0,1-1.51.85,3.4,3.4,0,0,1-1.08.25.94.94,0,0,1-1.13-.73.91.91,0,0,1,0-.49c.07-.34.19-.66.29-1a14.61,14.61,0,0,0,.46-1.56,1.4,1.4,0,0,0-.69-1.57,9.69,9.69,0,0,0-1.46-.59,5.17,5.17,0,0,0-.52-1.49,4.65,4.65,0,0,0-4.61-2,6.29,6.29,0,0,0-1.37.45h0A4.1,4.1,0,0,0,.79,7.33a11.42,11.42,0,0,0,0,1.43A3.87,3.87,0,0,0,2.66,12a5.61,5.61,0,0,0,4.68.41,4.14,4.14,0,0,0,1.24-.76A2.79,2.79,0,0,0,9.69,9.8c.05-.52.15-1,.24-1.56V8.13h.25a1.34,1.34,0,0,1,1.12,1.53,1.19,1.19,0,0,1-.1.32c-.23.7-.49,1.4-.67,2.11a1.24,1.24,0,0,0,.42,1.3,2.8,2.8,0,0,0,2.41.24,2.92,2.92,0,0,0,.36-.17,13.17,13.17,0,0,1,1.41-.81l.59-.28a3,3,0,0,1,2.1-.31,11.7,11.7,0,0,1,1.49.67l-.05.14L19,12.8a5.4,5.4,0,0,0-.58-.11,2.05,2.05,0,0,0-.54.1s0,0,0,.05c.07.18.12.4.25.49a2.25,2.25,0,0,0,2.27-.2,4.67,4.67,0,0,1,.6-.38,1.77,1.77,0,0,1,1.13-.2c1.87.29,3.75.52,5.63.77l.23,0h.25c0-.06,0-.13,0-.19l-.14,0L22,12.3c.24-.55,1-.76,1-1.47a.29.29,0,0,0,0-.13,3.53,3.53,0,0,0,.65,0c.73-.1,1.34,0,1.49.87,0,.09.16.16.3.23a.76.76,0,0,1,.18.09c.06-.18.2-.38.17-.54a13.72,13.72,0,0,0-.52-1.65c-.31-.85-.64-1.7-1-2.53a.77.77,0,0,0-.49-.41c-.06,0-.13,0-.21.12a1.54,1.54,0,0,0-.21.29A5.82,5.82,0,0,0,23.1,8c-.35.92-.69,1.84-1,2.75H22V2.83l6.46.93v3l-.27,0h-.26a1.89,1.89,0,0,0-.87.21,1.32,1.32,0,0,0-.61,1.21c0,1.09,0,2.18,0,3.27,0,.22,0,.49.36.46h0c.33,0,.37-.26.36-.52v-1.2c1.1-.22,1.25.27,1.21,1v0c0,.58,0,1.15,0,1.73a.71.71,0,0,0,.19.59.85.85,0,0,0,.5.2,3,3,0,0,0,.79,0c.67-.13,1.34-.3,2-.4,1.5-.22,3-.42,4.51-.6l.17,0C36.93,12.61,37.08,12.39,37,12ZM34.87,1.88l.1,0,.09,0,0,0,0,0L35,2a.64.64,0,0,0-.1.13l0,0,0,0,0,0,0,0,0,0,0,0h0l0,0,0,0c-.84.25-1.69.44-2.54.65l0,0Zm-3,1.48.08,0L33,3.16l.11,0,.12,0,.17,0,.12,0,.14,0,.13,0,.06,0H34l.12,0,.11,0h0l.08,0,.08,0,.24-.06h0l.16,0h0l.16,0,.15-.05.08,0,.08,0,.07,0,.08,0,.08,0,.07,0,.31-.14.08,0,.07,0,.11-.06.14.13,0,0h0l0,0s0,0,0,.08l0,0h0l0,0,0,0v0h0a.34.34,0,0,1-.06.06h0c-1.68.32-3.37.61-5.05.91,0,0,0,0-.06-.06l.31-.06.1,0,.57-.12Zm-8,4.76.14,0,.62,1.82H23.22c.21-.63.4-1.22.59-1.81Zm-3.45,3.39c-.12,1-.33,1.11-1.2.57l-.58-.32a1.66,1.66,0,0,0,1.76-.49,1.94,1.94,0,0,1,0,.24ZM19.33,9a.9.9,0,0,1,.93.87V10a1.06,1.06,0,0,1-.92,1.17h-.13c-.57,0-.91-.4-.91-1.05A1,1,0,0,1,19.13,9h.2ZM16,9a.7.7,0,0,1,.38.53c0,.14-.3.38-.49.4a10.17,10.17,0,0,1-1.34-.09c.28-.78.86-1.1,1.45-.84ZM9.3,5.91l0,0V6l0,0a.05.05,0,0,0,0,0l0,0a.43.43,0,0,1,0,.07v0l0,.1a.17.17,0,0,0,0,.05v0l0,.05,0,.1v.08s0,0,0,0v0a.43.43,0,0,0,0,0s0,.07,0,.11a.43.43,0,0,1,0,0v0s0,0,0,.06a.17.17,0,0,0,0,.07v.22h0v.39a.09.09,0,0,1,0,0V8a.36.36,0,0,0,0,.1l0,.08v0l-.06.21v0s0,0,0,0l0,0v0l0,0,0,0,0,.05v0l0,0v0l0,0v0l0,0s0,0-.05.05ZM6.44,8.75l.16-.48.16-.48c.1,1-.37,2.53-.87,2.59.19-.55.37-1.09.55-1.63Zm-.67,1.54-.15,0L6,9l.17,0Zm1.59-3c.29.78-.34,3-.9,3,.44-1,.22-2.09.9-3Zm.35-.08a.88.88,0,0,1,.38-.47,7.92,7.92,0,0,1-1,3.54c.19-1,.36-2.06.57-3.08Zm.61-.45a1.89,1.89,0,0,1,.28-.5c.22,1.17-.47,3.69-.93,3.87.21-1.1.42-2.24.65-3.37ZM9,6.11a4.92,4.92,0,0,1,0,3c-.1.3-.42.52-.71.85.26-1.37.49-2.61.73-3.84Zm-.05-.87.27.29-.13.12L6.76,7.79h0l-.48.7-.19.28-.28.41c-.18.27-.37.53-.54.79,0-1.17,1.67-3.71,3.5-4.66l.15-.07ZM8.51,5h0l.06,0,0,0h0l.07,0-.07,0h0l-.16.11-.08.05-.23.15-.37.29-.07,0-.07.06-.07.06L7.51,6l-.07.06-.07.07-.06.06-.07.06-.06.06-.07.07L7,6.5l-.06.06s0,0,0,0l0,.06,0,0,0,0L6.58,7,6.52,7l-.11.14,0,.06,0,0,0,.08a5.57,5.57,0,0,0-.37.57l0,.06,0,.08,0,.08,0,.08a.3.3,0,0,0,0,.08l0,.08,0,.08-.07.15v0l0,.08,0,.08,0,.08c-.12.26-.22.52-.31.78-.32-.54.69-2.54,1.8-3.6C7.71,5.3,8.08,5,8.38,5h.13Zm-.36-.3h.19l-.12.07-.06,0a3.89,3.89,0,0,0-.39.28l-.08,0-.1.08-.13.1a.27.27,0,0,1-.08.07.45.45,0,0,1-.1.09l0,0-.07.07L7,5.79l-.07.06a6.17,6.17,0,0,0-.43.46l0,0-.1.12-.1.12h0l-.08.1,0,0,0,0L6,6.84,6,6.9H6l0,.07,0,.07,0,.06,0,.06,0,0a.35.35,0,0,1,0,.08l-.19.31s0,.07,0,.1l0,.07L5.3,8l-.07.13-.06.13s0,0,0,.05l0,.08,0,.07,0,.07c0,.11-.09.23-.14.35l0,.08-.06.17V9a.69.69,0,0,1,0-.13V8.76a.13.13,0,0,1,0-.06V8.54s0,0,0-.07A2.58,2.58,0,0,1,5,8.21a.54.54,0,0,1,0-.1.14.14,0,0,1,0-.06l0-.06c0-.11.08-.21.13-.32l0-.07.06-.14.05-.09,0-.07,0,0a.41.41,0,0,1,0-.09l0-.09v0A.75.75,0,0,1,5.55,7h0l.07-.11.07-.11.06-.09,0,0,.06-.09,0,0,0,0,.16-.21.07-.08.07-.08L6.26,6a1.14,1.14,0,0,0,.11-.11l0,0,0,0,0,0,0,0,0,0,.18-.18.08-.06a3.75,3.75,0,0,1,.33-.26l0,0L7.35,5l0,0,.11-.07.08,0,0,0,.08,0A1.82,1.82,0,0,1,8,4.75l.09,0h.07ZM5.4,5.14,4.34,8A4.24,4.24,0,0,1,5.4,5.13ZM4.13,7.34c0-.79-.13-1.53.69-1.9L4.13,7.33ZM5,6.83A2.54,2.54,0,0,1,7.44,4.47,5.51,5.51,0,0,0,5,6.83ZM6.9,5,5,7.33A4.17,4.17,0,0,1,6.9,5ZM1.38,6a4.61,4.61,0,0,1,4-2.24c-.32.09-.64.15-1,.25a4.15,4.15,0,0,0-3.1,3,10.88,10.88,0,0,0,0,2.55,4.52,4.52,0,0,0,.06.53,4.26,4.26,0,0,1,0-4.1Zm.83,5.49A7.72,7.72,0,0,1,1.57,9.9a16.7,16.7,0,0,1-.14-2.45,2.71,2.71,0,0,1,1-2A4.26,4.26,0,0,1,4.57,4.19c.49-.1,1-.26,1.49-.32-.69.34-1.4.66-2.07,1A4.32,4.32,0,0,0,2,9.72c.13.57.22,1.15.34,1.73Zm.55.28a1.72,1.72,0,0,1-.2-.38,7.44,7.44,0,0,1-.36-4A3.32,3.32,0,0,1,3.73,5.28,21.63,21.63,0,0,1,6.64,4H7l.07,0h0l.1,0,.08,0h.11V4.2h0c-.39.13-.78.25-1.16.4a14.46,14.46,0,0,0-1.65.76c-1.77,1-2.14,2.73-2,4.61,0,.6.15,1.2.23,1.79Zm.13-1.07L4,12.3c-.75,0-1.07-.45-1.07-1.58Zm-.14-1.5,1.84,3.16c-.72,0-1.91-2-1.84-3.16Zm.14-1.09a10.51,10.51,0,0,0,2.53,4.38c-1-.28-2.74-3.32-2.53-4.38ZM4.6,11.35a16,16,0,0,1-1.14-2,2.65,2.65,0,0,1-.08-2.59,7.52,7.52,0,0,0,2.78,5.81A2.77,2.77,0,0,1,4.6,11.35ZM4.07,9.44C3.43,8,3.39,6.6,4,6.09c-.15,2.59,1.23,4.47,2.68,6.3-.68.08-1.85-1.22-2.6-3Zm2.38,2.37,2.67-1a3.12,3.12,0,0,1-2.67,1Zm3-1.71h0c0,.05-.05.11-.08.16v0l0,0,0,0,0,.05h0l0,0a5.73,5.73,0,0,1-2.72,1.08c-.17,0-.37-.14-.56-.22L6,11.14a6.11,6.11,0,0,0,3.4-1.32l.07.07.05,0a.8.8,0,0,0-.08.16Zm.27-1.17s0,0,0,.05l0,.13s0,0,0,.06v.05a.14.14,0,0,0,0,.06l0,.05s0,0,0,.05l0,.07,0,0h0a.18.18,0,0,1-.05.07v0l0,0,0,0,0,0,0,0,0,0,0,0,0,0-.05,0h0l0,0h0l0,0L9,9.92a.1.1,0,0,1,0,0l-.1.06,0,0h0l-.06,0-.07,0h0l-.08,0-.23.11a9.92,9.92,0,0,1-2.21.61c-.16,0-.37-.1-.53-.22h.16l.33,0h.09l.1,0h.06l.2,0h.17l.11,0H7.1l.1,0h0l.09,0h.09l.17,0h.09l0,0,0,0,0,0,.08,0,0,0,.09,0,0,0,.09,0,.08-.05L8.34,10l0,0a1.81,1.81,0,0,0,.23-.18l0,0,.06-.05,0,0L9,9.44l.05,0,.1-.09.05-.05.14-.13,0,0L9.56,9l0,0,0,0,.06,0v0Zm3.65,4.54a2.34,2.34,0,0,1-2.26-.26,1.15,1.15,0,0,1-.32-1.36c.22-.7.48-1.39.71-2.1A1.45,1.45,0,0,0,10.39,8a.47.47,0,0,0-.17,0L9.94,8a.85.85,0,0,1,0-.23v0h0v0h0v0h0l0,0h0l0,0,.05,0h.26a1.66,1.66,0,0,1,1.62,1.68,1.84,1.84,0,0,1-.1.51c-.13.45-.32.9-.46,1.35a5.41,5.41,0,0,0-.23,1.06.13.13,0,0,1,0,.06v.12a.13.13,0,0,0,0,.06v0s0,.08,0,.11l0,.11a.43.43,0,0,1,0,.05.36.36,0,0,1,0,.09l.06.08a.05.05,0,0,0,0,0l0,0,0,.05v0h0l0,0,0,0h0l0,0,0,0,0,0h0l0,0,0,0h.14l0,0h.12l.1,0h.18a4.42,4.42,0,0,0,2.44-.83c.48-.28.92-.6,1.43-.47-.87.48-1.79,1-2.76,1.51Zm6.21-.82L18.07,12a2.86,2.86,0,0,0-1-.22h0l-.27,0h0a.85.85,0,0,1,.8-.24h0a1.64,1.64,0,0,1,.57.26h0c.47.29,1.18.64,1.18.64a2.16,2.16,0,0,0,.61.14,1.41,1.41,0,0,1-.47.05Zm1.28,0a.64.64,0,0,0,.26-.28s.75-.09.92-.64c.05.12,0,.27-.12.49h0l0,.12-.05,0h-.07c-.41,0-.56.19-.92.28Zm8.38-4.18a.75.75,0,0,1-.52.83V7.66c.45.13.51.46.52.81ZM24.74,2c1.42,0,2.9-.22,4.13.81C27.58,2,26.13,2.12,24.74,2Zm2.91,1.46c-1.61-.25-3.22-.5-4.83-.77-.12,0-.23-.14-.35-.21l-.1-.22c1.89.29,3.81.07,5.7.85l-2.91-.4c-.73-.09-1.47-.16-2.2-.24.51.1,1,.2,1.53.28l3.71.55a.74.74,0,0,1,.43.28c-.33,0-.66-.07-1-.12Zm.52,6a5.63,5.63,0,0,1-.92,0,13.83,13.83,0,0,1,0-1.44c.06-.43.43-.53,1.22-.39,0,.51,0,1,0,1.49a.47.47,0,0,1-.3.33Zm5.12-2.55H30.85a.29.29,0,0,0-.23.12.44.44,0,0,0,.12.59c.36,0,.7,0,1,0,0,.26,0,.55,0,.75,0,1.05,0,2.11.05,3.16,0,.14.14.27.25.4l.09.11c.11-.17.32-.33.33-.5,0-1,0-1.91,0-2.87v-1h.75a.41.41,0,0,0,.28-.29.34.34,0,0,0-.24-.42Z" transform="translate(-0.71 -0.82)"/><path id="Tracciato_55" data-name="Tracciato 55" class="cls-1" d="M13.08,9.24c0,.74,0,1.48,0,2.21,0,.17-.21.33-.33.5a.39.39,0,0,0-.08-.1.84.84,0,0,1-.23-.37c0-1.44,0-2.89,0-4.34a.32.32,0,0,1,0-.14,2.83,2.83,0,0,1,.2-.28l.18-.25c.1.18.27.36.28.55,0,.74,0,1.48,0,2.22Z" transform="translate(-0.71 -0.82)"/><path id="Tracciato_56" data-name="Tracciato 56" class="cls-1" d="M35.57,11.07v0h0c0,.09,0,.18,0,.26h0c0,.1,0,.19,0,.28h0a0,0,0,0,1,0,0v-.17l-.16.16v0s0,0,0,0a2.44,2.44,0,0,1,0,.28l.18,0a.28.28,0,0,1-.14.16h0l-.05,0-.1,0a.71.71,0,0,1-.25,0h-.12a.31.31,0,0,1-.12,0l-.05,0-.08-.12a.76.76,0,0,1-.06-.2,6.15,6.15,0,0,1,0-1c0-.91,0-1.82,0-2.72,0-.22,0-.56.07-.94,0,0,0,0,0-.07,0-.42.66-.32.67,0,0,.79,0,1.83,0,2.7v1.64l0,0v0l.17-.16h0v0h0Z" transform="translate(-0.71 -0.82)"/><path id="Tracciato_57" data-name="Tracciato 57" class="cls-1" d="M35.61,11.67h0l.08-.18v.15S35.63,11.67,35.61,11.67Z" transform="translate(-0.71 -0.82)"/><path id="Tracciato_58" data-name="Tracciato 58" class="cls-1" d="M36,11.31h0l0,.33a0,0,0,0,1,0,0h-.11a0,0,0,0,1,0,0h0l0-.5h0L35.9,11s0,.05,0,.07l0,.2v.09Z" transform="translate(-0.71 -0.82)"/><path id="Tracciato_59" data-name="Tracciato 59" class="cls-1" d="M36.39,9.89l-.11,2,0,0h0l-.57.13-.06-.17.53-.12,0-.73v0l0-.11h0v-.13s0-.08,0-.13v-.12l0-.27a1.1,1.1,0,0,0,0-.18h0l-.06.06-.07.06-.07.05.07-.07h0l.07-.09,0,0,.15-.17Z" transform="translate(-0.71 -0.82)"/><path id="Tracciato_60" data-name="Tracciato 60" class="cls-1" d="M33.42.82c-.07.17-.1.34-.2.41a1.62,1.62,0,0,1-.35.17h0l-.22.09a3.7,3.7,0,0,0-2.14.9s0,0,0,.09v0h0v0h-.15l-.23.12-.05,0-.3.15c.57-.39,1.12-.83,1.72-1.17L32,1.42h0C32.41,1.22,32.89,1.05,33.42.82Z" transform="translate(-0.71 -0.82)"/><path id="Tracciato_61" data-name="Tracciato 61" class="cls-1" d="M36.26,10.05l-.06.06-.07.06-.07.05,0,0-.19.33-.05.08,0,0v.22l-.15.15v-.13l-.12.19v0h0c0,.09,0,.18,0,.26h0l0,.28h0l.08-.18h0l0-.21.15-.15h0v0l.08-.17s0,.06,0,.08l0,.2v.09l0-.37.16-.16v0h0V11l0-.11h0v-.13s0-.08,0-.12V10.5l0-.27a1.1,1.1,0,0,0,0-.18Zm-.08.46,0,0-.14.14,0-.22.16-.17Z" transform="translate(-0.71 -0.82)"/><path id="Tracciato_62" data-name="Tracciato 62" class="cls-1" d="M11.17,12.47l0,.1Z" transform="translate(-0.71 -0.82)"/><path id="Tracciato_63" data-name="Tracciato 63" class="cls-1" d="M11.25,12.71a.36.36,0,0,0,0-.09A.36.36,0,0,1,11.25,12.71Z" transform="translate(-0.71 -0.82)"/><path id="Tracciato_64" data-name="Tracciato 64" class="cls-1" d="M8.59,5.05,8.54,5Z" transform="translate(-0.71 -0.82)"/><path id="Tracciato_65" data-name="Tracciato 65" class="cls-1" d="M8,4.75l.09,0Z" transform="translate(-0.71 -0.82)"/><path id="Tracciato_66" data-name="Tracciato 66" class="cls-1" d="M35,1.84l-.1,0h0Z" transform="translate(-0.71 -0.82)"/></g><path id="Tracciato_67" data-name="Tracciato 67" class="cls-1" d="M17,11.76l-.14,0h-.05Z" transform="translate(-0.71 -0.82)"/><path id="Tracciato_68" data-name="Tracciato 68" class="cls-1" d="M30,11.8a.7.7,0,0,0-.08-.12L28.84,9.94a4.22,4.22,0,0,0,1,1.75.75.75,0,0,1,.14.17c0,.14-.08.22-.2.26A.21.21,0,0,0,30,11.8Zm.1-1.7a1.37,1.37,0,0,1-.57,0c-.19-.06.19.26.57.1l.07,0v-.11Zm0,2.71h0l-.22.06-.09,0h.05L30,13h0l.15,0h0v-.17Zm0-.3-.17,0h-.26v.09h0a1.13,1.13,0,0,0,.32,0l.1,0h.07V12.5Z" transform="translate(-0.71 -0.82)"/><path id="Tracciato_69" data-name="Tracciato 69" class="cls-1" d="M28.72,11.15" transform="translate(-0.71 -0.82)"/><path id="Tracciato_70" data-name="Tracciato 70" class="cls-1" d="M30.24,4.55V4.7h0l-.06,0h0c-.33.12-.83-.05-.66,0a2.48,2.48,0,0,0,.66-.12h0l.06,0Z" transform="translate(-0.71 -0.82)"/><path id="Tracciato_71" data-name="Tracciato 71" class="cls-1" d="M29.76,12.12h0c-.26,0-1-1-1.14-1.41h0s0,0,0-.06c-.07-.39-.13-.77-.13-.77l.37.06,1.06,1.74.09.12C30.05,11.93,30,12.14,29.76,12.12Z" transform="translate(-0.71 -0.82)"/><path id="Tracciato_72" data-name="Tracciato 72" class="cls-1" d="M30.45,6.64V7.93h0c0,.06-.07.28-.07,0V7.55c0-.18,0-.38,0-.58s0-.21,0-.32Z" transform="translate(-0.71 -0.82)"/><path id="Tracciato_73" data-name="Tracciato 73" class="cls-1" d="M30.5,3.53V4l0,2.69V7.92h0l-.05,3.39h0l0,1.34-.14.11,0,0v-9Z" transform="translate(-0.71 -0.82)"/><path id="Tracciato_74" data-name="Tracciato 74" class="cls-1" d="M35.64,12.05v0Zm.75-2.91h-.11s0,0,0,0l0,.87h0L36,10.2v-.14l0-.68a0,0,0,0,0,0,0h-.11l0,0h0l0,.89v.12l-.15.15v0h0l0-.73a0,0,0,0,0,0,0h-.1s0,0,0,0h0l0,1-.16.16.06-1.1a0,0,0,0,0,0,0h0c0,.34,0,.83-.06,1.19,0,.1,0,.18,0,.26h0a.72.72,0,0,1,0,.17v0h0s0,.08,0,.12v.14a0,0,0,0,0,0,0v0l.16-.16v.17a0,0,0,0,0,0,0h.11a0,0,0,0,0,0,0h0v-.15h0v-.21l.15-.15h0l0,.5s0,0,0,0h.11a0,0,0,0,0,0,0h0l0-.33h0v-.37l.17-.16v0h0V11h0l0,.74-.54.12-.09,0-.18,0v0s0,.08,0,.11,0,0,0,0h.07l.28-.07.58-.12h0s0,0,0,0l.1-2,0-.72,0,0Zm-1,2.22v-.23l.16-.16v.18h0v0h0Zm.34-.35v-.22l.11-.11,0,0v.22Zm.47-.47-.14.14v-.22l.17-.17v.22Z" transform="translate(-0.71 -0.82)"/><path id="Tracciato_75" data-name="Tracciato 75" class="cls-1" d="M30.24,5.06l0,0a.1.1,0,0,1-.05,0h0c-.54.38-1.25-.06-1,0a4,4,0,0,0,1-.06h.08Z" transform="translate(-0.71 -0.82)"/><path id="Tracciato_76" data-name="Tracciato 76" class="cls-1" d="M30.2,5.81h0c-.83.23-1.37-.11-.91-.11a5.63,5.63,0,0,0,.91-.1h0l.13,0S30.43,5.73,30.2,5.81Z" transform="translate(-0.71 -0.82)"/><path id="Tracciato_77" data-name="Tracciato 77" class="cls-1" d="M30.25,6.36l-.06,0h0c-.55.12-.77,0-.8-.07a1.47,1.47,0,0,0,.8-.09h0l0,0A.14.14,0,0,1,30.25,6.36Z" transform="translate(-0.71 -0.82)"/><path id="Tracciato_78" data-name="Tracciato 78" class="cls-1" d="M30.33,10.05a.5.5,0,0,1-.17.15h0l-.07,0c-.38.16-.76-.17-.57-.1a1.37,1.37,0,0,0,.57,0h.07Z" transform="translate(-0.71 -0.82)"/><path id="Tracciato_79" data-name="Tracciato 79" class="cls-1" d="M30.22,12.61l-.06,0h-.07l-.1,0a1.13,1.13,0,0,1-.32,0h0c-.13,0-.15-.09,0-.09h.26l.18,0h.06l.14,0S30.36,12.57,30.22,12.61Z" transform="translate(-0.71 -0.82)"/><path id="Tracciato_80" data-name="Tracciato 80" class="cls-1" d="M30.22,12.93h-.08L30,13h0a1.51,1.51,0,0,1-.3,0c-.22,0-.33-.06-.35-.12a1.24,1.24,0,0,0,.43,0h0l.09,0,.22-.06h0l.09,0h0l0,0h0A.15.15,0,0,1,30.22,12.93Z" transform="translate(-0.71 -0.82)"/><path id="Tracciato_81" data-name="Tracciato 81" class="cls-1" d="M30.23,4.26v0h-.06c-.39.08-.55,0-.58,0a1.14,1.14,0,0,0,.58-.07h0l.05,0s0,0,0,0h0A.08.08,0,0,1,30.23,4.26Z" transform="translate(-0.71 -0.82)"/><g id="Raggruppa_157" data-name="Raggruppa 157"><path id="Tracciato_82" data-name="Tracciato 82" class="cls-1" d="M35.28,3.68l-.71.89a0,0,0,0,1,0,0l-.09-.07s0,0,0,0l.71-.9a0,0,0,0,1,0,0l.09.07a0,0,0,0,1,0,.05Z" transform="translate(-0.71 -0.82)"/><path id="Tracciato_83" data-name="Tracciato 83" class="cls-1" d="M36.64,4.8l0,0-.67.84s0,0,0,0l-.08-.07a0,0,0,0,1,0,0h0l.71-.9s0,0,0,0l.06.05,0,0A0,0,0,0,1,36.64,4.8Z" transform="translate(-0.71 -0.82)"/><path id="Tracciato_84" data-name="Tracciato 84" class="cls-1" d="M35.69,3.61,34.61,5s0,0,0,0h0l-.09-.07a0,0,0,0,1,0,0l1.09-1.37a0,0,0,0,1,0,0l.09.07A0,0,0,0,1,35.69,3.61Z" transform="translate(-0.71 -0.82)"/><path id="Tracciato_85" data-name="Tracciato 85" class="cls-1" d="M36.6,4.37h0L35.51,5.75h0l-.09-.07a0,0,0,0,1,0,0l1.09-1.38h0l.09.07h0Z" transform="translate(-0.71 -0.82)"/><path id="Tracciato_86" data-name="Tracciato 86" class="cls-1" d="M36.16,3.52l-1.59,2s0,0,0,0h0l-.09-.07s0,0,0,0l1.59-2s0,0,0,0l.09.08s0,0,0,0Z" transform="translate(-0.71 -0.82)"/><path id="Tracciato_87" data-name="Tracciato 87" class="cls-1" d="M36.59,3.94,35,5.94s0,0,0,0l-.09-.07a0,0,0,0,1,0,0l1.58-2a0,0,0,0,1,0,0h0l.09.07A0,0,0,0,1,36.59,3.94Z" transform="translate(-0.71 -0.82)"/><path id="Tracciato_88" data-name="Tracciato 88" class="cls-1" d="M36.56,3.48l-2,2.5h0l-.09-.07a0,0,0,0,1,0,0l2-2.5s0,0,0,0h0l.09.07A0,0,0,0,1,36.56,3.48Z" transform="translate(-0.71 -0.82)"/></g><path id="Tracciato_89" data-name="Tracciato 89" class="cls-1" d="M36.42,9.17l0,.72-.11,2,0,0h-.12s0,0,0,0h0v-.12l0-.73h0v-.22h0v0l0-.26V10l0-.87s0,0,0,0h.11s0,0,0,0Z" transform="translate(-0.71 -0.82)"/><path id="Tracciato_90" data-name="Tracciato 90" class="cls-1" d="M36.32,10.16l-.08.08-.05,0-.34.34-.05,0-.11.11-.18.18-.16.16,0,0h0l0,0h0l-.27.27-.45.45-.06.06-.18.18-.21.21h0L34,12.28a0,0,0,0,1,0,0h0L36.2,10h0l0,0h0l.06.06a0,0,0,0,1,0,0Z" transform="translate(-0.71 -0.82)"/><path id="Tracciato_91" data-name="Tracciato 91" class="cls-1" d="M36.3,10.64l-.12.12,0,0h0l-.34.34h0l-.15.15-.11.11h0l-.07.07-.17.17h0l0,0-.56.56h-.05l-.08-.08a0,0,0,0,1,0,0l.08-.07.5-.5.13-.14h0l.05,0,.16-.17h0l.07-.07h0l.11-.11.15-.15.18-.18.14-.14,0,0h0l.08.08S36.32,10.62,36.3,10.64Z" transform="translate(-0.71 -0.82)"/><path id="Tracciato_92" data-name="Tracciato 92" class="cls-1" d="M36.08,9.38l0,.68v.88l0,.37h0l0,.33a0,0,0,0,1,0,0h-.11a0,0,0,0,1,0,0h0l0-.5h0v-.86l0-.89a0,0,0,0,1,0,0h.11a0,0,0,0,1,0,0Z" transform="translate(-0.71 -0.82)"/><path id="Tracciato_93" data-name="Tracciato 93" class="cls-1" d="M35.74,9.77l0,.73h0v0l0,.26v.69h0v.16a0,0,0,0,1,0,0h-.11a0,0,0,0,1,0,0V11.2h0v0h0v-.44l0-1s0,0,0,0h.11Z" transform="translate(-0.71 -0.82)"/><path id="Tracciato_94" data-name="Tracciato 94" class="cls-1" d="M35.42,9.77l-.06,1.1v.25h0v.51l0,0h-.13a0,0,0,0,1,0,0h0v-.58l.07-1.29a0,0,0,0,1,0,0h.11A0,0,0,0,1,35.42,9.77Z" transform="translate(-0.71 -0.82)"/><path id="Tracciato_95" data-name="Tracciato 95" class="cls-1" d="M36.24,11.91h0l-.57.13-.29.06-.06,0-.11,0-.26.06h0l-1.34.3,0,0h0l0-.11s0,0,0,0l.46-.1.31-.07.28-.06h0l.06,0,.21-.05.32-.07h.07l.18,0,.1,0,.53-.12.09,0h0l0,0,0,.11S36.25,11.91,36.24,11.91Z" transform="translate(-0.71 -0.82)"/></g><g id="LEGAMI_ARTISTICI_NELL_APPIO_TUSCOLANO" data-name="LEGAMI ARTISTICI NELL APPIO TUSCOLANO" class="cls-2"><text class="cls-3" transform="translate(1.52 17)">L<tspan class="cls-4" x="0.95" y="0">EG</tspan><tspan class="cls-5" x="3.02" y="0">A</tspan><tspan class="cls-6" x="4.15" y="0">MI </tspan><tspan class="cls-5" x="6.26" y="0">A</tspan><tspan class="cls-7" x="7.39" y="0">RTI</tspan><tspan class="cls-8" x="9.79" y="0">S</tspan><tspan class="cls-9" x="10.76" y="0">TICI NE</tspan><tspan x="16.11" y="0">L</tspan><tspan class="cls-10" x="17.06" y="0">L</tspan><tspan class="cls-11" x="17.86" y="0">’</tspan><tspan class="cls-5" x="18.05" y="0">A</tspan><tspan class="cls-9" x="19.17" y="0">PPIO </tspan><tspan class="cls-12" x="23.15" y="0">T</tspan><tspan class="cls-9" x="24.12" y="0">USCO</tspan><tspan class="cls-13" x="28.44" y="0">L</tspan><tspan class="cls-5" x="29.42" y="0">A</tspan><tspan class="cls-14" x="30.54" y="0">NO</tspan></text></g></svg>